<?xml version="1.0" encoding="UTF-8"?>
<!-- Created with Inkscape (http://www.inkscape.org/) -->
<svg width="237.83" height="60.2" version="1.1" viewBox="0 0 237.83 60.2" xml:space="preserve" xmlns="http://www.w3.org/2000/svg"><g transform="matrix(1.3333 0 0 -1.3333 0 60.2)"><g transform="scale(.1)" fill="#fff"><path d="m884.32 255.86h-37.285v-96.953h-32.539v96.953h-37.285v28.008h107.11v-28.008"/><path d="m888.17 283.87h99.59v-26.074h-67.032v-21.875h61.25v-25.215h-61.25v-23.789h68.79v-28.008h-101.35v124.96"/><path d="m1080.5 239.24c-1.73 12.598-11.54 19.258-25.19 19.258-21 0-29.06-18.555-29.06-37.109 0-18.555 8.06-37.11 29.06-37.11 15.21 0 23.98 8.75 25.19 23.106h32.56c-1.76-32.207-25.37-51.113-57.05-51.113-37.81 0-62.301 28.886-62.301 65.117 0 36.23 24.491 65.097 62.301 65.097 26.95 0 56.17-17.148 57.05-47.246h-32.56"/><path d="m1119.5 283.87h32.56v-45.508h42.87v45.508h32.56v-124.96h-32.56v51.446h-42.87v-51.446h-32.56v124.96"/><path d="m864.03 82.969c-1.758 12.598-11.562 19.258-25.215 19.258-20.996 0-29.043-18.555-29.043-37.11s8.047-37.109 29.043-37.109c15.235 0 23.985 8.75 25.215 23.106h32.539c-1.738-32.207-25.371-51.113-57.05-51.113-37.793 0-62.305 28.887-62.305 65.117 0 36.231 24.512 65.098 62.305 65.098 26.953 0 56.191-17.149 57.05-47.246h-32.539"/><path d="m903.06 127.6h32.539v-45.508h42.89v45.508h32.556v-124.96h-32.556v51.445h-42.89v-51.445h-32.539v124.96"/><path d="m1058.6 49.18h28.36l-13.83 43.77h-0.35zm-2.09 78.418h33.07l46.73-124.96h-33.96l-7.7 22.402h-43.57l-7.87-22.402h-33.44l46.74 124.96"/><path d="m1135.3 127.6h32.54v-96.954h58.28v-28.008h-90.82v124.96"/><path d="m1231.7 127.6h32.56v-96.954h58.28v-28.008h-90.84v124.96"/><path d="m1328.2 127.6h99.59v-26.075h-67.03v-21.875h61.25v-25.215h-61.25v-23.789h68.79v-28.008h-101.35v124.96"/><path d="m1437.2 127.6h33.42l43.42-77.012h0.35v77.012h30.63v-124.96h-33.44l-43.4 77.871h-0.35v-77.871h-30.63v124.96"/><path d="m1672.1 2.6367h-21.02l-1.91 13.652c-8.58-12.09-23.28-16.289-34.85-16.289-37.79 0-62.3 28.887-62.3 65.117 0 36.231 24.51 65.098 62.3 65.098 25.92 0 53.56-13.828 56.55-45.156h-32.56c-1.06 10.684-11.55 17.168-24.67 17.168-21.02 0-29.06-18.555-29.06-37.11s8.04-37.109 29.06-37.109c16.09 0 26.95 7.5195 28.69 18.906h-22.75v24.141h52.52v-68.418"/><path d="m1682.4 127.6h99.59v-26.075h-67.05v-21.875h61.27v-25.215h-61.27v-23.789h68.79v-28.008h-101.33v124.96"/><path d="m804.43 449.04h88.484l-8.332-34.074h-42.41l-4.192-17.902h44.239l-7.703-31.567h-43.668l-10.481-44.851h-45.711l29.774 128.39"/><path d="m904.94 449.04h45.711l-29.773-128.39h-45.711l29.773 128.39"/><path d="m996.37 387.82c14.673 0 24.953 8.668 24.953 20.985 0 6.547-4.82 9.816-14.26 9.816-2.73 0-4.19-0.191-7.13-0.769l-6.918-29.641c1.468-0.195 1.679-0.391 3.355-0.391zm-33.758 60.446 2.938 0.386c14.676 1.735 32.918 2.887 42.983 2.887 16.77 0 29.77-1.926 39.63-5.965 12.58-5.199 20.13-16.554 20.13-30.222 0-11.743-3.99-22.907-11.54-31.571-6.5-7.508-12.37-11.164-24.53-14.82l-2.93-0.965c1.25-0.961 1.67-1.348 2.3-1.926 3.57-4.043 14.26-24.832 23.28-45.425h-50.33c-6.493 18.285-8.384 23.097-16.981 43.886l-10.063-43.886h-44.449l29.562 127.62"/><path d="m1176.8 449.04h110.9l-7.75-37.168h-32.91l-21.81-91.226h-45.71l21.81 91.226h-35.68l11.15 37.168"/><path d="m1246.3 332.8c0.99 0 1.55 0.476 1.55 1.383 0 0.863-0.51 1.335-1.51 1.335-0.21 0-0.25 0-0.47-0.043v-2.628c0.17-0.047 0.26-0.047 0.43-0.047zm-4.01 5.347c0.56 0.043 0.65 0.082 1.77 0.172 1.12 0.086 1.59 0.129 2.07 0.129 3.66 0 5.47-1.422 5.47-4.137 0-1.636-0.69-2.628-2.15-3.191l-0.18-0.043c0.13-0.086 0.18-0.129 0.22-0.215 0.39-0.344 1.68-2.285 2.76-4.051h-4.18c-0.86 1.594-1.12 2.028-2.2 3.836v-3.836h-3.58zm4.31-15.472c5.43 0 9.79 4.351 9.79 9.738 0 5.43-4.36 9.785-9.79 9.785-5.38 0-9.74-4.355-9.74-9.742 0-5.473 4.31-9.781 9.74-9.781zm0 20.902c6.16 0 11.17-4.961 11.17-11.121 0-6.203-4.96-11.16-11.17-11.16-6.25 0-11.12 4.871-11.12 11.16 0 6.207 4.92 11.121 11.12 11.121"/><path d="m1059.4 323.91c12.85-3.816 26.9-5.957 40.03-5.957 17.82 0 31.45 4.039 43.19 12.512 13 9.238 21.39 23.48 21.39 36.379 0 8.664-3.78 16.555-10.48 22.14-5.25 4.231-10.7 7.508-21.81 12.704l-9.02 4.234c-2.93 1.539-4.4 3.078-4.4 4.812 0 4.622 5.87 8.083 13.84 8.083 5.96 0 13.06-1.731 26.64-6.172l9.37 34.757c-10.16 2.758-20.05 4.141-29.93 4.141-37.32 0-66.05-20.402-66.05-46.777 0-13.856 9.23-23.676 32.29-34.457 10.9-5 12.79-6.352 12.79-9.817 0-5.195-5.66-8.468-14.89-8.468-8.17 0-18.66 2.503-32.92 7.699l-0.01-4e-3 -10.03-35.809"/><path d="m113.06 146.58-5.208-27.207 51.829 22.238c-3.301 6.973-5.969 14.176-7.887 21.571l-38.734-16.602"/><path d="m113.06 146.58"/><path d="m539.55 37.734-42.61 40.91c16.731 11.465 30.911 24.91 41.829 39.872 0.156 0.214 0.293 0.437 0.449 0.656l103.61 107.6 3.086 3.308 13.535 14.082-126.56 121.5-28.457-29.605-31.36-32.688-21.375-22.265-40.293-41.977 0.02-0.019-3.488-3.633 11.75-11.25 54.531-53.172c-11.934-11.289-27.102-20.977-44.207-28.098-0.024-8e-3 -0.032-8e-3 -0.032-8e-3l-35.996 34.551-35.332 33.934-24.043 22.785 57.129 59.504 28.692 29.89 31.179 32.465 77.922 81.149 205.11-196.32zm26.426 172.45c0.925 6.082 1.445 12.078 1.445 17.871 0 33.996-15.41 69.851-41.289 96.601l6.758 7.012 104.82-100.64-86.797-90.382c9.219 21.418 15.184 47.863 15.184 66.828 0 0.8-0.055 1.738-0.125 2.715zm-87.149-34.543-49.473 48.203 41.895 43.652c14.922-12.43 25.938-27.285 31.777-43.602-0.359-2.675-0.808-5.343-1.464-8.039-3.536-14.445-11.204-27.949-22.735-40.214zm-8.223-72.04c-7.636-3.898-15.761-7.4136-24.121-10.5-28.703-10.606-59.668-15.965-92.011-15.965-45.856 0-89.25 10.887-125.5 31.531-20.043 11.398-36.883 25.226-50.028 41.105-5.035 6.075-9.472 12.391-13.222 18.809-7.723 13.191-12.824 27.078-15.156 41.277-1.043 6.328-1.555 12.278-1.555 18.196 0 21.945 6.301 43.093 18.746 62.898l33.348-33.754c-2.27-7.746-3.411-15.621-3.411-23.433 0-6.504 0.805-13.114 2.407-19.696 2.265-9.238 6.172-18.301 11.597-26.926 4.297-6.835 9.539-13.328 15.555-19.355 16.551-16.504 39-29.52 64.938-37.605 19.691-6.125 40.644-9.239 62.285-9.239 17.468 0 34.738 2.078 51.328 6.18 9.433 2.363 18.574 5.363 27.09 8.887 19.621 8.175 36.894 19.562 49.961 32.937 13.261 13.606 22.011 28.801 25.996 45.141 1.601 6.609 2.422 13.222 2.422 19.676 0 18.57-7.004 39.597-18.411 55.675l28.391 29.547c24.277-25.316 38.672-59.035 38.672-90.933 0-5.879-0.527-11.993-1.543-18.196-4.387-26.758-18.594-52.265-41.074-73.73-13.184-12.586-28.887-23.524-46.7-32.528zm-327.43 105.03c0.031-0.235 0.113-0.457 0.148-0.703-0.086-0.957-0.148-1.844-0.148-2.547 0-10.02 6.14-33.809 8.621-43.313 0-7e-3 8e-3 -0.019 8e-3 -0.031l-32.586-13.934 31.078 161.95 12.758-12.617c-14.254-21.727-21.535-45.051-21.535-69.375 0-6.321 0.535-12.688 1.656-19.426zm76.043-19.121c-0.371 0.547-0.821 1.066-1.176 1.621-4.996 7.949-8.59 16.277-10.656 24.726-0.219 0.899-0.313 1.797-0.508 2.696 2.426 8.508 6.269 16.672 11.301 24.347l39.601-39.199zm150.29-22.52 34.043-32.676c-15.86-3.894-32.375-5.878-49.082-5.878-20.879 0-41.094 3-60.043 8.917-2.535 0.782-4.996 1.661-7.461 2.54l75.441 33.925zm-332.56-134.87 73.125 407.39 137.11-129.94 24.996-23.687 59.324-56.555v-25.812l25.223-24.239-78.797-35.847c-17.789 7.527-33.289 17.625-45.379 29.707-0.266 0.254-0.496 0.566-0.774 0.847l60.457 28.235-142.18 132.39-2.809 2.825-3.402-18.344-33.567-175.01-5.191-27.176 8.898 3.797 0.028 0.227 45.679 19.566c7.137-15.066 17.371-29.043 30.118-41.543zm354.45 270.25-61.004-63.527-53.594 50.789c23.016 9.996 50.043 15.805 78.996 15.805 12.262 0 24.168-1.094 35.602-3.067zm-43.954 82.785c33.106 0 77.356-8.492 105.43-18.738l-1.262-1.316-31.179-32.465-0.11-0.117c-19.617 6.562-41.453 10.25-64.527 10.25-40.281 0-76.848-11.188-104.05-29.403l-0.402 0.387-32.707 30.992-2.91 2.77c35.742 21.582 82.125 37.64 131.71 37.64zm391.88-139.44v0.074l-0.039-0.035-209.75 200.5-70.558-73.492c-29.16 11.285-75 20.344-109.82 20.344-50.703 0-102.95-17.301-139.44-39.891l-98.383 93.234 8e-3 0.106-0.105-8e-3 -0.067 0.055-0.019-0.067-35.184-3.683-75.957-415.88 35.352-3.6914 0.0351 0.1055 160.26 70.129c0.258-0.2344 0.5-0.4883 0.754-0.7148 38.137-33.633 95.375-55.059 159.39-55.059 44.422 0 85.535 10.332 119.32 27.883l64.434-61.867 199.76 208.07v33.84l0.039 0.032-0.039 0.019"/></g></g></svg>
