<?xml version="1.0" encoding="UTF-8"?>
<!-- Created with Inkscape (http://www.inkscape.org/) -->
<svg width="195.83" height="91.04" version="1.1" viewBox="0 0 195.83 91.04" xmlns="http://www.w3.org/2000/svg">
 <g transform="matrix(1.3333 0 0 -1.3333 0 91.04)">
  <g transform="scale(.1)" fill="#fff">
   <path d="m522.11 378.83h-54.394v-141.5h-47.52v141.5h-54.394v40.867h156.31v-40.867"/>
   <path d="m527.7 419.7h145.35v-38.054h-97.832v-31.934h89.394v-36.777h-89.394v-34.746h100.39v-40.86h-147.91v182.37"/>
   <path d="m808.38 354.56c-2.539 18.39-16.856 28.097-36.777 28.097-30.645 0-42.403-27.07-42.403-54.14 0-27.09 11.758-54.161 42.403-54.161 22.226 0 35 12.774 36.777 33.719h47.519c-2.558-47-37.031-74.59-83.281-74.59-55.156 0-90.918 42.149-90.918 95.032 0 52.871 35.762 95.019 90.918 95.019 39.336 0 82.012-25.039 83.281-68.976h-47.519"/>
   <path d="m865.31 419.7h47.5v-66.414h62.578v66.414h47.519v-182.37h-47.519v75.098h-62.578v-75.098h-47.5v182.37"/>
   <path d="m126.7 121.07c-2.558 18.387-16.855 28.094-36.777 28.094-30.645 0-42.402-27.078-42.402-54.148 0-27.082 11.758-54.16 42.402-54.16 22.226 0 35 12.773 36.777 33.73h47.52c-2.559-47.012-37.051-74.59-83.282-74.59-55.176 0-90.938 42.148-90.938 95.02 0 52.872 35.762 95.02 90.938 95.02 39.336 0 81.992-25.039 83.282-68.965h-47.52"/>
   <path d="m183.61 186.21h47.52v-66.418h62.578v66.418h47.519v-182.38h-47.519v75.098h-62.578v-75.098h-47.52v182.38"/>
   <path d="m410.66 71.777h41.387l-20.196 63.848h-0.507zm-3.066 114.43h48.281l68.203-182.38h-49.551l-11.25 32.695h-63.593l-11.504-32.695h-48.789l68.203 182.38"/>
   <path d="m522.5 186.21h47.52v-141.52h85.058v-40.867h-132.58v182.38"/>
   <path d="m663.22 186.21h47.5v-141.52h85.058v-40.867h-132.56v182.38"/>
   <path d="m803.93 186.21h145.35v-38.066h-97.832v-31.934h89.395v-36.777h-89.395v-34.738h100.39v-40.867h-147.91v182.38"/>
   <path d="m963.03 186.21h48.793l63.34-112.39h0.51v112.39h44.7v-182.38h-48.79l-63.34 113.67h-0.5v-113.67h-44.713v182.38"/>
   <path d="m1305.8 3.8281h-30.66l-2.79 19.922c-12.52-17.617-33.99-23.75-50.84-23.75-55.18 0-90.94 42.148-90.94 95.02 0 52.872 35.76 95.02 90.94 95.02 37.81 0 78.16-20.176 82.5-65.898h-47.5c-1.55 15.574-16.86 25.027-36.02 25.027-30.66 0-42.4-27.078-42.4-54.148 0-27.082 11.74-54.16 42.4-54.16 23.5 0 39.34 10.996 41.89 27.598h-33.22v35.242h76.64v-99.871"/>
   <path d="m1320.8 186.21h145.33v-38.066h-97.83v-31.934h89.42v-36.777h-89.42v-34.738h100.39v-40.867h-147.89v182.38"/>
   <path d="m360.5 678.63h145.89l-13.739-56.176h-69.921l-6.914-29.516h72.945l-12.703-52.05h-71.996l-17.286-73.95h-75.363l49.09 211.69"/>
   <path d="m526.22 678.63h75.363l-49.09-211.69h-75.363l49.09 211.69"/>
   <path d="m676.96 577.7c24.199 0 41.141 14.285 41.141 34.594 0 10.793-7.953 16.191-23.508 16.191-4.496 0-6.914-0.316-11.754-1.273l-11.41-48.871c2.422-0.321 2.765-0.641 5.531-0.641zm-55.656 99.66 4.84 0.637c24.199 2.855 54.273 4.758 70.867 4.758 27.656 0 49.09-3.172 65.34-9.836 20.742-8.57 33.187-27.297 33.187-49.832 0-19.356-6.566-37.766-19.015-52.047-10.719-12.375-20.395-18.406-40.45-24.438l-4.84-1.585c2.075-1.59 2.77-2.227 3.805-3.176 5.875-6.668 23.508-40.946 38.375-74.903h-82.969c-10.718 30.153-13.828 38.082-28.003 72.364l-16.594-72.364h-73.289l48.746 210.42"/>
   <path d="m974.44 678.63h182.86l-12.77-61.281h-54.28l-35.95-150.41h-75.362l35.952 150.41h-58.827l18.378 61.281"/>
   <path d="m1089.1 487c1.64 0 2.56 0.781 2.56 2.277 0 1.418-0.85 2.204-2.49 2.204-0.35 0-0.42 0-0.78-0.075v-4.336c0.29-0.07 0.43-0.07 0.71-0.07zm-6.61 8.813c0.93 0.07 1.07 0.14 2.92 0.281 1.84 0.144 2.63 0.219 3.41 0.219 6.04 0 9.02-2.348 9.02-6.825 0-2.699-1.13-4.332-3.55-5.257l-0.28-0.075c0.21-0.144 0.28-0.211 0.35-0.351 0.64-0.571 2.77-3.77 4.55-6.684h-6.89c-1.42 2.633-1.85 3.344-3.63 6.324v-6.324h-5.9zm7.11-25.512c8.95 0 16.13 7.18 16.13 16.058 0 8.954-7.18 16.133-16.13 16.133-8.88 0-16.06-7.179-16.06-16.058 0-9.024 7.11-16.133 16.06-16.133zm0 34.465c10.16 0 18.4-8.176 18.4-18.332 0-10.235-8.17-18.407-18.4-18.407-10.3 0-18.33 8.032-18.33 18.407 0 10.226 8.1 18.332 18.33 18.332"/>
   <path d="m780.83 472.32c21.188-6.293 44.356-9.82 66.004-9.82 29.387 0 51.856 6.66 71.215 20.629 21.43 15.234 35.262 38.715 35.262 59.98 0 14.286-6.223 27.297-17.286 36.504-8.64 6.977-17.628 12.375-35.953 20.946l-14.863 6.98c-4.844 2.539-7.262 5.078-7.262 7.938 0 7.613 9.68 13.324 22.817 13.324 9.828 0 21.543-2.856 43.926-10.176l15.449 57.305c-16.742 4.55-33.055 6.828-49.352 6.828-61.535 0-108.89-33.641-108.89-77.121 0-22.852 15.211-39.039 53.238-56.813 17.973-8.25 21.09-10.476 21.09-16.183 0-8.571-9.336-13.969-24.547-13.969-13.484 0-30.766 4.129-54.277 12.695l-0.028-8e-3 -16.539-59.039"/>
  </g>
 </g>
</svg>
