<?xml version="1.0" encoding="UTF-8"?>
<!-- Created with Inkscape (http://www.inkscape.org/) -->
<svg width="223.63" height="90.787" version="1.1" viewBox="0 0 223.63 90.787" xmlns="http://www.w3.org/2000/svg">
 <g transform="matrix(1.3333 0 0 -1.3333 0 90.787)">
  <g transform="scale(.1)" fill="#fff">
   <path d="m263.22 340.23h39.816c14.277 0 21.953 7.664 21.953 21.446 0 13.523-10.715 19.648-24.004 19.648h-37.765zm-47.481 79.121h92.903c32.168 0 63.816-14.55 63.816-51.289 0-19.648-9.465-38.3-28.582-45.703v-0.519c19.383-4.571 25-26.278 26.551-43.614 0.508-7.675 1.261-34.468 7.636-41.093h-46.953c-4.082 6.133-4.863 23.965-5.371 29.082-1.258 18.371-4.316 37.258-26.531 37.258h-35.988v-66.34h-47.481v182.22"/>
   <path d="m467.63 274.13c30.605 0 42.332 27.047 42.332 54.121 0 27.059-11.727 54.09-42.332 54.09-30.656 0-42.375-27.031-42.375-54.09 0-27.074 11.719-54.121 42.375-54.121zm0 149.06c57.41 0 89.824-42.097 89.824-94.937 0-52.844-32.414-94.953-89.824-94.953-57.434 0-89.844 42.109-89.844 94.953 0 52.84 32.41 94.937 89.844 94.937"/>
   <path d="m615.35 275.17h38.039c15.039 0 25.515 5.348 25.515 20.398 0 16.094-11.238 21.465-25.515 21.465h-38.039zm0 72.469h36.75c8.164 0 19.402 4.343 19.402 17.363 0 13.27-9.441 17.598-19.402 17.598h-36.75zm-47.481 71.718h85.246c31.387 0.508 65.867-7.656 65.867-45.695 0-16.316-9.707-29.578-24.004-36.758 19.387-5.586 31.399-22.437 31.399-43.113 0-43.391-31.914-56.652-70.957-56.652h-87.551v182.22"/>
   <path d="m819.75 274.13c30.625 0 42.356 27.047 42.356 54.121 0 27.059-11.731 54.09-42.356 54.09-30.633 0-42.363-27.031-42.363-54.09 0-27.074 11.73-54.121 42.363-54.121zm0 149.06c57.422 0 89.844-42.097 89.844-94.937 0-52.844-32.422-94.953-89.844-94.953-57.43 0-89.844 42.109-89.844 94.953 0 52.84 32.414 94.937 89.844 94.937"/>
   <path d="m1064.5 378.51h-54.37v-141.37h-47.471v141.37h-54.356v40.847h156.2v-40.847"/>
   <path d="m1075 417.7h47.46v-182.23h-47.46v182.23"/>
   <path d="m1256.1 354.27c-2.53 18.371-16.84 28.078-36.74 28.078-30.62 0-42.36-27.031-42.36-54.09 0-27.074 11.74-54.121 42.36-54.121 22.2 0 34.98 12.754 36.74 33.699h47.49c-2.54-46.973-37-74.531-83.21-74.531-55.12 0-90.85 42.109-90.85 94.953 0 52.84 35.73 94.937 90.85 94.937 39.32 0 81.95-25.027 83.21-68.925h-47.49"/>
   <path d="m1350.5 298.37c1.03-21.426 14.31-28.316 34.47-28.316 14.3 0 29.09 5.117 29.09 18.629 0 16.086-26.02 19.152-52.3 26.554-26.05 7.395-53.38 19.141-53.38 52.579 0 39.816 40.08 55.378 74.28 55.378 36.25 0 72.73-17.617 72.99-58.699h-47.45c0.75 16.602-14.82 21.942-29.35 21.942-10.22 0-22.97-3.582-22.97-15.555 0-14.055 26.29-16.613 52.82-24.024 26.28-7.39 52.82-19.636 52.82-52.55 0-46.211-39.29-61.004-79.35-61.004-41.87 0-78.88 18.379-79.13 65.066h47.46"/>
   <path d="m126.6 120.98c-2.567 18.371-16.864 28.071-36.778 28.071-30.605 0-42.363-27.051-42.363-54.106 0-27.066 11.758-54.102 42.363-54.102 22.215 0 34.973 12.754 36.778 33.672h47.472c-2.57-46.961-37.004-74.52-83.203-74.52-55.137 0-90.871 42.109-90.871 94.949 0 52.813 35.734 94.934 90.871 94.934 39.305 0 81.922-25.012 83.203-68.899h-47.472"/>
   <path d="m266.93 40.848c30.617 0 42.343 27.035 42.343 54.102 0 27.055-11.726 54.106-42.343 54.106-30.645 0-42.371-27.051-42.371-54.106 0-27.066 11.726-54.102 42.371-54.102zm0 149.04c57.421 0 89.824-42.121 89.824-94.934 0-52.84-32.403-94.949-89.824-94.949-57.43 0-89.844 42.109-89.844 94.949 0 52.813 32.414 94.934 89.844 94.934"/>
   <path d="m367.42 186.06h69.961l31.379-121.48h0.515l31.399 121.48h69.922v-182.23h-44.66v138.34h-0.508l-38.289-138.34h-36.243l-38.289 138.34h-0.5v-138.34h-44.687v182.23"/>
   <path d="m625.64 101.32h31.906c14.785 0 25.515 6.125 25.515 22.739 0 17.066-10.964 23.98-25.515 23.98h-31.906zm-47.461 84.739h86.504c33.933 0 65.839-15.578 65.839-58.711 0-45.176-25.769-62.766-65.839-62.766h-39.043v-60.75h-47.461v182.23"/>
   <path d="m740.99 186.06h145.24v-38.02h-97.761v-31.902h89.336v-36.746h-89.336v-34.719h100.3v-40.84h-147.78v182.23"/>
   <path d="m1049.9 145.22h-54.363v-141.39h-47.488v141.39h-54.336v40.832h156.19v-40.832"/>
   <path d="m1057.2 186.06h47.45v-182.23h-47.45v182.23"/>
   <path d="m1268.4 145.22h-54.38v-141.39h-47.48v141.39h-54.34v40.832h156.2v-40.832"/>
   <path d="m1277.3 186.06h47.46v-182.23h-47.46v182.23"/>
   <path d="m1425.2 40.848c30.66 0 42.38 27.035 42.38 54.102 0 27.055-11.72 54.106-42.38 54.106-30.61 0-42.37-27.051-42.37-54.106 0-27.066 11.76-54.102 42.37-54.102zm0 149.04c57.44 0 89.86-42.121 89.86-94.934 0-52.84-32.42-94.949-89.86-94.949-57.41 0-89.83 42.109-89.83 94.949 0 52.813 32.42 94.934 89.83 94.934"/>
   <path d="m1520 186.06h48.74l63.28-112.29h0.52v112.29h44.67v-182.23h-48.76l-63.28 113.58h-0.52v-113.58h-44.65v182.23"/>
   <path d="m464.76 676.77h145.89l-13.739-56.18h-69.922l-6.914-29.516h72.946l-12.703-52.047h-71.997l-17.285-73.949h-75.363l49.09 211.69"/>
   <path d="m630.48 676.77h75.363l-49.09-211.69h-75.363l49.09 211.69"/>
   <path d="m781.22 575.84c24.199 0 41.14 14.285 41.14 34.594 0 10.793-7.953 16.187-23.507 16.187-4.496 0-6.914-0.316-11.754-1.269l-11.41-48.875c2.421-0.321 2.765-0.637 5.531-0.637zm-55.656 99.66 4.839 0.633c24.2 2.859 54.274 4.762 70.868 4.762 27.656 0 49.089-3.176 65.339-9.836 20.743-8.571 33.188-27.297 33.188-49.832 0-19.36-6.566-37.77-19.016-52.051-10.718-12.375-20.394-18.406-40.449-24.438l-4.84-1.586c2.075-1.589 2.77-2.222 3.805-3.175 5.879-6.664 23.508-40.946 38.375-74.899h-82.969c-10.719 30.149-13.828 38.082-28.004 72.36l-16.593-72.36h-73.289l48.746 210.42"/>
   <path d="m1078.7 676.77h182.86l-12.78-61.282h-54.27l-35.95-150.41h-75.37l35.96 150.41h-58.83l18.38 61.282"/>
   <path d="m1193.3 485.13c1.63 0 2.56 0.781 2.56 2.273 0 1.422-0.85 2.203-2.49 2.203-0.35 0-0.42 0-0.78-0.07v-4.336c0.28-0.07 0.43-0.07 0.71-0.07zm-6.61 8.808c0.93 0.075 1.07 0.141 2.92 0.286 1.84 0.144 2.63 0.214 3.41 0.214 6.04 0 9.02-2.347 9.02-6.824 0-2.699-1.13-4.332-3.55-5.258l-0.29-0.07c0.22-0.144 0.29-0.215 0.36-0.351 0.64-0.571 2.77-3.77 4.55-6.684h-6.89c-1.43 2.629-1.85 3.34-3.63 6.324v-6.324h-5.9zm7.11-25.507c8.95 0 16.13 7.179 16.13 16.058 0 8.953-7.18 16.129-16.13 16.129-8.88 0-16.06-7.176-16.06-16.058 0-9.024 7.11-16.129 16.06-16.129zm0 34.464c10.16 0 18.4-8.175 18.4-18.335 0-10.231-8.17-18.407-18.4-18.407-10.31 0-18.33 8.035-18.33 18.407 0 10.23 8.1 18.335 18.33 18.335"/>
   <path d="m885.09 470.46c21.187-6.297 44.355-9.824 66.004-9.824 29.387 0 51.86 6.664 71.21 20.629 21.44 15.234 35.27 38.718 35.27 59.98 0 14.289-6.22 27.301-17.29 36.504-8.64 6.981-17.63 12.379-35.95 20.945l-14.865 6.981c-4.844 2.543-7.262 5.082-7.262 7.937 0 7.618 9.68 13.329 22.817 13.329 9.83 0 21.54-2.86 43.92-10.176l15.45 57.304c-16.74 4.547-33.05 6.829-49.35 6.829-61.532 0-108.89-33.641-108.89-77.125 0-22.848 15.211-39.036 53.239-56.813 17.972-8.246 21.09-10.473 21.09-16.184 0-8.566-9.336-13.964-24.547-13.964-13.485 0-30.766 4.125-54.278 12.695l-0.027-8e-3 -16.539-59.039"/>
  </g>
 </g>
</svg>
