<?xml version="1.0" encoding="UTF-8"?>
<!-- Created with Inkscape (http://www.inkscape.org/) -->
<svg width="257.07" height="60.707" version="1.1" viewBox="0 0 257.07 60.707" xml:space="preserve" xmlns="http://www.w3.org/2000/svg"><g transform="matrix(1.3333 0 0 -1.3333 0 60.707)"><g transform="scale(.1)" fill="#fff"><path d="m810.15 233.36h27.305c9.805 0 15.059 5.254 15.059 14.707 0 9.278-7.344 13.477-16.446 13.477h-25.918zm-32.539 54.258h63.711c22.051 0 43.75-9.98 43.75-35.176 0-13.476-6.484-26.25-19.609-31.328v-0.351c13.301-3.164 17.148-18.028 18.203-29.942 0.352-5.234 0.879-23.613 5.254-28.164h-32.207c-2.793 4.199-3.32 16.446-3.672 19.942-0.879 12.597-2.969 25.566-18.203 25.566h-24.688v-45.508h-32.539v124.96"/><path d="m950.34 188.03c20.996 0 29.062 18.555 29.062 37.11 0 18.554-8.066 37.109-29.062 37.109s-29.043-18.555-29.043-37.109c0-18.555 8.047-37.11 29.043-37.11zm0 102.21c39.375 0 61.606-28.867 61.606-65.097 0-36.231-22.231-65.117-61.606-65.117s-61.602 28.886-61.602 65.117c0 36.23 22.227 65.097 61.602 65.097"/><path d="m1051.7 188.73h26.1c10.31 0 17.5 3.672 17.5 14.004 0 11.016-7.72 14.707-17.5 14.707h-26.1zm0 49.708h25.22c5.6 0 13.3 2.968 13.3 11.894 0 9.102-6.49 12.07-13.3 12.07h-25.22zm-32.54 49.179h58.46c21.52 0.352 45.16-5.254 45.16-31.328 0-11.211-6.66-20.312-16.47-25.215 13.3-3.847 21.53-15.39 21.53-29.57 0-29.746-21.88-38.848-48.66-38.848h-60.02v124.96"/><path d="m1191.9 188.03c20.99 0 29.06 18.555 29.06 37.11 0 18.554-8.07 37.109-29.06 37.109-21 0-29.04-18.555-29.04-37.109 0-18.555 8.04-37.11 29.04-37.11zm0 102.21c39.37 0 61.6-28.867 61.6-65.097 0-36.231-22.23-65.117-61.6-65.117-39.38 0-61.6 28.886-61.6 65.117 0 36.23 22.22 65.097 61.6 65.097"/><path d="m1356.4 259.61h-37.29v-96.953h-32.55v96.953h-37.27v28.008h107.11v-28.008"/><path d="m1363.6 287.62h32.54v-124.96h-32.54v124.96"/><path d="m1491.2 242.99c-1.74 12.598-11.55 19.258-25.2 19.258-21 0-29.06-18.555-29.06-37.109 0-18.555 8.06-37.11 29.06-37.11 15.22 0 23.98 8.75 25.2 23.106h32.55c-1.75-32.207-25.37-51.113-57.05-51.113-37.81 0-62.3 28.886-62.3 65.117 0 36.23 24.49 65.097 62.3 65.097 26.96 0 56.18-17.148 57.05-47.246h-32.55"/><path d="m1555.9 204.65c0.69-14.687 9.79-19.414 23.61-19.414 9.81 0 19.97 3.496 19.97 12.774 0 11.015-17.86 13.125-35.88 18.203-17.85 5.078-36.59 13.125-36.59 36.055 0 27.304 27.49 37.968 50.94 37.968 24.85 0 49.89-12.07 50.04-40.254h-32.54c0.53 11.387-10.15 15.059-20.13 15.059-7 0-15.75-2.461-15.75-10.684 0-9.628 18.03-11.367 36.23-16.445 18.03-5.078 36.23-13.476 36.23-36.055 0-31.679-26.95-41.835-54.43-41.835-28.71 0-54.08 12.617-54.26 44.628h32.56"/><path d="m864.41 82.969c-1.738 12.598-11.543 19.258-25.195 19.258-20.996 0-29.063-18.555-29.063-37.11s8.067-37.109 29.063-37.109c15.215 0 23.984 8.75 25.195 23.106h32.559c-1.754-32.207-25.371-51.113-57.051-51.113-37.812 0-62.305 28.887-62.305 65.117 0 36.231 24.493 65.098 62.305 65.098 26.953 0 56.172-17.149 57.051-47.246h-32.559"/><path d="m960.68 28.008c20.996 0 29.043 18.555 29.043 37.109s-8.047 37.11-29.043 37.11c-21.016 0-29.063-18.555-29.063-37.11s8.047-37.109 29.063-37.109zm0 102.21c39.374 0 61.604-28.867 61.604-65.098 0-36.23-22.23-65.117-61.604-65.117-39.395 0-61.621 28.887-61.621 65.117 0 36.231 22.226 65.098 61.621 65.098"/><path d="m1026.3 127.6h47.97l21.52-83.321h0.36l21.52 83.321h47.95v-124.96h-30.63v94.863h-0.35l-26.25-94.863h-24.86l-26.25 94.863h-0.35v-94.863h-30.63v124.96"/><path d="m1210.2 69.492h21.87c10.16 0 17.5 4.1992 17.5 15.566 0 11.738-7.52 16.464-17.5 16.464h-21.87zm-32.56 58.106h59.33c23.29 0 45.16-10.684 45.16-40.254 0-30.977-17.67-43.066-45.16-43.066h-26.77v-41.641h-32.56v124.96"/><path d="m1287.9 127.6h99.59v-26.075h-67.03v-21.875h61.25v-25.215h-61.25v-23.789h68.79v-28.008h-101.35v124.96"/><path d="m1498.9 99.59h-37.28v-96.953h-32.56v96.953h-37.27v28.008h107.11v-28.008"/><path d="m1502.7 127.6h32.54v-124.96h-32.54v124.96"/><path d="m1646.4 99.59h-37.29v-96.953h-32.55v96.953h-37.27v28.008h107.11v-28.008"/><path d="m1650.2 127.6h32.54v-124.96h-32.54v124.96"/><path d="m1751.8 28.008c21 0 29.06 18.555 29.06 37.109s-8.06 37.11-29.06 37.11c-20.99 0-29.04-18.555-29.04-37.11s8.05-37.109 29.04-37.109zm0 102.21c39.38 0 61.6-28.867 61.6-65.098 0-36.23-22.22-65.117-61.6-65.117-39.37 0-61.6 28.887-61.6 65.117 0 36.231 22.23 65.098 61.6 65.098"/><path d="m1820.2 127.6h33.44l43.4-77.012h0.35v77.012h30.62v-124.96h-33.42l-43.41 77.871h-0.36v-77.871h-30.62v124.96"/><path d="m806.28 452.79h88.481l-8.332-34.074h-42.411l-4.191-17.902h44.238l-7.699-31.567h-43.668l-10.484-44.851h-45.707l29.773 128.39"/><path d="m906.8 452.79h45.707l-29.774-128.39h-45.71l29.777 128.39"/><path d="m998.22 391.57c14.681 0 24.951 8.668 24.951 20.985 0 6.547-4.82 9.816-14.26 9.816-2.72 0-4.19-0.191-7.13-0.769l-6.917-29.641c1.469-0.195 1.68-0.391 3.356-0.391zm-33.758 60.446 2.937 0.386c14.676 1.735 32.922 2.887 42.982 2.887 16.77 0 29.77-1.926 39.63-5.965 12.58-5.199 20.13-16.554 20.13-30.222 0-11.743-3.99-22.907-11.54-31.571-6.5-7.508-12.37-11.164-24.53-14.82l-2.93-0.965c1.26-0.961 1.68-1.348 2.3-1.926 3.57-4.043 14.26-24.832 23.28-45.425h-50.32c-6.502 18.285-8.388 23.097-16.986 43.886l-10.066-43.886h-44.45l29.563 127.62"/><path d="m1178.6 452.79h110.9l-7.74-37.168h-32.92l-21.81-91.226h-45.71l21.81 91.226h-35.68l11.15 37.168"/><path d="m1248.2 336.56c0.99 0 1.56 0.476 1.56 1.383 0 0.863-0.52 1.335-1.51 1.335-0.22 0-0.26 0-0.48-0.043v-2.628c0.17-0.047 0.26-0.047 0.43-0.047zm-4 5.347c0.56 0.043 0.64 0.082 1.76 0.172 1.12 0.086 1.6 0.129 2.07 0.129 3.67 0 5.47-1.422 5.47-4.137 0-1.636-0.68-2.628-2.15-3.191l-0.17-0.043c0.13-0.086 0.17-0.129 0.21-0.215 0.39-0.344 1.68-2.285 2.76-4.051h-4.18c-0.86 1.594-1.12 2.028-2.2 3.836v-3.836h-3.57zm4.31-15.472c5.43 0 9.78 4.351 9.78 9.738 0 5.43-4.35 9.785-9.78 9.785-5.39 0-9.74-4.355-9.74-9.742 0-5.473 4.31-9.781 9.74-9.781zm0 20.902c6.16 0 11.16-4.961 11.16-11.121 0-6.203-4.96-11.16-11.16-11.16-6.25 0-11.12 4.871-11.12 11.16 0 6.207 4.91 11.121 11.12 11.121"/><path d="m1061.2 327.66c12.85-3.816 26.9-5.957 40.03-5.957 17.82 0 31.45 4.039 43.19 12.512 13 9.238 21.39 23.48 21.39 36.379 0 8.664-3.77 16.555-10.48 22.14-5.24 4.231-10.7 7.508-21.81 12.704l-9.01 4.234c-2.94 1.539-4.41 3.078-4.41 4.812 0 4.622 5.87 8.083 13.84 8.083 5.96 0 13.06-1.731 26.64-6.172l9.37 34.757c-10.15 2.758-20.05 4.141-29.93 4.141-37.32 0-66.05-20.402-66.05-46.777 0-13.856 9.23-23.676 32.29-34.457 10.9-5 12.79-6.352 12.79-9.817 0-5.195-5.66-8.468-14.88-8.468-8.18 0-18.66 2.503-32.92 7.699l-0.02-4e-3 -10.03-35.809"/><path d="m113.06 150.33-5.208-27.207 51.829 22.238c-3.301 6.973-5.969 14.176-7.887 21.571l-38.734-16.602"/><path d="m113.06 150.33"/><path d="m539.55 41.484-42.61 40.91c16.731 11.465 30.911 24.91 41.829 39.872 0.156 0.214 0.293 0.437 0.449 0.656l103.61 107.6 3.086 3.308 13.535 14.082-126.56 121.5-28.457-29.605-31.36-32.688-21.375-22.265-40.293-41.977 0.02-0.019-3.488-3.633 11.75-11.25 54.531-53.172c-11.934-11.289-27.102-20.977-44.207-28.098-0.024-8e-3 -0.032-8e-3 -0.032-8e-3l-35.996 34.551-35.332 33.934-24.043 22.785 57.129 59.504 28.692 29.89 31.179 32.465 77.922 81.149 205.11-196.32zm26.426 172.45c0.925 6.082 1.445 12.078 1.445 17.871 0 33.996-15.41 69.851-41.289 96.601l6.758 7.012 104.82-100.64-86.797-90.382c9.219 21.418 15.184 47.863 15.184 66.828 0 0.8-0.055 1.738-0.125 2.715zm-87.149-34.543-49.473 48.203 41.895 43.652c14.922-12.43 25.938-27.285 31.777-43.602-0.359-2.675-0.808-5.343-1.464-8.039-3.536-14.445-11.204-27.949-22.735-40.214zm-8.223-72.04c-7.636-3.898-15.761-7.4136-24.121-10.5-28.703-10.606-59.668-15.965-92.011-15.965-45.856 0-89.25 10.887-125.5 31.531-20.043 11.398-36.883 25.226-50.028 41.105-5.035 6.075-9.472 12.391-13.222 18.809-7.723 13.191-12.824 27.078-15.156 41.277-1.043 6.328-1.555 12.278-1.555 18.196 0 21.945 6.301 43.093 18.746 62.898l33.348-33.754c-2.27-7.746-3.411-15.621-3.411-23.433 0-6.504 0.805-13.114 2.407-19.696 2.265-9.238 6.172-18.301 11.597-26.926 4.297-6.835 9.539-13.328 15.555-19.355 16.551-16.504 39-29.52 64.938-37.605 19.691-6.125 40.644-9.239 62.285-9.239 17.468 0 34.738 2.078 51.328 6.18 9.433 2.363 18.574 5.363 27.09 8.887 19.621 8.175 36.894 19.562 49.961 32.937 13.261 13.606 22.011 28.801 25.996 45.141 1.601 6.609 2.422 13.222 2.422 19.676 0 18.57-7.004 39.597-18.411 55.675l28.391 29.547c24.277-25.316 38.672-59.035 38.672-90.933 0-5.879-0.527-11.993-1.543-18.196-4.387-26.758-18.594-52.265-41.074-73.73-13.184-12.586-28.887-23.524-46.7-32.528zm-327.43 105.03c0.031-0.235 0.113-0.457 0.148-0.703-0.086-0.957-0.148-1.844-0.148-2.547 0-10.02 6.14-33.809 8.621-43.313 0-7e-3 8e-3 -0.019 8e-3 -0.031l-32.586-13.934 31.078 161.95 12.758-12.617c-14.254-21.727-21.535-45.051-21.535-69.375 0-6.321 0.535-12.688 1.656-19.426zm76.043-19.121c-0.371 0.547-0.821 1.066-1.176 1.621-4.996 7.949-8.59 16.277-10.656 24.726-0.219 0.899-0.313 1.797-0.508 2.696 2.426 8.508 6.269 16.672 11.301 24.347l39.601-39.199zm150.29-22.52 34.043-32.676c-15.86-3.894-32.375-5.878-49.082-5.878-20.879 0-41.094 3-60.043 8.917-2.535 0.782-4.996 1.661-7.461 2.54l75.441 33.925zm-332.56-134.87 73.125 407.39 137.11-129.94 24.996-23.687 59.324-56.555v-25.812l25.223-24.239-78.797-35.847c-17.789 7.527-33.289 17.625-45.379 29.707-0.266 0.254-0.496 0.566-0.774 0.847l60.457 28.235-142.18 132.39-2.809 2.825-3.402-18.344-33.567-175.01-5.191-27.176 8.898 3.797 0.028 0.227 45.679 19.566c7.137-15.066 17.371-29.043 30.118-41.543zm354.45 270.25-61.004-63.527-53.594 50.789c23.016 9.996 50.043 15.805 78.996 15.805 12.262 0 24.168-1.094 35.602-3.067zm-43.954 82.785c33.106 0 77.356-8.492 105.43-18.738l-1.262-1.316-31.179-32.465-0.11-0.117c-19.617 6.562-41.453 10.25-64.527 10.25-40.281 0-76.848-11.188-104.05-29.403l-0.402 0.387-32.707 30.992-2.91 2.77c35.742 21.582 82.125 37.64 131.71 37.64zm391.88-139.44v0.074l-0.039-0.035-209.75 200.5-70.558-73.492c-29.16 11.285-75 20.344-109.82 20.344-50.703 0-102.95-17.301-139.44-39.891l-98.383 93.234 8e-3 0.106-0.105-8e-3 -0.067 0.055-0.019-0.067-35.184-3.683-75.957-415.88 35.352-3.6914 0.0351 0.1055 160.26 70.129c0.258-0.2344 0.5-0.4883 0.754-0.7148 38.137-33.633 95.375-55.059 159.39-55.059 44.422 0 85.535 10.332 119.32 27.883l64.434-61.867 199.76 208.07v33.84l0.039 0.032-0.039 0.019"/></g></g></svg>
