<?xml version="1.0" encoding="UTF-8"?>
<!-- Created with Inkscape (http://www.inkscape.org/) -->
<svg width="709.6" height="608.19" version="1.1" viewBox="0 0 709.6 608.19" xmlns="http://www.w3.org/2000/svg">
 <g transform="matrix(1.3333 0 0 -1.3333 0 608.19)">
  <g transform="scale(.1)" fill="#fff">
   <path d="m1107.8 2335.6h150.19v-447.34h268.87v-129.19h-419.06v576.53"/>
   <path d="m1552.7 2335.6h459.45v-120.34h-309.26v-100.96h282.6v-116.23h-282.6v-109.81h317.32v-129.19h-467.51v576.53"/>
   <path d="m2223.5 1973.8h130.81l-63.79 201.85h-1.58zm-9.68 361.75h152.64l215.53-576.56h-156.61l-35.55 103.36h-201.02l-36.38-103.36h-154.24l215.63 576.56"/>
   <path d="m3109.2 1759h-96.91l-8.89 62.97c-39.56-55.7-107.4-75.08-160.69-75.08-174.39 0-287.43 133.24-287.43 300.39 0 167.12 113.04 300.36 287.43 300.36 119.48 0 247.1-63.79 260.83-208.32h-150.2c-4.81 49.24-53.29 79.13-113.83 79.13-96.9 0-134.06-85.62-134.06-171.17 0-85.62 37.16-171.23 134.06-171.23 74.27 0 124.33 34.75 132.4 87.26h-104.95v111.39h242.24v-315.7"/>
   <path d="m3655 1997.2c0-167.15-76.7-250.29-251.12-250.29-174.39 0-251.12 83.14-251.12 250.29v338.35h150.23v-347.24c0-74.28 27.42-112.24 100.89-112.24s100.92 37.96 100.92 112.24v347.24h150.2v-338.35"/>
   <path d="m3706.5 2335.6h459.47v-120.34h-309.27v-100.96h282.61v-116.23h-282.61v-109.81h317.31v-129.19h-467.51v576.53"/>
   <path d="m1550.1 3073.6h150.17v-447.34h268.86v-129.17h-419.03v576.51"/>
   <path d="m1994.9 3073.6h459.45v-120.32h-309.25v-100.94h282.59v-116.27h-282.59v-109.81h317.35v-129.17h-467.55v576.51"/>
   <path d="m3031.6 2497.1h-96.9l-8.86 62.97c-39.59-55.72-107.4-75.11-160.7-75.11-174.41 0-287.45 133.25-287.45 300.42 0 167.12 113.04 300.37 287.45 300.37 119.5 0 247.05-63.82 260.81-208.36h-150.21c-4.83 49.24-53.25 79.13-113.85 79.13-96.87 0-134.04-85.58-134.04-171.14 0-85.64 37.17-171.23 134.04-171.23 74.29 0 124.36 34.73 132.45 87.24h-104.97v111.39h242.23v-315.68"/>
   <path d="m3341.6 2614.2c96.9 0 134.03 85.59 134.03 171.2 0 85.58-37.13 171.17-134.03 171.17-96.87 0-134.04-85.59-134.04-171.17 0-85.61 37.17-171.2 134.04-171.2m0 471.59c181.67 0 284.26-133.24 284.26-300.39 0-167.14-102.59-300.4-284.26-300.4-181.7 0-284.23 133.26-284.23 300.4 0 167.15 102.53 300.39 284.23 300.39"/>
   <path d="m3672 3015.7c5.16 0 8.1 2.5 8.1 7.18 0 4.52-2.73 6.99-7.89 6.99-1.13 0-1.35 0-2.5-0.23v-13.69c0.92-0.25 1.37-0.25 2.29-0.25m-20.94 27.9c2.97 0.18 3.38 0.41 9.23 0.88 5.85 0.45 8.32 0.66 10.79 0.66 19.13 0 28.59-7.39 28.59-21.56 0-8.58-3.61-13.7-11.26-16.64l-0.91-0.23c0.69-0.47 0.91-0.66 1.13-1.1 2.02-1.84 8.76-11.92 14.4-21.16h-21.83c-4.49 8.35-5.85 10.59-11.49 20.02v-20.02h-18.65zm22.52-80.72c28.33 0 51.02 22.71 51.02 50.8 0 28.34-22.69 51.04-51.02 51.04-28.12 0-50.79-22.7-50.79-50.82 0-28.53 22.45-51.02 50.79-51.02m0 109.02c32.13 0 58.2-25.84 58.2-58 0-32.36-25.88-58.19-58.2-58.19-32.58 0-58.01 25.39-58.01 58.19 0 32.35 25.62 58 58.01 58"/>
   <path d="m1459.1 3892.2h461.19l-43.43-177.59h-221.04l-21.85-93.3h230.59l-40.17-164.52h-227.59l-54.62-233.79h-238.28l155.2 669.2"/>
   <path d="m1983 3892.2h238.24l-155.16-669.2h-238.28l155.2 669.2"/>
   <path d="m2459.5 3573.1c76.5 0 130.05 45.17 130.05 109.36 0 34.13-25.14 51.18-74.32 51.18-14.2 0-21.86-1.01-37.14-4.02l-36.08-154.5c7.66-1.01 8.76-2.02 17.49-2.02m-175.94 315.04 15.3 2.02c76.48 9.01 171.58 15.03 224.02 15.03 87.45 0 155.19-10.03 206.56-31.1 65.56-27.07 104.9-86.27 104.9-157.5 0-61.2-20.77-119.39-60.12-164.56-33.87-39.12-64.46-58.19-127.87-77.22l-15.31-5.03c6.58-5.03 8.77-7.02 12.05-10.03 18.6-21.1 74.33-129.45 121.3-236.8h-262.29c-33.84 95.33-43.71 120.41-88.49 228.76l-52.44-228.76h-231.7l154.09 665.19"/>
   <path d="m3399.9 3892.2h578.05l-40.36-193.72h-171.58l-113.67-475.48h-238.22l113.64 475.48h-185.94l58.08 193.72"/>
   <path d="m3762.3 3286.4c5.16 0 8.06 2.46 8.06 7.21 0 4.49-2.69 6.96-7.84 6.96-1.14 0-1.36 0-2.5-0.22v-13.73c0.92-0.22 1.36-0.22 2.28-0.22m-20.91 27.86c2.91 0.23 3.35 0.44 9.2 0.89 5.85 0.44 8.32 0.69 10.79 0.69 19.11 0 28.56-7.43 28.56-21.57 0-8.53-3.6-13.69-11.26-16.63l-0.88-0.22c0.67-0.47 0.88-0.67 1.1-1.11 2.03-1.8 8.76-11.92 14.36-21.13h-21.76c-4.49 8.32-5.85 10.57-11.48 19.99v-19.99h-18.63zm22.46-80.64c28.34 0 51.01 22.7 51.01 50.76 0 28.3-22.67 50.98-51.01 50.98-28.09 0-50.73-22.68-50.73-50.77 0-28.52 22.43-50.97 50.73-50.97m0 108.95c32.11 0 58.19-25.84 58.19-57.98 0-32.32-25.87-58.16-58.19-58.16-32.57 0-57.94 25.4-57.94 58.16 0 32.36 25.58 57.98 57.94 57.98"/>
   <path d="m2787.8 3240c66.99-19.89 140.23-31.05 208.64-31.05 92.89 0 163.93 21.06 225.12 65.21 67.75 48.17 111.49 122.4 111.49 189.6 0 45.17-19.67 86.32-54.65 115.41-27.32 22.04-55.73 39.13-113.67 66.2l-46.96 22.07c-15.31 8.04-22.96 16.07-22.96 25.08 0 24.1 30.61 42.13 72.11 42.13 31.08 0 68.12-9.01 138.87-32.17l48.83 181.17c-52.91 14.36-104.46 21.57-155.99 21.57-194.53 0-344.25-106.33-344.25-243.78 0-72.24 48.07-123.41 168.28-179.61 56.84-26.07 66.67-33.12 66.67-51.14 0-27.11-29.5-44.15-77.58-44.15-42.63 0-97.25 13.02-171.58 40.12l-0.09-0.03-52.28-186.63"/>
   <path d="m4186.2 1093c14.43 0.8 28.87 1.8 43.3 3.01 6.43 0.39 12.82 1 19.25 1.8 6.42 0.81 13.03 0.81 19.85 0 8.82-1.19 15.65-4.81 20.46-10.82 4.81-6.02 7.73-12.74 8.73-20.15 0.98-7.42-0.32-14.75-3.92-21.96-3.6-7.22-9.42-12.43-17.46-15.63-6.8-2.81-16.02-4.93-27.66-6.33-11.64-1.41-23.86-2.4-36.68-3-12.85-0.6-25.47-0.9-37.89-0.9-12.44 0-22.88 0.2-31.29 0.6v-73.988c22.04-2.801 44.32-3.211 66.76-1.192 22.48 2 44.52 5.801 66.19 11.422h4.2c7.2-0.41 13.51-2.301 18.93-5.723 5.41-3.398 9.83-7.507 13.25-12.308 3.4-4.821 5.4-10.34 6-16.563 0.61-6.207-0.69-12.539-3.9-18.937-1.21-2.813-3.71-6.121-7.52-9.93-3.82-3.801-7.31-6.109-10.54-6.922-25.65-7.609-52-12.328-79.09-14.129-27.05-1.8-53.82-1.3-80.31 1.5-7.6 0.821-15.92 1.621-24.95 2.41-9.01 0.821-16.94 3.411-23.74 7.821-12.45 8.027-18.67 19.437-18.67 34.289v256.24c-4.4 3.19-8.01 7.21-10.8 12.02-2.83 4.81-4.53 9.93-5.14 15.33-0.6 5.42 0.09 10.64 2.11 15.65 2.01 5.01 5.41 9.32 10.23 12.93 8 6.4 17.23 10.73 27.66 12.92 10.43 2.21 20.66 4.12 30.69 5.73 20.83 3.2 41.69 4.81 62.54 4.81 20.87 0 42.1 0.19 63.77 0.61 6.4 0 13.83 0.49 22.25 1.49 8.41 1 15.84 0.3 22.27-2.1 7.6-2.81 13.63-7.22 18.03-13.24 4.42-6.01 7.01-12.43 7.82-19.25 0.81-6.81-0.49-13.44-3.89-19.85-3.43-6.41-9.34-11.43-17.75-15.03-10.03-4.01-20.75-5.82-32.18-5.41-11.45 0.39-22.37 0.6-32.8 0.6-15.24 0-30.48-0.21-45.7-0.6-15.23-0.41-30.48-1.61-45.72-3.61v-83.61c14.43-0.81 28.87-0.81 43.31 0zm-219.5-47.22c-2.63-6.62-8.13-12.52-16.58-17.74-0.81-1.2-0.97-6.12-0.57-14.74 0.37-8.63 0.69-18.559 0.9-29.758 0.19-11.242-0.12-22.571-0.9-33.992-0.81-11.438-2.62-20.36-5.42-26.758-2.82-5.223-6.22-9.852-10.23-13.84-4-4.012-8.24-7.82-12.64-11.442-14.85-12.429-30.67-21.949-47.52-28.558-16.83-6.621-34.08-10.543-51.72-11.731-17.63-1.211-35.38 0.61-53.21 5.411-17.87 4.82-35.01 12.437-51.44 22.847-20.86 13.242-38.41 30.281-52.65 51.141-14.22 20.84-24.54 43.301-30.97 67.36-4 15.24-6.31 31.18-6.91 47.81-0.61 16.64 0.69 33.1 3.92 49.34 3.2 16.23 8.41 31.76 15.64 46.6 7.21 14.84 16.22 28.28 27.06 40.31 12.82 14.03 27.57 25.66 44.2 34.87 16.65 9.23 33.76 17.25 51.43 24.07 13.63 5.61 27.67 9.82 42.1 12.63 14.43 2.8 29.07 3.8 43.91 3.01 11.24-0.8 23.36-2.7 36.39-5.71 13.02-3.02 24.14-8.33 33.39-15.94 4.41-3.61 8.14-8.03 11.12-13.24 3-5.22 4.82-10.52 5.42-15.93 0.61-5.42-0.11-10.63-2.1-15.65-2.02-5.01-5.62-9.53-10.84-13.53-5.21-4.01-10.74-6.31-16.53-6.91-5.82-0.61-11.73-0.22-17.75 1.19s-12.01 3.32-18.04 5.72c-6.02 2.41-11.64 4.41-16.86 6.01-4.4 1.6-9.1 2.3-14.12 2.12-5.01-0.22-9.94-0.71-14.74-1.52-14.04-4-28.19-8.92-42.39-14.73-14.26-5.8-27.37-12.92-39.42-21.35-12.01-8.42-22.35-18.45-30.97-30.07-8.62-11.64-14.12-25.67-16.54-42.11-3.2-20.45-2.19-40.8 3.03-61.05 5.18-20.249 14.8-37.999 28.87-53.23 9.21-10.031 19.94-18.148 32.15-24.351 12.25-6.231 24.98-9.93 38.21-11.137 13.23-1.203 26.25 0.199 39.1 4.207 12.82 4 24.26 11.031 34.29 21.062v64.959c-8.04-0.41-16.34-1.11-24.98-2.11-8.62-1.01-17.23-1.61-25.85-1.82-8.65-0.19-17.06 0.41-25.27 1.82-8.21 1.4-15.94 4.11-23.16 8.12-6.81 4-11.54 9.31-14.12 15.94-2.63 6.61-3.31 13.23-2.1 19.86 1.18 6.61 4 12.71 8.41 18.34 4.41 5.6 10.42 9.42 18.03 11.42 3.61 0.8 8.13 1.29 13.55 1.52 5.42 0.18 10.83 0.28 16.25 0.28 5.39 0 10.31-0.1 14.72-0.28 4.41-0.23 7.81-0.31 10.23-0.31 15.64 0 31.17 0.19 46.62 0.59 15.41 0.4 31.17 0.6 47.2 0.6 8.03-2.4 14.83-6.3 20.46-11.72 5.61-5.42 9.33-11.43 11.12-18.04 1.81-6.62 1.41-13.24-1.18-19.86zm-432.15 19.86c-1.38-57.15-3.69-114.39-6.92-171.73 0-9.231-2.91-16.438-8.7-21.649-5.82-5.218-12.44-8.519-19.85-9.929-7.43-1.403-14.95-0.61-22.56 2.41-7.64 3.008-13.23 8.109-16.85 15.32-0.41 0.418-0.58 0.828-0.58 1.207v-1.207c-26.08 42.91-53.54 84.11-82.41 123.62-28.87 39.49-58.95 78.69-90.24 117.58v-135.92-46.321c0-12.429-0.2-22.558-0.58-30.367-0.4-7.832-0.92-13.949-1.53-18.351-0.6-4.418-1.5-8.231-2.71-11.43-3.59-9.621-9.1-16.031-16.53-19.25-7.41-3.192-14.93-4-22.53-2.399-7.64 1.61-14.27 5.618-19.86 12.028-5.62 6.429-8.44 14.441-8.44 24.051v26.468 40.903 49.029 51.42c0 16.83-0.09 32.57-0.29 47.22-0.2 14.62-0.29 26.96-0.29 36.99 0 13.62-0.22 27.16-0.6 40.6-0.41 13.43-0.41 26.96 0 40.61 0 6.81 1.7 12.63 5.1 17.44s7.72 8.51 12.94 11.12c5.21 2.61 10.83 4.11 16.82 4.51 6.02 0.39 11.84-0.4 17.46-2.4 4.82-1.62 9.72-4.92 14.72-9.93 5.02-5.01 9.95-10.43 14.76-16.24 4.81-5.82 9.31-11.64 13.51-17.44 4.21-5.82 7.73-10.53 10.55-14.13 10.4-12.85 22.44-27.58 36.07-44.22s26.28-32.38 37.89-47.21c11.64-15.24 22.97-30.49 34-45.71 11.01-15.25 21.76-30.49 32.19-45.71 1.18 36.47 1.99 72.78 2.39 108.86 0.4 36.1 0.6 72.37 0.6 108.88l0.61 3.6c2.39 8.01 6.31 14.63 11.73 19.85 5.41 5.2 11.32 8.62 17.75 10.23 6.39 1.58 12.93 1.19 19.53-1.21 6.63-2.4 12.33-7.22 17.15-14.43 1.61-2.03 3.11-4.43 4.52-7.22 1.38-2.81 2.1-5.42 2.1-7.82 0.78-57.35 0.49-114.58-0.92-171.72zm-547.92 27.36c14.44 0.8 28.88 1.8 43.31 3.01 6.43 0.39 12.82 1 19.25 1.8 6.42 0.81 13.02 0.81 19.85 0 8.82-1.19 15.65-4.81 20.46-10.82 4.81-6.02 7.72-12.74 8.73-20.15 0.98-7.42-0.32-14.75-3.92-21.96-3.6-7.22-9.42-12.43-17.46-15.63-6.8-2.81-16.02-4.93-27.66-6.33-11.64-1.41-23.86-2.4-36.68-3-12.85-0.6-25.47-0.9-37.89-0.9-12.45 0-22.88 0.2-31.29 0.6v-73.988c22.04-2.801 44.31-3.211 66.76-1.192 22.47 2 44.51 5.801 66.18 11.422h4.21c7.2-0.41 13.51-2.301 18.93-5.723 5.42-3.398 9.83-7.507 13.25-12.308 3.4-4.821 5.39-10.34 6-16.563 0.6-6.207-0.69-12.539-3.89-18.937-1.21-2.813-3.72-6.121-7.52-9.93-3.83-3.801-7.32-6.109-10.55-6.922-25.64-7.609-52-12.328-79.09-14.129-27.06-1.8-53.82-1.3-80.3 1.5-7.61 0.821-15.94 1.621-24.96 2.41-9.02 0.821-16.94 3.411-23.74 7.821-12.44 8.027-18.67 19.437-18.67 34.289v256.24c-4.41 3.19-8.01 7.21-10.81 12.02-2.82 4.81-4.52 9.93-5.12 15.33-0.61 5.42 0.08 10.64 2.1 15.65s5.42 9.32 10.23 12.93c8.01 6.4 17.23 10.73 27.66 12.92 10.43 2.21 20.66 4.12 30.69 5.73 20.83 3.2 41.69 4.81 62.55 4.81s42.09 0.19 63.76 0.61c6.4 0 13.83 0.49 22.25 1.49 8.41 1 15.84 0.3 22.27-2.1 7.61-2.81 13.63-7.22 18.04-13.24 4.41-6.01 7-12.43 7.81-19.25 0.8-6.81-0.49-13.44-3.9-19.85-3.42-6.41-9.33-11.43-17.75-15.03-10.02-4.01-20.74-5.82-32.18-5.41-11.44 0.39-22.36 0.6-32.79 0.6-15.24 0-30.48-0.21-45.69-0.6-15.25-0.41-30.49-1.61-45.73-3.61v-83.61c14.43-0.81 28.87-0.81 43.3 0zm-220.71-210.82c-5.01-6.218-12.73-10.918-23.13-14.136-4.04-1.203-9.63-1.891-16.86-2.114-7.2-0.179-17.23-0.296-30.08-0.296h-48.72c-19.66 0-43.89-0.192-72.76-0.59-7.23-0.41-14.66-0.602-22.27-0.602s-14.24 2.602-19.86 7.82c-4.81 4-8.32 10.122-10.51 18.34-2.22 8.211-3.6 16.84-4.21 25.86-0.6 9.031-0.8 18.05-0.6 27.07 0.2 9.012 0.29 16.539 0.29 22.559 0 12.031 0.11 25.859 0.31 41.501 0.2 15.64 0.41 31.57 0.61 47.82 0.2 16.23 0.29 32.17 0.29 47.82v41.5c0 21.25 0.2 38.4 0.6 51.42 0.4 13.04 1.3 23.25 2.71 30.69 1.41 7.4 3.69 12.82 6.92 16.23 3.19 3.4 7.6 6.31 13.22 8.72 4.81 2 10.14 2.71 15.94 2.1 5.82-0.59 11.23-2.21 16.25-4.81 5.01-2.61 9.21-6.21 12.61-10.81 3.44-4.62 5.13-9.73 5.13-15.36 0.81-48.11 0.81-95.83 0-143.14-0.8-47.32-1.21-94.65-1.21-141.94 25.27 0 50.43 0.281 75.49 0.879 25.07 0.609 50.43 1.3 76.1 2.109l3.6-1.199c9.22-4.418 16.25-10.031 21.06-16.828 4.82-6.84 7.12-13.75 6.92-20.762-0.23-7.031-2.82-13.641-7.84-19.852zm-343.13 0c-5.02-6.218-12.74-10.918-23.14-14.136-4.04-1.203-9.63-1.891-16.86-2.114-7.2-0.179-17.23-0.296-30.08-0.296h-48.72c-19.66 0-43.88-0.192-72.76-0.59-7.23-0.41-14.66-0.602-22.27-0.602s-14.24 2.602-19.86 7.82c-4.81 4-8.32 10.122-10.51 18.34-2.22 8.211-3.6 16.84-4.21 25.86-0.6 9.031-0.8 18.05-0.6 27.07 0.2 9.012 0.29 16.539 0.29 22.559 0 12.031 0.11 25.859 0.31 41.501 0.2 15.64 0.41 31.57 0.61 47.82 0.2 16.23 0.29 32.17 0.29 47.82v41.5c0 21.25 0.2 38.4 0.6 51.42 0.41 13.04 1.3 23.25 2.71 30.69 1.41 7.4 3.69 12.82 6.92 16.23 3.19 3.4 7.6 6.31 13.22 8.72 4.81 2 10.14 2.71 15.94 2.1 5.82-0.59 11.23-2.21 16.25-4.81 5.01-2.61 9.21-6.21 12.61-10.81 3.44-4.62 5.14-9.73 5.14-15.36 0.8-48.11 0.8-95.83 0-143.14-0.81-47.32-1.22-94.65-1.22-141.94 25.27 0 50.43 0.281 75.5 0.879 25.06 0.609 50.42 1.3 76.09 2.109l3.6-1.199c9.22-4.418 16.25-10.031 21.06-16.828 4.82-6.84 7.12-13.75 6.92-20.762-0.23-7.031-2.82-13.641-7.83-19.852zm-329.86 132.63c-2.19-6.02-5.82-11.23-10.84-15.651-5.01-4.418-11.12-7.41-18.32-9.008 4-14.051 7.52-28.383 10.52-43.012 2.99-14.648 5.5-29.379 7.51-44.211v-4.207c-1.21-8.82-4.2-16.339-9.01-22.55-4.81-6.219-10.35-10.539-16.54-12.942-6.23-2.41-12.85-2.699-19.86-0.898-7.03 1.801-13.54 6.527-19.56 14.14-5.22 6.399-8.1 13.52-8.7 21.348-0.61 7.82-1.73 15.52-3.31 23.16-4.01 22.039-9.83 44.711-17.43 67.961-24.87-0.398-49.54-0.601-74-0.601s-48.92-0.207-73.39-0.598c-3.6-10.43-6.71-21.051-9.3-31.879-2.63-10.82-5.13-21.453-7.52-31.883-2.02-8.027-3.84-16.34-5.42-24.949-1.61-8.641-5.22-16.16-10.83-22.559-6.83-8.019-14.15-12.543-21.96-13.543s-14.84 0.301-21.06 3.911c-6.2 3.601-11.21 9.121-15.02 16.543-3.83 7.418-5.12 15.949-3.91 25.57 1.21 12.418 3.6 24.656 7.2 36.68 3.63 12.027 7.03 24.058 10.23 36.089 18.07 68.969 41.29 135.74 69.79 200.3 2.39 5.62 4.89 11.02 7.51 16.24 2.6 5.21 5.11 10.43 7.52 15.64 2.8 5.61 5.6 11.62 8.42 18.05 2.8 6.39 6.11 12.32 9.91 17.73 3.8 5.42 8.33 10.03 13.54 13.84 5.22 3.82 11.65 5.71 19.25 5.71 10.03 0 18.44-3.21 25.27-9.62 27.26-27.27 49.7-58.04 67.36-92.33 17.64-34.28 33.49-69.27 47.52-104.95 8.41 0.39 16.62 0.39 24.66 0 8.01-0.4 15.25-4.03 21.64-10.84 5.62-5.62 8.93-11.62 9.94-18.04 0.98-6.42 0.4-12.63-1.81-18.64zm-420.42 10.52c-4.81-7.02-11.84-11.53-21.06-13.53v-104.67c0-10.02-2.51-18.934-7.52-26.762-5.02-7.809-11.12-13.328-18.33-16.539-7.23-3.199-14.84-3.903-22.88-2.11-8.01 1.809-15.24 7.137-21.63 15.938-2.83 4-4.73 8.633-5.71 13.851-1.01 5.192-1.52 10.008-1.52 14.43v104.06h-140.13v-102.26c0-4.422-0.4-8.93-1.21-13.531-0.8-4.621-2.21-8.731-4.2-12.328-5.22-9.622-11.85-15.832-19.86-18.653-8.03-2.801-15.84-2.699-23.45 0.301-7.63 3.012-14.15 8.219-19.56 15.641-5.42 7.429-8.13 16.55-8.13 27.379v310.95c0 10.43 3.11 19.45 9.34 27.07 6.22 7.62 13.31 12.93 21.35 15.95 8.01 3 16.13 3.19 24.35 0.59 8.23-2.61 14.34-8.92 18.35-18.95 1.21-3.21 2.02-6.1 2.42-8.71 0.37-2.61 0.6-5.52 0.6-8.73v-135.93h140.13v128.71c0 8.02 1.81 15.65 5.41 22.87 4.41 8.81 10.75 15.03 18.96 18.64s16.25 4.61 24.06 3.01c7.81-1.62 14.64-5.52 20.46-11.73 5.79-6.22 8.7-14.74 8.7-25.57v-138.33c9.62-2.81 16.85-7.93 21.67-15.35 4.81-7.41 7.11-15.14 6.91-23.15-0.2-8.02-2.71-15.54-7.52-22.56zm-397.54 150.98c-0.6-5.42-2.22-10.33-4.81-14.73-2.62-4.43-6.11-8.13-10.52-11.15-4.43-2.98-9.42-4.91-15.04-5.7-9.22-1.21-16.34-0.21-21.35 3s-9.02 7.22-12.04 12.03c-3 4.81-5.91 9.52-8.7 14.15-2.83 4.59-6.83 7.91-12.05 9.91-3.2 0-5.62-0.2-7.2-0.59-13.66-3.62-27.37-8.53-41.21-14.74-13.85-6.22-26.68-13.74-38.49-22.56-11.84-8.82-22.19-19.05-30.97-30.67-8.85-11.64-15.27-24.67-19.25-39.1-4.81-17.25-6.63-34.69-5.42-52.33 1.18-17.64 5.99-34.288 14.44-49.921 4.81-9.231 11.21-17.25 19.24-24.051 8.02-6.84 16.83-11.949 26.45-15.348 9.63-3.41 19.45-4.609 29.48-3.621 10.03 1.012 19.65 4.52 28.87 10.539 8.01 5.602 15.24 12.532 21.67 20.743 6.4 8.218 12.22 16.55 17.43 24.968 6.4 6.411 13.75 10.129 21.96 11.121 8.21 1.008 15.73-0.101 22.56-3.3 6.8-3.211 12.1-8.328 15.94-15.348 3.8-7.012 4.69-15.32 2.7-24.953-2.42-9.617-7.03-18.551-13.83-26.77-6.83-8.218-13.66-15.738-20.46-22.55-15.64-16.457-32.99-28.571-52.03-36.387-19.05-7.82-38.29-11.531-57.75-11.121-19.45 0.398-38.49 5.008-57.13 13.82-18.64 8.828-35.39 22.051-50.23 39.707-8.81 10.41-16.25 21.442-22.237 33.082-6.024 11.621-10.633 23.84-13.832 36.692-4.809 18.839-7.032 38.488-6.625 58.938 0.402 20.45 3.601 40.3 9.621 59.54 6.023 19.25 14.523 37.39 25.553 54.45 11.04 17.04 24.56 31.57 40.61 43.6 11.64 8.82 23.36 16.45 35.18 22.85 11.84 6.42 24.37 12.43 37.6 18.06 7.6 3.19 15.44 6.31 23.45 9.31 8.01 3.01 16.25 5.31 24.66 6.92 8.42 1.6 16.86 2.21 25.27 1.81 8.42-0.41 16.63-2.21 24.67-5.41 5.59-2.41 11.21-5.72 16.83-9.93 5.62-4.22 10.83-9.03 15.64-14.43 4.82-5.42 9.02-11.14 12.62-17.15 3.63-6.02 6.22-11.84 7.84-17.44 1.18-5.22 1.5-10.54 0.89-15.94zm3294.5 301.41h-3816.9c-75.199 0-136.14-60.97-136.14-136.16v-536.17c0-75.199 60.945-136.16 136.14-136.16h3816.9c75.21 0 136.16 60.961 136.16 136.16v536.17c0 75.19-60.95 136.16-136.16 136.16"/>
   <path d="m1913.1 1061.7c-14.26 0-30.8-0.2-49.64-0.6 6.02 18.04 12.53 35.8 19.56 53.23 7 17.44 14.52 34.98 22.56 52.63 10.81-16.04 20.55-32.98 29.16-50.81 8.62-17.86 16.74-35.8 24.35-53.84-16.43-0.4-31.78-0.61-45.99-0.61"/>
  </g>
 </g>
</svg>
