<?xml version="1.0" encoding="UTF-8"?>
<!-- Created with Inkscape (http://www.inkscape.org/) -->
<svg width="703.65" height="608.48" version="1.1" viewBox="0 0 703.65 608.48" xmlns="http://www.w3.org/2000/svg">
 <g transform="matrix(1.3333 0 0 -1.3333 0 608.48)">
  <g transform="scale(.1)" fill="#fff">
   <path d="m1109.4 2334h149.58v-445.48h267.75v-128.66h-417.33v574.14"/>
   <path d="m1552.4 2334h457.54v-119.84h-307.97v-100.54h281.42v-115.74h-281.42v-109.36h316v-128.66h-465.57v574.14"/>
   <path d="m2220.5 1973.8h130.26l-63.52 201.01h-1.57zm-9.64 360.25h152l214.64-574.17h-155.96l-35.4 102.93h-200.19l-36.22-102.93h-153.61l214.74 574.17"/>
   <path d="m3102.5 1759.9h-96.5l-8.85 62.71c-39.4-55.46-106.96-74.77-160.04-74.77-173.66 0-286.23 132.69-286.23 299.15 0 166.42 112.57 299.12 286.23 299.12 119 0 246.09-63.53 259.76-207.47h-149.58c-4.79 49.04-53.07 78.81-113.35 78.81-96.51 0-133.52-85.26-133.52-170.46 0-85.26 37.01-170.52 133.52-170.52 73.94 0 123.81 34.62 131.83 86.9h-104.5v110.93h241.23v-314.4"/>
   <path d="m3646 1997.1c0-166.46-76.38-249.27-250.08-249.27-173.67 0-250.08 82.81-250.08 249.27v336.94h149.6v-345.8c0-73.98 27.32-111.77 100.48-111.77s100.5 37.79 100.5 111.77v345.8h149.58v-336.94"/>
   <path d="m3697.3 2334h457.58v-119.84h-308v-100.54h281.44v-115.74h-281.44v-109.36h315.99v-128.66h-465.57v574.14"/>
   <path d="m1549.9 3069h149.55v-445.48h267.74v-128.63h-417.29v574.11"/>
   <path d="m1992.8 3069h457.54v-119.81h-307.97v-100.54h281.42v-115.78h-281.42v-109.35h316.04v-128.63h-465.61v574.11"/>
   <path d="m3025.2 2494.9h-96.51l-8.81 62.71c-39.44-55.5-106.97-74.8-160.03-74.8-173.71 0-286.27 132.69-286.27 299.18 0 166.42 112.56 299.11 286.27 299.11 118.99 0 246.01-63.56 259.71-207.49h-149.57c-4.82 49.04-53.04 78.8-113.39 78.8-96.47 0-133.48-85.23-133.48-170.42 0-85.3 37.01-170.52 133.48-170.52 73.99 0 123.84 34.58 131.91 86.87h-104.54v110.92h241.23v-314.36"/>
   <path d="m3333.9 2611.5c96.5 0 133.48 85.22 133.48 170.48 0 85.23-36.98 170.46-133.48 170.46-96.48 0-133.49-85.23-133.49-170.46 0-85.26 37.01-170.48 133.49-170.48m0 469.63c180.91 0 283.09-132.69 283.09-299.15s-102.18-299.15-283.09-299.15c-180.95 0-283.06 132.69-283.06 299.15s102.11 299.15 283.06 299.15"/>
   <path d="m3662.9 3011.3c5.14 0 8.07 2.49 8.07 7.15 0 4.5-2.72 6.97-7.84 6.97-1.14 0-1.36 0-2.49-0.23v-13.64c0.9-0.25 1.35-0.25 2.26-0.25m-20.85 27.78c2.96 0.19 3.37 0.41 9.2 0.89 5.82 0.44 8.28 0.66 10.74 0.66 19.06 0 28.47-7.37 28.47-21.48 0-8.54-3.58-13.64-11.21-16.57l-0.91-0.22c0.68-0.47 0.91-0.66 1.13-1.1 2.02-1.83 8.72-11.88 14.33-21.07h-21.73c-4.47 8.31-5.83 10.55-11.43 19.93v-19.93h-18.59zm22.42-80.37c28.23 0 50.81 22.61 50.81 50.58 0 28.22-22.58 50.83-50.81 50.83-27.99 0-50.57-22.61-50.57-50.61 0-28.41 22.36-50.8 50.57-50.8m0 108.56c32.01 0 57.96-25.73 57.96-57.76 0-32.22-25.76-57.96-57.96-57.96-32.44 0-57.76 25.3-57.76 57.96 0 32.22 25.52 57.76 57.76 57.76"/>
   <path d="m1459.2 3884.2h459.27l-43.24-176.86h-220.13l-21.76-92.91h229.63l-39.99-163.84h-226.65l-54.4-232.82h-237.29l154.56 666.43"/>
   <path d="m1980.9 3884.2h237.26l-154.53-666.43h-237.28l154.55 666.43"/>
   <path d="m2455.5 3566.5c76.18 0 129.51 44.98 129.51 108.91 0 33.99-25.04 50.97-74.02 50.97-14.14 0-21.76-1.01-36.97-4l-35.94-153.86c7.63-1.01 8.72-2.02 17.42-2.02m-175.21 313.73 15.24 2.02c76.15 8.98 170.86 14.96 223.09 14.96 87.08 0 154.55-9.99 205.69-30.96 65.29-26.96 104.47-85.92 104.47-156.85 0-60.95-20.69-118.9-59.87-163.88-33.73-38.96-64.19-57.95-127.33-76.91l-15.25-5c6.55-5.01 8.72-7 12-9.99 18.52-21.01 74.02-128.91 120.78-235.81h-261.19c-33.7 94.93-43.52 119.91-88.12 227.81l-52.23-227.81h-230.73l153.45 662.42"/>
   <path d="m3392 3884.2h575.65l-40.19-192.91h-170.86l-113.2-473.52h-237.22l113.16 473.52h-185.17l57.83 192.91"/>
   <path d="m3752.8 3280.9c5.14 0 8.03 2.46 8.03 7.18 0 4.47-2.67 6.93-7.81 6.93-1.13 0-1.35 0-2.48-0.22v-13.67c0.91-0.22 1.35-0.22 2.26-0.22m-20.82 27.75c2.9 0.22 3.34 0.44 9.16 0.88 5.83 0.44 8.29 0.7 10.75 0.7 19.02 0 28.44-7.41 28.44-21.49 0-8.5-3.59-13.64-11.22-16.57l-0.88-0.22c0.67-0.46 0.88-0.66 1.11-1.09 2.01-1.8 8.72-11.88 14.29-21.04h-21.67c-4.47 8.28-5.82 10.51-11.42 19.9v-19.9h-18.56zm22.37-80.31c28.22 0 50.8 22.61 50.8 50.54 0 28.19-22.58 50.77-50.8 50.77-27.97 0-50.52-22.58-50.52-50.54 0-28.42 22.32-50.77 50.52-50.77m0 108.5c31.96 0 57.95-25.74 57.95-57.73 0-32.2-25.77-57.93-57.95-57.93-32.44 0-57.71 25.3-57.71 57.93 0 32.21 25.48 57.73 57.71 57.73"/>
   <path d="m2782.5 3234.7c66.71-19.81 139.66-30.93 207.79-30.93 92.5 0 163.24 20.98 224.19 64.94 67.46 47.97 111.01 121.89 111.01 188.82 0 44.98-19.59 85.95-54.42 114.93-27.21 21.95-55.5 38.96-113.2 65.92l-46.77 21.99c-15.25 8-22.86 16-22.86 24.97 0 24 30.48 41.96 71.8 41.96 30.97 0 67.84-8.98 138.3-32.03l48.64 180.4c-52.7 14.3-104.04 21.49-155.35 21.49-193.73 0-342.83-105.89-342.83-242.78 0-71.93 47.87-122.89 167.59-178.86 56.6-25.96 66.4-32.98 66.4-50.93 0-27-29.39-43.97-77.26-43.97-42.46 0-96.85 12.97-170.87 39.97l-0.1-0.03-52.06-185.86"/>
   <path d="m3809.4 1092.7c14.52 0.81 29.04 1.81 43.56 3.03 6.47 0.39 12.9 0.99 19.36 1.81 6.46 0.81 13.1 0.81 19.97 0 8.87-1.21 15.74-4.84 20.58-10.88 4.84-6.06 7.77-12.82 8.78-20.28 0.99-7.46-0.32-14.83-3.94-22.09-3.63-7.26-9.48-12.5-17.56-15.72-6.85-2.83-16.12-4.96-27.83-6.36-11.71-1.42-24-2.42-36.9-3.03-12.93-0.6-25.62-0.9-38.11-0.9-12.52 0-23.01 0.2-31.48 0.61v-74.441c22.17-2.821 44.58-3.219 67.16-1.199 22.61 2.019 44.78 5.839 66.57 11.5h4.24c7.25-0.411 13.59-2.321 19.04-5.758 5.45-3.422 9.89-7.551 13.33-12.391 3.42-4.84 5.42-10.391 6.03-16.652 0.61-6.25-0.69-12.61-3.91-19.059-1.22-2.82-3.74-6.14-7.57-9.988-3.85-3.82-7.36-6.141-10.6-6.953-25.8-7.649-52.33-12.41-79.56-14.219-27.22-1.809-54.15-1.301-80.78 1.512-7.66 0.828-16.04 1.617-25.11 2.418-9.07 0.832-17.04 3.441-23.88 7.871-12.53 8.07-18.79 19.558-18.79 34.488v257.76c-4.43 3.22-8.05 7.26-10.87 12.1-2.83 4.84-4.55 9.99-5.15 15.42-0.61 5.45 0.09 10.7 2.12 15.74 2.03 5.05 5.45 9.38 10.28 13.01 8.07 6.44 17.33 10.79 27.83 13 10.49 2.22 20.78 4.13 30.87 5.76 20.96 3.22 41.94 4.84 62.92 4.84 20.99 0 42.36 0.19 64.14 0.61 6.44 0 13.92 0.49 22.39 1.51 8.45 0.99 15.93 0.3 22.4-2.12 7.65-2.83 13.71-7.26 18.14-13.32 4.44-6.04 7.04-12.51 7.85-19.36 0.81-6.86-0.48-13.52-3.9-19.97-3.46-6.45-9.4-11.49-17.86-15.12-10.08-4.04-20.87-5.85-32.38-5.44-11.5 0.39-22.49 0.6-32.99 0.6-15.33 0-30.66-0.21-45.96-0.6-15.33-0.41-30.67-1.63-46-3.64v-84.1c14.52-0.81 29.04-0.81 43.57 0zm-233.51-217.52c-3.85-6.238-8.49-11.078-13.91-14.519-5.45-3.418-11.42-5.141-17.85-5.141-6.46 0-12.93 2.223-19.36 6.652-7.28 5.649-14.14 12.321-20.58 19.969-6.46 7.649-12.69 14.719-18.76 21.168-13.3 14.524-26.32 29.152-39.04 43.871-12.7 14.723-25.7 29.141-39.02 43.262-8.08-1.609-16.23-2.723-24.52-3.32-8.25-0.61-16.42-1.321-24.49-2.11v-90.16c-1.21-10.09-5.45-18.351-12.69-24.82-7.27-6.442-15.13-10.59-23.59-12.403-8.49-1.808-16.27-0.91-23.31 2.731-7.07 3.621-10.81 10.883-11.18 21.781-2.03 46.371-3.05 94.488-3.05 144.3v148.55c-6.46 2.41-11.31 6.05-14.52 10.89-3.22 4.84-5.13 10.18-5.74 16.03-0.61 5.84 0.09 11.8 2.12 17.86 2 6.04 5.04 11.29 9.07 15.72 4.43 4.84 10.49 9.28 18.15 13.32 7.67 4.03 16.05 7.75 25.12 11.19 9.07 3.42 18.03 6.36 26.93 8.78 8.87 2.42 16.31 4.23 22.38 5.43 25.42 5.25 51.01 5.15 76.83-0.3 25.83-5.44 48.5-15.23 68.09-29.33 19.56-14.14 34.17-32.48 43.86-55.07 9.68-22.6 10.69-48.41 3.01-77.45-2.41-8.07-5.42-16.13-9.08-24.2-3.62-8.07-7.85-15.54-12.69-22.4-6.87-10.48-14.92-19.76-24.2-27.82-9.28-8.07-19.37-15.53-30.26-22.39 7.65-8.07 14.93-16.551 21.79-25.411 6.85-8.879 14.52-16.929 22.99-24.187 3.21-2.832 7.97-7.274 14.23-13.332 6.23-6.039 12.29-12.5 18.14-19.36 5.83-6.871 10.99-13.601 15.42-20.269 4.44-6.652 6.47-12.211 6.06-16.641-0.4-7.672-2.52-14.621-6.35-20.871zm-404.16 158.82c-6.86-22.59-15.64-44.68-26.32-66.239-10.69-21.59-23.7-40.84-39.04-57.781-15.33-16.941-33.18-30.648-53.53-41.16-20.38-10.481-43.68-15.719-69.88-15.719-16.96 0.809-30.38 2.32-40.23 4.527-9.92 2.223-19.49 5.551-28.75 9.993-16.56 4.839-30.76 12.609-42.67 23.281-11.88 10.699-21.88 23.09-29.94 37.219-8.09 14.121-14.23 29.148-18.47 45.07-4.23 15.949-6.95 31.369-8.14 46.289-2.03 26.22 0.17 52.84 6.64 79.87 6.46 27.03 16.72 51.94 30.87 74.74 14.11 22.78 31.85 42.34 53.24 58.67 21.37 16.35 45.77 27.13 73.21 32.38 14.12 2.42 28.44 3.22 42.96 2.42 14.52-0.81 28.63-3.62 42.35-8.46 11.3-4.05 21.79-8.68 31.47-13.93 9.69-5.25 18.96-11.9 27.83-19.97 11.68-10.49 21.56-22.59 29.65-36.3 8.06-13.71 13.92-28.03 17.54-42.96 4.43-18.95 6.46-37.72 6.05-56.27s-2.03-37.12-4.84-55.67zm-426.53-153.37c-5.05-6.257-12.82-10.988-23.27-14.23-4.07-1.199-9.69-1.898-16.97-2.117-7.24-0.18-17.33-0.301-30.25-0.301h-49.01c-19.77 0-44.16-0.191-73.19-0.602-7.27-0.398-14.75-0.597-22.41-0.597-7.65 0-14.32 2.621-19.97 7.871-4.84 4.019-8.38 10.168-10.58 18.449-2.23 8.25-3.62 16.938-4.23 26.008-0.61 9.082-0.82 18.16-0.61 27.23 0.2 9.071 0.29 16.641 0.29 22.692 0 12.097 0.12 26.019 0.32 41.759 0.2 15.72 0.4 31.75 0.61 48.1 0.2 16.33 0.29 32.36 0.29 48.1v41.75c0 21.37 0.2 38.62 0.61 51.72 0.4 13.12 1.3 23.39 2.72 30.87 1.42 7.45 3.71 12.9 6.96 16.33 3.22 3.43 7.65 6.35 13.31 8.77 4.83 2.01 10.19 2.73 16.02 2.12 5.85-0.6 11.3-2.22 16.35-4.84 5.04-2.62 9.28-6.25 12.69-10.89 3.45-4.63 5.16-9.78 5.16-15.43 0.81-48.4 0.81-96.4 0-143.99-0.81-47.61-1.21-95.221-1.21-142.8 25.41 0 50.72 0.289 75.94 0.899 25.21 0.609 50.72 1.3 76.54 2.109l3.62-1.199c9.28-4.45 16.35-10.078 21.19-16.942 4.85-6.867 7.16-13.82 6.96-20.879-0.24-7.058-2.84-13.711-7.88-19.961zm-350.32 182.42c-9.26-18.55-22.28-34.89-39.01-49-16.75-14.129-36.42-24.422-59-30.871-16.94-4.84-34.18-7.16-51.74-6.961-17.54 0.211-34.79 1.313-51.71 3.34v-58.699c0-4.449 0.17-9.07 0.58-13.91s0.51-9.68 0.32-14.52c-0.21-4.84-0.81-9.597-1.83-14.219-1.01-4.64-2.93-8.968-5.74-13.011-4.84-8.059-11.1-13.02-18.75-14.828-7.69-1.813-15.05-1.403-22.09 1.218-7.07 2.621-13.13 7.063-18.14 13.301-5.07 6.262-7.57 13.828-7.57 22.699v108.91c-7.68 4.03-13.33 9.07-16.96 15.13-3.62 6.04-5.24 12.18-4.84 18.44 0.41 6.25 2.44 12.21 6.06 17.86 3.63 5.64 8.67 10.27 15.13 13.91v154.9l0.61 3.62c1.19 4.44 3.22 8.78 6.03 13.01 2.84 4.23 6.14 7.96 10 11.21 3.83 3.21 8.06 5.53 12.7 6.95 4.64 1.41 9.38 1.31 14.23-0.3 14.9 6.04 30.14 11.09 45.68 15.13 15.51 4.01 31.03 6.35 46.57 6.96 15.54 0.59 30.87-0.81 46.01-4.25 15.12-3.42 29.73-9.78 43.85-19.06 11.3-7.26 21.27-16.33 29.97-27.23 8.67-10.88 15.83-22.37 21.47-34.48 9.69-21.78 14.12-43.48 13.31-65.04-0.81-21.59-5.86-41.66-15.14-60.21zm-453.14-13.92c6.26-7.66 13.11-16.24 20.59-25.71 7.44-9.49 15.01-19.58 22.69-30.26 7.65-10.692 14.92-20.969 21.77-30.852 6.86-9.879 12.8-19.156 17.85-27.84 5.04-8.66 8.57-15.828 10.61-21.476 3.22-9.274 3.31-17.844 0.29-25.711-3.02-7.871-7.69-14.11-13.92-18.75-6.26-4.641-13.53-6.969-21.79-6.969-8.27 0-16.23 3.438-23.88 10.289-6.47 5.649-12.12 13.508-16.96 23.598-4.84 10.082-9.68 18.761-14.53 26.019-10.08 15.321-20.57 30.153-31.44 44.461-10.9 14.321-22.21 28.539-33.89 42.671-11.3-14.132-22.89-27.94-34.8-41.448-11.89-13.524-23.68-26.922-35.39-40.231-3.23-3.64-7.16-8.48-11.8-14.519-4.64-6.063-9.6-12.223-14.81-18.461-5.25-6.262-10.49-12.012-15.74-17.25-5.25-5.231-10.08-8.672-14.52-10.293-7.68-3.219-15.13-3.93-22.38-2.117-7.28 1.828-13.33 5.148-18.17 9.988s-8.18 10.902-9.98 18.16c-1.82 7.262-1.12 14.711 2.12 22.391 3.22 8.058 7.97 15.012 14.2 20.871 6.26 5.84 12.21 12 17.86 18.449 16.15 18.949 32.29 37.82 48.4 56.57 16.15 18.76 32.3 37.82 48.41 57.18-14.12 18.16-28.52 36.01-43.25 53.55-14.72 17.55-30.37 34.39-46.9 50.51-1.62 1.62-4.14 3.73-7.55 6.37-3.43 2.62-6.97 5.64-10.59 9.07-3.65 3.42-7.07 6.85-10.28 10.29-3.26 3.42-5.86 6.75-7.89 9.99-4.03 7.65-5.42 15.51-4.23 23.59 1.22 8.06 4.34 15.02 9.39 20.86 5.04 5.86 11.39 9.58 19.05 11.21 7.67 1.61 15.73 0 24.19-4.84 6.87-4.45 13.1-9.38 18.78-14.83 5.63-5.45 11.28-11 16.94-16.63 16.11-15.74 31.47-31.99 45.99-48.71 14.52-16.74 28.81-33.99 42.95-51.74 5.63 6.85 11.28 13.62 16.94 20.28 5.64 6.65 11.09 13.4 16.34 20.25 10.9 14.53 21.36 28.95 31.45 43.28 10.09 14.3 19.97 29.13 29.65 44.46 7.27 7.26 15.13 11.09 23.59 11.51 8.5 0.39 16.14-1.42 23.02-5.45 6.83-4.04 12-9.99 15.42-17.86 3.42-7.86 3.33-16.63-0.29-26.31-2.85-6.87-6.38-13.32-10.61-19.37s-8.38-11.9-12.4-17.55c-13.31-20.17-27.14-39.53-41.46-58.08-14.31-18.55-28.92-36.91-43.84-55.05 3.62-4.05 8.54-9.89 14.8-17.56zm-479.17 43.57c14.52 0.81 29.04 1.81 43.56 3.03 6.46 0.39 12.9 0.99 19.36 1.81 6.47 0.81 13.11 0.81 19.98 0 8.86-1.21 15.73-4.84 20.58-10.88 4.84-6.06 7.76-12.82 8.78-20.28 0.98-7.46-0.32-14.83-3.94-22.09-3.63-7.26-9.48-12.5-17.57-15.72-6.84-2.83-16.12-4.96-27.83-6.36-11.7-1.42-23.99-2.42-36.89-3.03-12.93-0.6-25.62-0.9-38.11-0.9-12.53 0-23.02 0.2-31.48 0.61v-74.441c22.17-2.821 44.58-3.219 67.15-1.199 22.61 2.019 44.78 5.839 66.58 11.5h4.23c7.25-0.411 13.6-2.321 19.05-5.758 5.45-3.422 9.88-7.551 13.33-12.391 3.42-4.84 5.42-10.391 6.02-16.652 0.62-6.25-0.69-12.61-3.91-19.059-1.21-2.82-3.73-6.14-7.56-9.988-3.85-3.82-7.37-6.141-10.61-6.953-25.8-7.649-52.32-12.41-79.56-14.219-27.22-1.809-54.14-1.301-80.78 1.512-7.66 0.828-16.03 1.617-25.1 2.418-9.07 0.832-17.05 3.441-23.89 7.871-12.52 8.07-18.78 19.558-18.78 34.488v257.76c-4.43 3.22-8.05 7.26-10.87 12.1-2.84 4.84-4.55 9.99-5.16 15.42-0.6 5.45 0.09 10.7 2.12 15.74 2.03 5.05 5.45 9.38 10.29 13.01 8.06 6.44 17.33 10.79 27.82 13 10.49 2.22 20.79 4.13 30.87 5.76 20.96 3.22 41.94 4.84 62.93 4.84 20.98 0 42.34 0.19 64.14 0.61 6.44 0 13.91 0.49 22.38 1.51 8.46 0.99 15.94 0.3 22.4-2.12 7.65-2.83 13.71-7.26 18.15-13.32 4.43-6.04 7.04-12.51 7.85-19.36 0.82-6.86-0.49-13.52-3.91-19.97-3.45-6.45-9.39-11.49-17.86-15.12-10.08-4.04-20.86-5.85-32.37-5.44-11.51 0.39-22.49 0.6-32.99 0.6-15.33 0-30.66-0.21-45.97-0.6-15.33-0.41-30.66-1.63-45.99-3.64v-84.1c14.52-0.81 29.04-0.81 43.56 0zm3086.5 387h-3798.3c-75.641 0-136.99-61.32-136.99-136.97v-539.35c0-75.636 61.348-136.97 136.99-136.97h3798.3c75.67 0 136.98 61.332 136.98 136.97v539.35c0 75.65-61.31 136.97-136.98 136.97"/>
   <path d="m3068.6 1175.3c-11.51 8.67-24.12 14.73-37.83 18.16-13.71 3.42-27.54 4.13-41.44 2.11-13.92-2.02-26.32-7.47-37.22-16.35-15.33-12.91-27.74-27.31-37.22-43.25s-16.64-33.58-21.48-52.94c-4.02-15.34-6.26-31.47-6.63-48.41-0.41-16.94 2.2-33.07 7.85-48.4 4.43-11.289 10.99-21.582 19.65-30.859 8.7-9.281 18.47-16.551 29.36-21.781 10.9-5.238 22.5-8.168 34.79-8.781 12.31-0.598 24.52 1.711 36.6 6.972 12.12 5.231 22.7 12.188 31.77 20.867 9.07 8.661 17.04 18.243 23.92 28.743 6.83 10.488 12.6 21.679 17.24 33.579 4.61 11.9 8.75 23.89 12.4 35.99 2.41 15.34 3.71 31.06 3.92 47.21 0.2 16.13-3.14 31.46-9.97 45.98-5.66 12.1-14.23 22.48-25.71 31.16"/>
   <path d="m3485.8 1165c-3.41 8.68-9.76 16.23-19.04 22.7-16.14 9.67-33.8 15.12-52.96 16.33-19.15 1.21-37.61-1.42-55.35-7.87v-136.74c18.14 1.21 36 3.52 53.53 6.96 17.56 3.42 33.8 10.98 48.73 22.69 8.05 6.45 14.61 14 19.65 22.68 5.03 8.67 8.08 17.55 9.1 26.62 0.98 9.09-0.24 17.95-3.66 26.63"/>
   <path d="m2296.3 1193.8c-16.92 6.85-34.17 8.87-51.74 6.06-17.53-2.83-34.58-8.08-51.09-15.74v-131.9c18.95-3.23 38.31-4.04 58.09-2.42 19.73 1.61 37.91 7.65 54.43 18.15 11.71 7.66 19.76 17.35 24.2 29.04 4.43 11.69 6.05 23.61 4.84 35.71-1.19 12.1-5.25 23.68-12.09 34.78-6.87 11.1-15.74 19.87-26.64 26.32"/>
  </g>
 </g>
</svg>
