<?xml version="1.0" encoding="UTF-8"?>
<!-- Created with Inkscape (http://www.inkscape.org/) -->
<svg width="708.03" height="609.33" version="1.1" viewBox="0 0 708.03 609.33" xmlns="http://www.w3.org/2000/svg">
 <g transform="matrix(1.3333 0 0 -1.3333 0 609.33)">
  <g transform="scale(.1)" fill="#fff">
   <path d="m1131.6 2335.8h149.86v-446.34h268.28v-128.91h-418.14v575.25"/>
   <path d="m1575.5 2335.8h458.43v-120.07h-308.57v-100.73h281.96v-115.98h-281.96v-109.56h316.62v-128.91h-466.48v575.25"/>
   <path d="m2244.9 1974.9h130.52l-63.65 201.4h-1.58zm-9.66 360.95h152.29l215.07-575.29h-156.27l-35.48 103.13h-200.57l-36.3-103.13h-153.9l215.16 575.29"/>
   <path d="m3128.6 1760.6h-96.69l-8.86 62.83c-39.48-55.57-107.17-74.92-160.35-74.92-174 0-286.79 132.95-286.79 299.73 0 166.75 112.79 299.7 286.79 299.7 119.23 0 246.56-63.65 260.26-207.86h-149.87c-4.79 49.13-53.17 78.95-113.57 78.95-96.69 0-133.77-85.42-133.77-170.79 0-85.42 37.08-170.85 133.77-170.85 74.09 0 124.05 34.69 132.1 87.07h-104.71v111.14h241.69v-315"/>
   <path d="m3673.1 1998.2c0-166.78-76.53-249.74-250.57-249.74-174 0-250.56 82.96-250.56 249.74v337.6h149.9v-346.47c0-74.13 27.36-112 100.66-112 73.31 0 100.7 37.87 100.7 112v346.47h149.87v-337.6"/>
   <path d="m3724.6 2335.8h458.46v-120.07h-308.6v-100.73h281.99v-115.98h-281.99v-109.56h316.61v-128.91h-466.47v575.25"/>
   <path d="m1572.9 3072.3h149.84v-446.35h268.26v-128.88h-418.1v575.23"/>
   <path d="m2016.8 3072.3h458.43v-120.04h-308.57v-100.73h281.97v-116.01h-281.97v-109.57h316.65v-128.88h-466.51v575.23"/>
   <path d="m3051.1 2497h-96.69l-8.83 62.83c-39.51-55.6-107.17-74.94-160.35-74.94-174.03 0-286.82 132.95-286.82 299.76 0 166.75 112.79 299.7 286.82 299.7 119.23 0 246.5-63.68 260.23-207.9h-149.87c-4.83 49.13-53.14 78.95-113.6 78.95-96.66 0-133.74-85.39-133.74-170.75 0-85.46 37.08-170.85 133.74-170.85 74.12 0 124.08 34.65 132.15 87.03h-104.73v111.15h241.69v-314.98"/>
   <path d="m3360.4 2613.8c96.69 0 133.74 85.4 133.74 170.82 0 85.4-37.05 170.79-133.74 170.79-96.66 0-133.74-85.39-133.74-170.79 0-85.42 37.08-170.82 133.74-170.82m0 470.55c181.26 0 283.64-132.95 283.64-299.73s-102.38-299.73-283.64-299.73c-181.29 0-283.6 132.95-283.6 299.73s102.31 299.73 283.6 299.73"/>
   <path d="m3690.1 3014.4c5.14 0 8.08 2.5 8.08 7.17 0 4.51-2.72 6.97-7.86 6.97-1.14 0-1.36 0-2.49-0.22v-13.66c0.91-0.26 1.35-0.26 2.27-0.26m-20.89 27.84c2.96 0.18 3.37 0.41 9.21 0.88 5.84 0.44 8.3 0.66 10.76 0.66 19.1 0 28.53-7.38 28.53-21.52 0-8.55-3.59-13.66-11.23-16.6l-0.92-0.22c0.69-0.47 0.92-0.66 1.14-1.1 2.02-1.83 8.74-11.9 14.36-21.12h-21.78c-4.48 8.33-5.83 10.58-11.45 19.98v-19.98h-18.62zm22.47-80.54c28.27 0 50.9 22.66 50.9 50.68 0 28.28-22.63 50.94-50.9 50.94-28.06 0-50.68-22.66-50.68-50.72 0-28.46 22.4-50.9 50.68-50.9m0 108.78c32.06 0 58.06-25.78 58.06-57.88 0-32.28-25.81-58.06-58.06-58.06-32.51 0-57.88 25.34-57.88 58.06 0 32.29 25.56 57.88 57.88 57.88"/>
   <path d="m1482.1 3889h460.17l-43.33-177.19h-220.55l-21.8-93.1h230.08l-40.08-164.16h-227.08l-54.51-233.27h-237.75l154.85 667.72"/>
   <path d="m2004.8 3889h237.72l-154.82-667.72h-237.75l154.85 667.72"/>
   <path d="m2480.3 3570.6c76.34 0 129.77 45.06 129.77 109.12 0 34.05-25.09 51.07-74.16 51.07-14.17 0-21.81-1.02-37.05-4.01l-36.01-154.16c7.64-1.01 8.74-2.02 17.45-2.02m-175.55 314.34 15.27 2.02c76.31 9 171.2 14.99 223.52 14.99 87.26 0 154.85-10 206.1-31.02 65.42-27.01 104.68-86.09 104.68-157.16 0-61.06-20.74-119.12-59.99-164.19-33.8-39.03-64.32-58.06-127.59-77.06l-15.27-5.02c6.56-5.01 8.74-7 12.02-10 18.56-21.05 74.16-129.16 121.03-236.27h-261.71c-33.77 95.11-43.61 120.14-88.3 228.25l-52.32-228.25h-231.19l153.75 663.71"/>
   <path d="m3418.6 3889h576.77l-40.27-193.29h-171.19l-113.42-474.43h-237.69l113.38 474.43h-185.52l57.94 193.29"/>
   <path d="m3780.2 3284.5c5.14 0 8.04 2.46 8.04 7.2 0 4.48-2.68 6.94-7.83 6.94-1.13 0-1.35 0-2.49-0.22v-13.7c0.92-0.22 1.36-0.22 2.28-0.22m-20.86 27.8c2.9 0.23 3.34 0.45 9.18 0.89s8.3 0.69 10.76 0.69c19.06 0 28.49-7.41 28.49-21.52 0-8.52-3.6-13.66-11.23-16.6l-0.89-0.22c0.67-0.47 0.89-0.66 1.11-1.1 2.02-1.8 8.74-11.9 14.33-21.08h-21.72c-4.47 8.3-5.83 10.54-11.45 19.94v-19.94h-18.58zm22.4-80.47c28.27 0 50.9 22.66 50.9 50.65 0 28.25-22.63 50.87-50.9 50.87-28.02 0-50.62-22.62-50.62-50.64 0-28.47 22.38-50.88 50.62-50.88m0 108.72c32.03 0 58.06-25.78 58.06-57.84 0-32.26-25.81-58.04-58.06-58.04-32.51 0-57.81 25.34-57.81 58.04 0 32.28 25.53 57.84 57.81 57.84"/>
   <path d="m2807.9 3238.3c66.84-19.85 139.92-30.99 208.18-30.99 92.68 0 163.56 21.02 224.63 65.07 67.59 48.07 111.23 122.13 111.23 189.19 0 45.06-19.63 86.12-54.53 115.15-27.26 22-55.6 39.04-113.41 66.05l-46.87 22.03c-15.27 8.01-22.91 16.03-22.91 25.02 0 24.05 30.55 42.04 71.96 42.04 31.01 0 67.97-9 138.56-32.1l48.73 180.76c-52.8 14.33-104.24 21.52-155.64 21.52-194.11 0-343.5-106.09-343.5-243.24 0-72.08 47.96-123.14 167.91-179.21 56.71-26.01 66.52-33.04 66.52-51.03 0-27.04-29.44-44.05-77.41-44.05-42.54 0-97.03 13-171.19 40.04l-0.1-0.03-52.16-186.22"/>
   <path d="m1355 1136.6c-8.88 10.26-19.77 18.38-32.68 24.41-10.47 4.8-20.86 8-31.14 9.61-10.27 1.58-20.84 2.76-31.72 3.56-5.24-0.02-10.19-0.23-14.79-0.64-4.63-0.42-9.58-1.03-14.82-1.83l0.47-242.29c2.42 0 4.42 0.199 6.04 0.609 1.59 0.398 3.21 0.621 4.84 0.621 1.59 0 3.01 0.188 4.22 0.609 5.65 0.809 10.28 1.43 13.9 1.84 3.61 0.399 7.03 0.91 10.27 1.532 3.21 0.609 6.54 1.32 9.95 2.128 3.42 0.821 7.36 1.821 11.79 3.051 23.35 6.078 41.76 15.68 55.22 28.801 13.46 13.109 23.62 31.156 30.42 54.138 4.4 13.28 6.37 26.79 5.96 40.49-0.43 13.69-2.98 26.77-7.64 39.26-4.63 12.46-11.43 23.84-20.29 34.1"/>
   <path d="m2866.2 1174.4c-11.51 8.66-24.1 14.66-37.79 18.07-13.69 3.39-27.53 4.07-41.39 2.04-13.9-2.06-26.28-7.5-37.14-16.39-15.28-12.92-27.66-27.33-37.07-43.27-9.44-15.93-16.56-33.57-21.36-52.91-4-15.32-6.2-31.43-6.54-48.35-0.38-16.92 2.25-33.02 7.93-48.32 4.45-11.269 11.02-21.531 19.71-30.781 8.65-9.258 18.44-16.48 29.34-21.687 10.89-5.231 22.46-8.122 34.76-8.704 12.28-0.578 24.46 1.774 36.53 7.024s22.63 12.219 31.7 20.91c9.03 8.668 16.95 18.246 23.82 28.738 6.8 10.489 12.53 21.67 17.13 33.56s8.71 23.9 12.33 35.99c2.37 15.3 3.67 31.02 3.82 47.12 0.17 16.11-3.18 31.42-10.04 45.9-5.68 12.08-14.24 22.42-25.74 31.06"/>
   <path d="m1355 1136.6c-8.88 10.26-19.77 18.38-32.68 24.41-10.47 4.81-20.86 8-31.14 9.61-10.27 1.57-20.84 2.77-31.72 3.56-5.24-0.01-10.19-0.23-14.79-0.64-4.63-0.42-9.58-1.02-14.82-1.83l0.47-242.29c2.42 0 4.42 0.211 6.04 0.609 1.59 0.41 3.21 0.621 4.84 0.621 1.59 0 3.01 0.188 4.22 0.609 5.65 0.809 10.28 1.43 13.9 1.84 3.61 0.399 7.03 0.91 10.27 1.532 3.21 0.609 6.54 1.32 9.95 2.128 3.42 0.821 7.36 1.821 11.79 3.051 23.35 6.078 41.76 15.68 55.22 28.801 13.46 13.109 23.62 31.156 30.42 54.138 4.4 13.28 6.37 26.78 5.96 40.49-0.43 13.69-2.98 26.77-7.64 39.26-4.63 12.46-11.43 23.83-20.29 34.1"/>
   <path d="m4058.6 1166.4c-3.44 8.65-9.81 16.19-19.07 22.62-16.15 9.62-33.78 15.04-52.91 16.22-19.16 1.16-37.57-1.49-55.28-7.97l0.26-136.56c18.12 1.26 35.95 3.59 53.46 7.05s33.72 11.04 48.6 22.77c8.04 6.45 14.58 14.02 19.59 22.67 5.04 8.68 8.02 17.54 9 26.63 0.99 9.06-0.23 17.92-3.65 26.57"/>
   <path d="m4149.1 877.2c-3.82-6.25-8.45-11.078-13.89-14.519-5.42-3.438-11.35-5.149-17.8-5.168-6.46-0.012-12.88 2.179-19.34 6.597-7.27 5.629-14.12 12.27-20.58 19.903-6.45 7.636-12.73 14.687-18.78 21.109-13.32 14.481-26.34 29.059-39.05 43.731-12.73 14.679-25.73 29.07-39.07 43.128-8.05-1.621-16.21-2.738-24.46-3.359s-16.41-1.34-24.46-2.172l0.15-85.801 0.03-4.226c-1.19-10.07-5.42-18.32-12.65-24.781s-15.08-10.61-23.53-12.43c-8.45-1.832-16.24-0.949-23.27 2.668-7.06 3.601-10.79 10.84-11.23 21.723-2.08 46.308-3.18 94.359-3.27 144.11-0.12 49.74-0.21 99.18-0.29 148.32-6.45 2.4-11.29 6.02-14.53 10.86-3.24 4.83-5.15 10.15-5.76 15.99-0.64 5.84 0.06 11.79 2.08 17.82 2 6.07 5.01 11.29 9.04 15.75 4.4 4.84 10.44 9.28 18.08 13.31 7.64 4.04 16.01 7.79 25.04 11.22 9.09 3.45 18.03 6.39 26.89 8.83 8.85 2.43 16.32 4.25 22.34 5.48 25.39 5.27 50.94 5.22 76.73-0.16 25.79-5.4 48.45-15.12 68.05-29.17 19.53-14.08 34.18-32.37 43.91-54.92 9.69-22.53 10.76-48.31 3.15-77.32-2.4-8.08-5.41-16.13-9-24.19-3.62-8.07-7.84-15.51-12.65-22.37-6.84-10.5-14.88-19.78-24.14-27.84-9.23-8.08-19.31-15.56-30.16-22.42 7.67-8.05 14.94-16.48 21.82-25.33 6.87-8.851 14.53-16.879 22.99-24.121 3.24-2.82 7.96-7.23 14.21-13.277 6.28-6.024 12.33-12.461 18.17-19.301 5.85-6.84 11-13.57 15.46-20.211 4.42-6.648 6.46-12.172 6.07-16.601-0.4-7.649-2.49-14.618-6.3-20.86zm-573.77 216.13c14.5-0.78 29-0.76 43.5 0.08s29 1.87 43.5 3.1c6.42 0.41 12.88 1.03 19.33 1.85 6.43 0.83 13.09 0.84 19.95 0.03 8.85-1.17 15.71-4.79 20.55-10.83 4.86-6.03 7.78-12.77 8.8-20.22 1.01-7.46-0.3-14.81-3.89-22.06-3.61-7.27-9.43-12.51-17.51-15.75-6.83-2.81-16.09-4.96-27.75-6.39-11.69-1.45-23.96-2.46-36.85-3.09-12.91-0.63-25.58-0.95-38.09-0.98-12.47-0.03-22.95 0.16-31.4 0.55l0.12-74.331c22.17-2.769 44.54-3.141 67.08-1.07 22.55 2.062 44.7 5.922 66.43 11.601l4.26 0.012c7.23-0.391 13.57-2.293 19.04-5.723 5.44-3.39 9.87-7.507 13.29-12.339 3.44-4.821 5.47-10.36 6.1-16.61 0.61-6.238-0.69-12.59-3.91-19.051-1.18-2.82-3.7-6.129-7.52-9.98-3.82-3.82-7.35-6.141-10.57-6.957-25.78-7.692-52.24-12.492-79.41-14.34-27.21-1.871-54.1-1.41-80.67 1.34-7.67 0.808-16 1.59-25.09 2.367-9.06 0.813-17.02 3.41-23.88 7.82-12.5 8.032-18.76 19.493-18.78 34.403l-0.5 257.39c-4.45 3.21-8.07 7.23-10.91 12.07-2.84 4.83-4.55 9.96-5.15 15.4-0.61 5.42 0.09 10.66 2.08 15.71 2 5.04 5.41 9.37 10.25 13.01 8.05 6.46 17.31 10.8 27.79 13.03 10.44 2.24 20.72 4.18 30.79 5.82 20.93 3.25 41.88 4.9 62.81 4.94 20.95 0.03 42.31 0.28 64.05 0.73 6.45 0.01 13.89 0.52 22.37 1.55 8.45 1.01 15.89 0.33 22.34-2.07 7.68-2.81 13.7-7.22 18.15-13.26 4.46-6.03 7.09-12.49 7.9-19.32 0.82-6.86-0.49-13.5-3.9-19.94-3.39-6.47-9.32-11.51-17.78-15.15-10.06-4.06-20.83-5.88-32.32-5.5-11.46 0.39-22.47 0.56-32.91 0.55-15.34-0.03-30.62-0.26-45.94-0.7-15.3-0.43-30.62-1.66-45.93-3.7zm-181.74 105.09c-4.83-7.86-9.44-15.63-13.86-23.3-10.83-20.95-21.16-42.12-30.97-63.49-9.87-21.37-19.37-42.94-28.6-64.7-9.23-21.38-17.83-42.64-25.87-63.789-8.02-21.172-16.01-42.641-24.03-64.403-2.8-6.437-5.61-14.008-8.42-22.679-2.81-8.649-6.43-16.219-10.83-22.661-4.42-6.457-9.75-10.91-15.97-13.347-6.25-2.41-12.5-3.031-18.73-1.832-6.25 1.191-12.09 3.89-17.54 8.133-5.47 4.207-9.4 9.75-11.8 16.589-4.49 11.27-8.71 22.34-12.77 33.207-4.05 10.872-8.31 21.723-12.76 32.614-4.46 11.25-8.72 22.328-12.74 33.187-4.05 10.871-8.31 21.741-12.76 32.611-8.51 22.13-16.99 44.16-25.5 66.1-8.48 21.94-16.79 43.98-24.89 66.12-5.27 13.68-10.01 25.77-14.27 36.22-4.25 10.47-8.02 22.54-11.23 36.24-2.87 9.25-1.56 17.3 3.85 24.17 5.44 6.86 12.27 11.61 20.55 14.24 8.22 2.63 16.67 2.65 25.35 0.04 8.66-2.6 15.02-8.52 19.08-17.77 16.99-40.26 32.85-80.91 47.67-121.96 14.76-41.06 29.84-82.33 45.24-123.78 2.4 6.04 4.31 10.77 5.69 14.21 1.43 3.42 2.49 6.24 3.33 8.47 0.79 2.2 1.4 3.92 1.8 5.12 0.38 1.21 0.98 2.42 1.79 3.63 4 16.12 9.73 31.75 17.14 46.88 7.44 15.1 14.35 30.33 20.75 45.64 17.25 41.13 36.7 80.82 58.38 119.15l2.43 3.61c4.8 8.08 11.03 13.54 18.7 16.37 7.64 2.82 15.19 3.44 22.63 1.85 7.47-1.6 13.92-5.41 19.36-11.44 5.48-6.04 7.99-13.9 7.62-23.56-0.41-9.27-3.01-17.82-7.82-25.69zm-424.1-164.85c-6.81-22.57-15.52-44.64-26.17-66.211-10.62-21.57-23.59-40.82-38.84-57.757-15.28-16.954-33.08-30.672-53.4-41.211-20.32-10.493-43.59-15.77-69.75-15.832-16.94 0.781-30.33 2.261-40.21 4.461-9.87 2.199-19.45 5.5-28.71 9.91-16.53 4.8-30.74 12.531-42.63 23.179-11.92 10.661-21.91 23.02-29.99 37.11-8.07 14.082-14.24 29.082-18.49 44.98-4.28 15.903-7 31.291-8.25 46.191-2.08 26.18 0.09 52.78 6.48 79.79 6.4 26.98 16.62 51.87 30.68 74.67 14.07 22.78 31.72 42.34 53.06 58.71 21.33 16.35 45.64 27.16 73.05 32.46 14.09 2.43 28.39 3.27 42.89 2.49 14.5-0.79 28.6-3.56 42.29-8.37 11.29-4.02 21.79-8.62 31.46-13.83 9.67-5.23 18.96-11.87 27.84-19.88 11.69-10.47 21.6-22.54 29.67-36.22s13.95-27.97 17.6-42.86c4.48-18.93 6.51-37.64 6.16-56.18-0.37-18.53-1.97-37.07-4.74-55.6zm-438.9 141.48c-0.58-5.46-2.17-10.4-4.8-14.82-2.61-4.44-6.11-8.18-10.54-11.19-4.43-3.04-9.46-4.98-15.11-5.77-9.26-1.25-16.41-0.25-21.44 2.98-5.04 3.19-9.06 7.23-12.1 12.05-3.04 4.84-5.97 9.55-8.8 14.19-2.84 4.61-6.86 7.93-12.1 9.94-3.24 0-5.64-0.22-7.26-0.61-13.67-3.66-27.47-8.63-41.37-14.89-13.86-6.28-26.74-13.85-38.6-22.73-11.87-8.89-22.24-19.18-31.06-30.87-8.83-11.7-15.28-24.81-19.28-39.32-4.77-17.32-6.57-34.85-5.32-52.56 1.24-17.73 6.11-34.43 14.58-50.118 4.86-9.281 11.32-17.312 19.4-24.141 8.07-6.839 16.93-11.972 26.59-15.351 9.7-3.418 19.57-4.61 29.61-3.578 10.08 1.027 19.74 4.566 29.01 10.617 8.04 5.66 15.28 12.633 21.7 20.902 6.43 8.258 12.25 16.641 17.49 25.09 6.42 6.461 13.77 10.211 22.02 11.231 8.25 1.019 15.8-0.082 22.66-3.282 6.86-3.211 12.19-8.34 16.04-15.379 3.85-7.043 4.77-15.39 2.78-25.05-2.41-9.68-7.01-18.661-13.84-26.922-6.86-8.278-13.69-15.848-20.52-22.707-15.66-16.551-33.08-28.75-52.19-36.66-19.13-7.883-38.46-11.641-57.97-11.27-19.57 0.367-38.7 4.969-57.45 13.777-18.73 8.84-35.57 22.082-50.5 39.789-8.89 10.454-16.36 21.512-22.44 33.192-6.05 11.66-10.73 23.93-13.95 36.832-4.89 18.918-7.12 38.658-6.77 59.188 0.35 20.55 3.56 40.51 9.55 59.84 6.02 19.35 14.53 37.58 25.59 54.73 11.02 17.14 24.6 31.77 40.69 43.88 11.67 8.89 23.44 16.55 35.31 23.04 11.87 6.44 24.46 12.52 37.71 18.19 7.68 3.24 15.49 6.37 23.56 9.41 8.05 3.03 16.3 5.37 24.75 6.99 8.48 1.62 16.93 2.24 25.39 1.86 8.45-0.39 16.72-2.2 24.77-5.4 5.65-2.4 11.29-5.71 16.96-9.92 5.61-4.23 10.88-9.05 15.72-14.48 4.83-5.44 9.08-11.15 12.73-17.2 3.65-6.02 6.25-11.87 7.87-17.51 1.22-5.23 1.54-10.55 0.93-15.99zm-387.75-210.71c-0.99-13.281-4.09-26.09-9.3-38.379-5.23-12.301-12.44-23.102-21.7-32.359-6.43-6.461-13.17-12.024-20.21-16.672-7.03-4.629-14.58-9.168-22.63-13.629-16.09-8.492-33.42-12.75-51.92-12.801-18.56-0.031-37.08 2.672-55.63 8.07-18.53 5.41-36.07 13.02-52.59 22.852-16.53 9.84-30.65 20.578-42.34 32.25l-4.26 6.039c-2.84 7.641-3.76 15.301-2.78 22.949 1.02 7.66 3.62 14.199 7.85 19.66 4.19 5.442 9.75 9.27 16.58 11.5 6.83 2.231 14.5 1.551 22.98-2.07 7.64-3.211 14.21-7.93 19.65-14.16 5.45-6.25 12.01-11.149 19.66-14.77 10.47-5.211 21.18-9.019 32.04-11.422 7.67-2.007 15.31-3.296 22.98-3.886 7.64-0.582 15.51-0.871 23.56-0.852 6.05 1.621 11.25 3.238 15.71 4.86 4.43 1.621 9.24 5.058 14.47 10.3 6.03 5.239 9.96 11.512 11.76 18.762 1.79 7.246 1.76 14.398-0.06 21.438-1.83 7.05-5.24 13.48-10.3 19.32-5.04 5.82-11.2 9.75-18.44 11.74-14.13 4.81-28.22 8.49-42.32 11.12-14.12 2.57-27.81 5.67-41.1 9.27-13.31 3.61-25.93 8.71-37.8 15.33-11.89 6.64-22.89 16.16-32.99 28.65-5.64 6.83-9.29 12.86-10.91 18.1-1.62 5.23-3.45 11.87-5.47 19.93-3.65 19.32-2.17 35.64 4.43 48.95 6.62 13.3 14.96 25.39 25.03 36.3 12.85 14.11 27.44 24.91 43.73 32.39 16.3 7.5 33.4 12.36 51.35 14.6 17.88 2.26 36.01 1.9 54.35-1.1 18.32-2.98 35.78-8.09 52.3-15.31 9.67-4.01 15.84-10.23 18.47-18.68s2.75-16.72 0.35-24.78c-2.4-8.07-7.03-14.71-13.86-19.97-6.84-5.25-14.88-7.07-24.14-5.47-9.7 1.99-18.76 4.09-27.21 6.28-8.48 2.2-16.93 4.1-25.41 5.71-6.43 1.18-13.38 1.37-20.84 0.55-7.44-0.83-14.5-2.15-21.13-3.97-6.66-1.82-12.79-3.85-18.44-6.06-5.61-2.25-9.84-4.56-12.67-6.99-3.22-2.83-6.32-6.46-9.32-10.89-3.01-4.44-4.72-9.48-5.13-15.12-0.78-6.85 1.85-12.48 7.9-16.9s12.51-7.63 19.34-9.62c13.31-2.8 27-5.51 41.1-8.09 14.12-2.6 28.02-6.19 41.73-10.79 13.69-4.61 26.49-10.53 38.38-17.75 11.9-7.24 22.09-16.88 30.6-28.94 9.26-10.47 15.94-22.33 19.97-35.62 4.05-13.288 5.61-26.569 4.63-39.87zm-395.57-75.969c-3.24-7.461-9.87-13.199-19.91-17.262-7.24-2.82-15.81-4.66-25.68-5.48-9.86-0.82-19.74-1.149-29.58-0.969-9.89 0.192-19.07 0.578-27.52 1.172-8.45 0.578-14.91 0.867-19.34 0.859l-35.62-0.062c-8.48-0.027-15.72 2.301-21.77 6.902-6.05 4.617-10.39 10.141-13.02 16.598-2.64 6.422-3.27 13.281-1.86 20.543 1.39 7.25 5.12 13.887 11.15 19.949 5.61 5.649 13.05 8.891 22.34 9.707 9.26 0.813 18.52 0.844 27.79 0.063l-0.47 239.26c-9.26-0.01-17.91 0.06-25.99 0.24-8.04 0.19-16.09 3.08-24.16 8.71-6.05 4.42-10.11 9.56-12.13 15.41-2.03 5.81-2.32 11.66-0.93 17.52 1.39 5.83 4.11 11.38 8.14 16.63 3.99 5.22 9.02 9.07 15.07 11.5 5.62 2.42 11.46 3.65 17.51 3.67 20.55 0.04 41.19 0.15 61.94 0.41 20.72 0.24 41.59 0.16 62.52-0.18 2.03 0 3.94-0.6 5.76-1.8 1.79-1.22 3.7-2.23 5.73-3.01 9.29-5.22 15.54-12.66 18.78-22.33 3.25-9.65 2.06-19.13-3.58-28.39-2.81-4.85-6.31-8.59-10.54-11.22-4.23-2.62-8.85-4.44-13.89-5.46-5.04-1.01-10.19-1.53-15.4-1.54-5.24 0-10.28-0.02-15.11-0.03l0.46-240.48c3.22 0.019 6.14 0.121 8.75 0.34 2.63 0.199 5.55 0.5 8.77 0.918h4.22c10.48-0.368 19.13-3.477 25.99-9.297 6.86-5.832 11.29-12.59 13.35-20.231 2.02-7.64 1.41-15.199-1.77-22.66zm-297.16 115.74c-4.8-17.731-12.01-34.36-21.65-49.868-9.64-15.543-21.3-29.351-34.96-41.461-13.7-12.109-28.97-22.222-45.88-30.293-14.88-6.879-30.68-11.937-47.41-15.199-16.7-3.25-33.11-6.117-49.23-8.559-8.05-1.218-16.59-2.539-25.64-3.968-9.06-1.422-17.83-2.141-26.28-2.16l-4.23 0.578c-10.48 2.019-19.48 6.82-26.92 14.441-7.5 7.668-11.23 17.109-11.26 28.399l-0.46 254.37c-7.27-1.23-14.3-0.34-21.16 2.67-6.86 3.02-12.3 7.02-16.32 12.06-4.05 5.03-6.37 10.85-6.98 17.51-0.63 6.64 1.48 12.98 6.29 19.05 5.2 6.85 11.46 12.6 18.69 17.26 7.27 4.62 14.91 8.46 22.95 11.52 8.05 3.04 16.41 5.56 25.07 7.6 8.65 2.02 16.99 3.85 25.06 5.48 22.55 3.66 45.1 4.62 67.67 2.84 22.55-1.77 43.91-6.66 64.08-14.67 20.15-8.04 38.59-19.27 55.34-33.74 16.73-14.47 30.37-32.57 40.87-54.3 6.48-13.28 11.15-27.07 13.98-41.36 2.83-14.3 4.48-28.7 4.92-43.2 0.43-18.94-1.73-37.26-6.54-55zm3108.3 475.74h-3806.7c-75.539 0-136.78-61.24-136.78-136.77v-538.58c0-75.551 61.242-136.78 136.78-136.78h3806.7c75.54 0 136.76 61.23 136.76 136.78v538.58c0 75.53-61.22 136.77-136.76 136.77"/>
  </g>
 </g>
</svg>
