<?xml version="1.0" encoding="UTF-8"?>
<!-- Created with Inkscape (http://www.inkscape.org/) -->
<svg width="1507.8" height="371.56" version="1.1" viewBox="0 0 1507.8 371.56" xmlns="http://www.w3.org/2000/svg">
 <g transform="matrix(1.3333 0 0 -1.3333 0 371.56)">
  <g transform="scale(.1)" fill="#fff">
   <path d="m3519.4 1635.7h126.49v-376.73h226.44v-108.83h-352.93v485.56"/>
   <path d="m3894 1635.7h386.99v-101.32h-260.49v-84.98h238.02v-97.91h-238.02v-92.52h267.28v-108.83h-393.78v485.56"/>
   <path d="m4767.3 1150.1h-81.61l-7.46 53.05c-33.34-46.88-90.45-63.22-135.33-63.22-146.91 0-242.11 112.16-242.11 252.95s95.2 253.03 242.11 253.03c100.66 0 208.06-53.72 219.65-175.47h-126.49c-4.1 41.44-44.9 66.65-95.91 66.65-81.6 0-112.9-72.11-112.9-144.21 0-72.11 31.3-144.13 112.9-144.13 62.6 0 104.74 29.22 111.53 73.4h-88.4v93.9h204.02v-265.95"/>
   <path d="m5028.4 1248.8c81.61 0 112.87 72.03 112.87 144.13s-31.26 144.21-112.87 144.21c-81.6 0-112.86-72.11-112.86-144.21s31.26-144.13 112.86-144.13m0 397.16c153.01 0 239.4-112.24 239.4-253.03s-86.39-252.95-239.4-252.95c-153 0-239.4 112.16-239.4 252.95s86.4 253.03 239.4 253.03"/>
   <path d="m3532.9 1013.9h126.49v-376.74h226.49v-108.83h-352.98v485.57"/>
   <path d="m3907.7 1013.9h386.94v-101.33h-260.45v-84.98h238.03v-97.91h-238.03v-92.52h267.25v-108.83h-393.74v485.57"/>
   <path d="m4472.8 709.26h110.16l-53.73 170.01h-1.37zm-8.17 304.63h128.5l181.59-485.56h-131.92l-29.92 87.027h-169.34l-30.59-87.027h-129.91l181.59 485.56"/>
   <path d="m5218.8 528.33h-81.61l-7.5 53.059c-33.3-46.903-90.45-63.231-135.3-63.231-146.91 0-242.14 112.15-242.14 252.94 0 140.8 95.23 253.03 242.14 253.03 100.62 0 208.07-53.72 219.61-175.46h-126.45c-4.08 41.43-44.89 66.637-95.91 66.637-81.6 0-112.9-72.098-112.9-144.21 0-72.102 31.3-144.12 112.9-144.12 62.57 0 104.75 29.211 111.53 73.399h-88.43v93.859h204.06v-265.91"/>
   <path d="m5678.5 728.99c0-140.8-64.59-210.85-211.51-210.85-146.87 0-211.48 70.05-211.48 210.85v284.92h126.49v-292.42c0-62.558 23.1-94.488 84.99-94.488 61.93 0 85.02 31.93 85.02 94.488v292.42h126.49v-284.92"/>
   <path d="m5722.1 1013.9h386.98v-101.33h-260.45v-84.98h237.99v-97.91h-237.99v-92.52h267.24v-108.83h-393.77v485.57"/>
   <path d="m5296.7 1570.7c3.85 0 5.97 1.81 5.97 5.31 0 3.37-1.93 5.26-5.85 5.26-0.83 0-0.99 0-1.81-0.16v-10.25c0.63-0.16 0.98-0.16 1.69-0.16m-15.6 20.81c2.2 0.12 2.51 0.24 6.84 0.6 4.43 0.35 6.28 0.55 8.05 0.55 14.26 0 21.29-5.58 21.29-16.11 0-6.39-2.68-10.16-8.33-12.37l-0.71-0.23c0.47-0.32 0.71-0.47 0.86-0.82 1.46-1.3 6.49-8.8 10.69-15.72h-16.26c-3.29 6.17-4.32 7.9-8.52 14.85v-14.85h-13.91zm16.85-60.2c21.09 0 37.9 16.93 37.9 37.82 0 21.17-16.81 38.1-37.9 38.1-21.01 0-37.98-16.93-37.98-37.9 0-21.24 16.78-38.02 37.98-38.02m0 81.3c23.88 0 43.32-19.33 43.32-43.28 0-24.08-19.29-43.36-43.32-43.36-24.38 0-43.35 18.93-43.35 43.36 0 24.11 19.16 43.28 43.35 43.28"/>
   <path d="m3636.4 2277.6h343.82l-32.4-132.38h-164.78l-16.26-69.59h171.89l-29.93-122.65h-169.69l-40.73-174.29h-177.63l115.71 498.91"/>
   <path d="m4026.9 2277.6h177.62l-115.69-498.91h-177.63l115.7 498.91"/>
   <path d="m4382.2 2039.7c57.03 0 96.96 33.65 96.96 81.52 0 25.45-18.73 38.18-55.41 38.18-10.6 0-16.3-0.75-27.72-3.03l-26.87-115.19c5.69-0.74 6.52-1.48 13.04-1.48m-131.16 234.88 11.42 1.5c56.98 6.7 127.87 11.19 166.98 11.19 65.16 0 115.7-7.46 153.99-23.18 48.89-20.18 78.23-64.32 78.23-117.42 0-45.63-15.51-89.03-44.84-122.68-25.26-29.18-48.08-43.36-95.32-57.57l-11.39-3.73c4.87-3.78 6.48-5.27 8.95-7.51 13.87-15.71 55.41-96.49 90.45-176.53h-195.57c-25.22 71.05-32.56 89.78-65.98 170.56l-39.08-170.56h-172.72l114.88 495.93"/>
   <path d="m5083.3 2277.6h430.93l-30.12-144.43h-127.87l-84.76-354.48h-177.62l84.75 354.48h-138.63l43.32 144.43"/>
   <path d="m5353.4 1825.9c3.85 0 6 1.84 6 5.38 0 3.34-1.96 5.19-5.85 5.19-0.83 0-0.98 0-1.84-0.16v-10.25c0.66-0.16 1.01-0.16 1.69-0.16m-15.6 20.77c2.24 0.16 2.56 0.31 6.88 0.68 4.35 0.31 6.2 0.5 8.04 0.5 14.22 0 21.25-5.54 21.25-16.1 0-6.36-2.67-10.22-8.33-12.37l-0.66-0.2c0.47-0.31 0.66-0.47 0.82-0.82 1.49-1.34 6.52-8.88 10.72-15.75h-16.26c-3.33 6.21-4.35 7.89-8.55 14.92v-14.92h-13.91zm16.77-60.13c21.09 0 38.02 16.94 38.02 37.86 0 21.1-16.93 38.02-38.02 38.02-20.93 0-37.85-16.92-37.85-37.86 0-21.28 16.73-38.02 37.85-38.02m0 81.22c23.92 0 43.4-19.24 43.4-43.2 0-24.11-19.29-43.4-43.4-43.4-24.31 0-43.23 18.94-43.23 43.4 0 24.11 19.12 43.2 43.23 43.2"/>
   <path d="m4627 1791.4c49.91-14.85 104.54-23.18 155.56-23.18 69.24 0 122.22 15.72 167.81 48.63 50.5 35.93 83.14 91.27 83.14 141.38 0 33.65-14.69 64.32-40.73 86.04-20.42 16.42-41.59 29.14-84.74 49.37l-35.08 16.45c-11.39 5.97-17.08 11.93-17.08 18.69 0 17.95 22.82 31.42 53.77 31.42 23.16 0 50.73-6.75 103.51-24l36.41 135.06c-39.47 10.72-77.92 16.11-116.29 16.11-145.03 0-256.64-79.3-256.64-181.79 0-53.85 35.86-91.98 125.44-133.89 42.37-19.43 49.72-24.69 49.72-38.12 0-20.23-21.99-32.91-57.85-32.91-31.77 0-72.53 9.69-127.95 29.88h-0.04l-38.96-139.14"/>
   <path d="m9852.8 1203c-4.84 12.26-13.82 22.91-26.91 32.04-22.76 13.66-47.66 21.35-74.72 23.04-27.04 1.72-53.07-1.99-78.1-11.09v-192.98c25.59 1.71 50.79 4.99 75.54 9.83 24.77 4.82 47.69 15.51 68.76 32.01 11.38 9.1 20.62 19.78 27.76 32.03 7.11 12.23 11.35 24.76 12.79 37.56 1.43 12.8-0.3 25.33-5.12 37.56"/>
   <path d="m8174.2 1243.6c-23.9 9.69-48.22 12.53-73.01 8.55-24.76-3.99-48.81-11.39-72.14-22.2v-186.14c26.76-4.55 54.08-5.69 81.96-3.41 27.9 2.26 53.5 10.79 76.85 25.61 16.5 10.81 27.89 24.46 34.15 40.99 6.27 16.51 8.57 33.29 6.84 50.37-1.72 17.08-7.41 33.44-17.07 49.11-9.69 15.63-22.21 28.02-37.58 37.12"/>
   <path d="m9264.1 1217.5c-16.22 12.26-34.02 20.78-53.39 25.63-19.33 4.82-38.83 5.83-58.47 2.99-19.64-2.86-37.14-10.53-52.52-23.06-21.61-18.23-39.13-38.58-52.51-61.05-13.38-22.5-23.49-47.39-30.32-74.71-5.68-21.65-8.82-44.4-9.37-68.32-0.57-23.91 3.1-46.672 11.08-68.309 6.27-15.929 15.51-30.441 27.76-43.543 12.23-13.109 26.04-23.339 41.41-30.726 15.37-7.41 31.72-11.531 49.11-12.402 17.35-0.84 34.57 2.429 51.64 9.839 17.08 7.379 32.04 17.219 44.83 29.442 12.8 12.258 24.05 25.758 33.72 40.558 9.68 14.813 17.8 30.61 24.35 47.391 6.55 16.79 12.38 33.72 17.5 50.8 3.42 21.63 5.25 43.83 5.55 66.62 0.29 22.76-4.42 44.41-14.09 64.89-7.98 17.08-20.06 31.72-36.28 43.96"/>
   <path d="m10310 1101c20.4 1.14 40.9 2.56 61.4 4.28 9.1 0.56 18.3 1.41 27.3 2.55 9.2 1.15 18.6 1.15 28.3 0 12.4-1.69 22.1-6.83 28.9-15.36 6.9-8.55 11-18.08 12.4-28.6 1.5-10.54-0.4-20.92-5.5-31.16-5.1-10.27-13.4-17.65-24.8-22.2-9.7-4-22.7-6.99-39.3-8.98-16.5-2-33.8-3.41-52-4.25-18.3-0.879-36.2-1.281-53.8-1.281-17.7 0-32.5 0.269-44.4 0.84v-105.03c31.3-3.98 62.9-4.551 94.7-1.691 31.9 2.832 63.2 8.23 94 16.211h6c10.2-0.582 19.2-3.27 26.9-8.121 7.6-4.852 13.9-10.68 18.7-17.489 4.9-6.832 7.7-14.671 8.6-23.48 0.8-8.852-1-17.801-5.6-26.91-1.7-3.969-5.2-8.68-10.6-14.082-5.5-5.418-10.4-8.688-15-9.828-36.4-10.789-73.9-17.493-112.3-20.051-38.4-2.559-76.4-1.852-114 2.129-10.8 1.14-22.6 2.281-35.4 3.429-12.8 1.141-24.1 4.821-33.7 11.082-17.7 11.391-26.5 27.598-26.5 48.68v363.73c-6.3 4.55-11.4 10.25-15.4 17.08-3.9 6.84-6.4 14.08-7.2 21.77-0.9 7.68 0.1 15.09 3 22.2 2.8 7.11 7.7 13.23 14.5 18.36 11.4 9.1 24.5 15.22 39.2 18.36 14.9 3.12 29.4 5.83 43.6 8.11 29.6 4.55 59.2 6.84 88.8 6.84s59.8 0.27 90.5 0.85c9.1 0 19.6 0.7 31.6 2.14 12 1.42 22.5 0.41 31.6-2.99 10.8-4.01 19.3-10.25 25.6-18.8 6.3-8.53 10-17.65 11.1-27.32 1.1-9.68-0.7-19.06-5.5-28.17-4.9-9.11-13.3-16.22-25.2-21.35-14.3-5.69-29.5-8.25-45.7-7.68-16.2 0.55-31.7 0.85-46.5 0.85-21.7 0-43.3-0.3-64.9-0.85-21.7-0.57-43.3-2.29-64.9-5.12v-118.7c20.5-1.14 41-1.14 61.5 0zm-329.59-306.95c-5.4-8.821-11.95-15.661-19.65-20.481-7.67-4.848-16.06-7.269-25.17-7.269-9.13 0-18.22 3.128-27.33 9.402-10.25 7.969-19.92 17.367-29.03 28.16-9.12 10.816-17.95 20.777-26.48 29.898-18.79 20.489-37.14 41.098-55.06 61.899-17.92 20.781-36.28 41.121-55.08 61.062-11.39-2.281-22.9-3.851-34.56-4.722-11.69-0.848-23.21-1.848-34.59-2.969v-127.22c-1.73-14.25-7.7-25.91-17.93-35.031-10.28-9.09-21.36-14.93-33.3-17.488-11.98-2.563-22.92-1.282-32.88 3.84-9.98 5.117-15.24 15.367-15.81 30.73-2.86 65.457-4.24 133.33-4.24 203.65v209.63c-9.13 3.41-15.96 8.53-20.52 15.36-4.55 6.84-7.24 14.37-8.11 22.63-0.85 8.23 0.13 16.65 2.99 25.17 2.82 8.56 7.12 15.94 12.79 22.21 6.27 6.83 14.8 13.1 25.64 18.79 10.8 5.69 22.62 10.95 35.45 15.79 12.79 4.84 25.46 8.98 37.99 12.39 12.51 3.41 23.04 5.98 31.59 7.69 35.84 7.39 71.99 7.25 108.44-0.43 36.42-7.69 68.43-21.49 96.03-41.41 27.63-19.93 48.24-45.84 61.93-77.7 13.66-31.9 15.05-68.32 4.27-109.29-3.43-11.4-7.68-22.79-12.82-34.15-5.14-11.41-11.09-21.93-17.93-31.6-9.67-14.81-21.05-27.89-34.15-39.28-13.11-11.4-27.32-21.92-42.7-31.589 10.83-11.39 21.06-23.351 30.74-35.882 9.68-12.52 20.51-23.887 32.45-34.149 4.56-3.969 11.24-10.238 20.06-18.769 8.83-8.551 17.37-17.641 25.63-27.313 8.22-9.699 15.5-19.238 21.77-28.637 6.26-9.371 9.09-17.211 8.54-23.472-0.56-10.821-3.56-20.617-8.97-29.449zm-570.34 224.15c-9.67-31.9-22.05-63.061-37.12-93.51-15.1-30.461-33.44-57.64-55.08-81.551-21.64-23.89-46.82-43.257-75.57-58.05-28.75-14.797-61.62-22.2-98.61-22.2-23.91 1.141-42.84 3.262-56.79 6.403-13.94 3.129-27.47 7.816-40.56 14.078-23.33 6.84-43.41 17.789-60.2 32.879-16.78 15.07-30.9 32.582-42.24 52.511-11.42 19.918-20.07 41.11-26.06 63.61-5.98 22.488-9.82 44.25-11.53 65.308-2.86 37.022 0.3 74.582 9.38 112.71 9.11 38.14 23.64 73.3 43.57 105.47 19.92 32.14 44.95 59.77 75.12 82.8 30.19 23.07 64.6 38.3 103.34 45.71 19.92 3.41 40.12 4.55 60.61 3.41 20.51-1.15 40.42-5.12 59.78-11.97 15.92-5.68 30.73-12.24 44.41-19.64 13.64-7.4 26.74-16.79 39.27-28.16 16.48-14.81 30.43-31.89 41.84-51.23 11.35-19.37 19.63-39.58 24.75-60.64 6.24-26.76 9.1-53.22 8.54-79.39-0.58-26.2-2.86-52.38-6.85-78.55zm-601.91-216.47c-7.13-8.828-18.08-15.5-32.87-20.07-5.7-1.688-13.68-2.688-23.91-2.969-10.26-0.301-24.49-0.441-42.7-0.441h-69.15c-27.92 0-62.33-0.27-103.34-0.84-10.23-0.57-20.79-0.879-31.57-0.879-10.84 0-20.23 3.719-28.18 11.121-6.84 5.688-11.82 14.348-14.93 26.039-3.16 11.66-5.15 23.91-6 36.719-0.84 12.801-1.15 25.601-0.84 38.41 0.27 12.82 0.41 23.5 0.41 32.02 0 17.082 0.12 36.722 0.43 58.921 0.28 22.2 0.58 44.83 0.85 67.88 0.3 23.06 0.43 45.67 0.43 67.88v58.92c0 30.17 0.28 54.5 0.85 73.01 0.56 18.47 1.84 32.99 3.87 43.54 1.96 10.54 5.24 18.22 9.81 23.06 4.53 4.82 10.8 8.96 18.8 12.37 6.8 2.86 14.33 3.85 22.59 3 8.26-0.84 15.94-3.13 23.07-6.84 7.11-3.71 13.08-8.83 17.93-15.36 4.82-6.56 7.27-13.81 7.27-21.77 1.12-68.31 1.12-136.07 0-203.22-1.18-67.17-1.72-134.37-1.72-201.51 35.85 0 71.58 0.411 107.16 1.278 35.56 0.84 71.58 1.84 108 2.972l5.14-1.691c13.08-6.289 23.05-14.238 29.88-23.91 6.83-9.699 10.09-19.512 9.81-29.481-0.31-9.937-3.98-19.328-11.09-28.16zm-494.35 257.43c-13.1-26.17-31.47-49.25-55.08-69.161-23.61-19.93-51.37-34.449-83.24-43.547-23.92-6.813-48.22-10.102-72.99-9.813-24.77 0.282-49.11 1.86-73.01 4.692v-82.801c0-6.301 0.29-12.828 0.85-19.648 0.55-6.832 0.71-13.661 0.43-20.512-0.3-6.809-1.16-13.512-2.56-20.051-1.42-6.527-4.14-12.648-8.1-18.348-6.84-11.382-15.68-18.363-26.48-20.929-10.82-2.551-21.23-1.981-31.16 1.699-9.97 3.719-18.52 9.969-25.62 18.789-7.12 8.828-10.7 19.5-10.7 32.031v153.69c-10.8 5.691-18.76 12.801-23.89 21.351-5.12 8.52-7.4 17.21-6.83 26.04 0.55 8.83 3.41 17.22 8.52 25.19 5.16 7.95 12.27 14.53 21.36 19.64v218.59l0.84 5.11c1.72 6.24 4.56 12.38 8.57 18.36 3.97 5.97 8.65 11.23 14.07 15.8 5.42 4.54 11.39 7.83 17.95 9.81 6.51 1.99 13.21 1.85 20.04-0.41 21.07 8.52 42.57 15.64 64.48 21.34 21.9 5.68 43.83 8.95 65.75 9.82 21.9 0.85 43.54-1.14 64.89-5.99 21.34-4.84 41.97-13.81 61.91-26.89 15.94-10.23 30.01-23.07 42.26-38.43 12.23-15.36 22.32-31.59 30.3-48.67 13.68-30.72 19.94-61.34 18.8-91.79-1.16-30.46-8.27-58.79-21.36-84.96zm-639.47-19.64c8.82-10.81 18.49-22.91 29.03-36.28 10.52-13.382 21.19-27.62 32.01-42.679 10.82-15.09 21.06-29.609 30.74-43.562 9.68-13.938 18.07-27.039 25.2-39.27 7.11-12.258 12.08-22.34 14.92-30.32 4.55-13.098 4.73-25.188 0.43-36.289-4.27-11.102-10.8-19.91-19.62-26.469-8.83-6.531-19.1-9.801-30.76-9.801-11.65 0-22.9 4.821-33.72 14.489-9.09 7.98-17.07 19.07-23.92 33.32-6.81 14.211-13.64 26.473-20.48 36.711-14.23 21.629-29.03 42.551-44.4 62.75-15.35 20.219-31.31 40.262-47.83 60.199-15.94-19.937-32.31-39.41-49.08-58.48-16.79-19.09-33.44-38-49.95-56.789-4.55-5.11-10.1-11.961-16.65-20.481-6.57-8.551-13.53-17.238-20.9-26.039-7.42-8.859-14.83-16.941-22.21-24.352-7.41-7.386-14.24-12.226-20.51-14.519-10.82-4.551-21.34-5.539-31.57-2.969-10.28 2.559-18.8 7.25-25.63 14.09-6.84 6.82-11.53 15.359-14.09 25.59-2.56 10.238-1.56 20.781 2.99 31.601 4.55 11.391 11.23 21.188 20.06 29.481 8.83 8.226 17.21 16.91 25.19 26.027 22.77 26.75 45.54 53.371 68.32 79.84 22.74 26.481 45.54 53.351 68.3 80.681-19.92 25.62-40.28 50.8-61.05 75.55-20.79 24.79-42.84 48.55-66.18 71.31-2.28 2.27-5.85 5.27-10.67 8.97-4.85 3.7-9.84 7.98-14.96 12.8-5.11 4.84-9.95 9.67-14.5 14.52-4.56 4.85-8.26 9.53-11.08 14.07-5.71 10.82-7.7 21.94-5.99 33.31 1.69 11.39 6.11 21.21 13.23 29.48 7.11 8.23 16.09 13.51 26.91 15.77 10.82 2.28 22.19 0 34.15-6.81 9.67-6.29 18.49-13.24 26.47-20.92 7.96-7.68 15.92-15.52 23.9-23.47 22.76-22.21 44.38-45.14 64.89-68.75 20.5-23.62 40.7-47.97 60.61-73 7.98 9.67 15.93 19.2 23.91 28.59 7.98 9.4 15.66 18.94 23.08 28.61 15.37 20.5 30.16 40.84 44.4 61.06 14.22 20.19 28.17 41.11 41.83 62.77 10.25 10.23 21.34 15.63 33.28 16.21 11.97 0.56 22.79-2.01 32.44-7.7 9.71-5.68 16.96-14.08 21.79-25.18 4.84-11.09 4.71-23.49-0.43-37.13-3.96-9.7-8.96-18.8-14.92-27.33-5.99-8.54-11.82-16.79-17.52-24.77-18.8-28.47-38.29-55.79-58.48-81.97-20.2-26.18-40.85-52.09-61.9-77.71 5.11-5.69 12.1-13.95 20.92-24.76zm-676.2 61.48c20.47 1.14 40.99 2.56 61.48 4.28 9.08 0.56 18.21 1.41 27.32 2.55 9.09 1.15 18.5 1.15 28.19 0 12.51-1.69 22.19-6.83 29.01-15.36 6.83-8.55 10.97-18.08 12.38-28.6 1.43-10.54-0.44-20.92-5.55-31.16-5.12-10.27-13.38-17.65-24.76-22.2-9.7-4-22.77-6.99-39.27-8.98-16.5-2-33.89-3.41-52.09-4.25-18.23-0.879-36.16-1.281-53.79-1.281-17.65 0-32.44 0.269-44.41 0.84v-105.03c31.32-3.98 62.91-4.551 94.79-1.691 31.88 2.832 63.18 8.23 93.92 16.211h5.97c10.25-0.582 19.23-3.27 26.9-8.121 7.7-4.852 13.93-10.68 18.78-17.489 4.85-6.832 7.68-14.671 8.55-23.48 0.84-8.852-1-17.801-5.56-26.91-1.71-3.969-5.24-8.68-10.66-14.082-5.42-5.418-10.4-8.688-14.95-9.828-36.42-10.789-73.85-17.493-112.29-20.051-38.41-2.559-76.4-1.852-113.99 2.129-10.82 1.14-22.61 2.281-35.42 3.429-12.83 1.141-24.08 4.821-33.75 11.082-17.64 11.391-26.45 27.598-26.45 48.68v363.73c-6.29 4.55-11.41 10.25-15.37 17.08-3.98 6.84-6.4 14.08-7.25 21.77-0.87 7.68 0.13 15.09 2.97 22.2 2.86 7.11 7.7 13.23 14.51 18.36 11.38 9.1 24.5 15.22 39.29 18.36 14.8 3.12 29.3 5.83 43.54 8.11 29.6 4.55 59.19 6.84 88.79 6.84 29.62 0 59.8 0.27 90.53 0.85 9.08 0 19.64 0.7 31.59 2.14 11.97 1.42 22.46 0.41 31.6-2.99 10.82-4.01 19.33-10.25 25.6-18.8 6.27-8.53 9.97-17.65 11.1-27.32 1.13-9.68-0.71-19.06-5.55-28.17s-13.23-16.22-25.2-21.35c-14.2-5.69-29.44-8.25-45.66-7.68-16.22 0.55-31.74 0.85-46.54 0.85-21.64 0-43.27-0.3-64.89-0.85-21.64-0.57-43.26-2.29-64.9-5.12v-118.7c20.5-1.14 41.01-1.14 61.49 0zm3665.8 546.14h-4016.7c-98.23 0-177.85-79.62-177.85-177.83v-792.04c0-98.218 79.62-177.83 177.85-177.83h4016.7c98.3 0 177.9 79.61 177.9 177.83v792.04c0 98.21-79.6 177.83-177.9 177.83"/>
   <path d="m2561.5 673.14-166.24 159.61c65.28 44.719 120.6 97.191 163.2 155.56 0.6 0.839 1.14 1.722 1.74 2.562l404.26 419.8 12.04 12.91 52.82 54.95-493.8 474.03-111.04-115.51-122.33-127.53-83.41-86.87-157.21-163.78 0.08-0.08-13.6-14.17 45.83-43.9 212.76-207.46c-46.56-44.04-105.73-81.84-172.48-109.62-0.08-0.04-0.12-0.04-0.12-0.04l-140.45 134.81-137.85 132.4-93.81 88.9 222.9 232.17 111.95 116.61 121.66 126.67 304.01 316.61 800.26-765.99zm103.11 672.84c3.61 23.73 5.63 47.13 5.63 69.72 0 132.65-60.11 272.54-161.09 376.91l26.37 27.35 408.98-392.67-338.65-352.64c35.98 83.56 59.25 186.74 59.25 260.73 0 3.13-0.23 6.78-0.49 10.6zm-340.02-134.77-193.03 188.07 163.46 170.31c58.22-48.5 101.2-106.45 123.98-170.12-1.4-10.44-3.16-20.85-5.72-31.35-13.79-56.36-43.7-109.06-88.69-156.91zm-32.09-281.08c-29.79-15.199-61.49-28.918-94.11-40.957-111.97-41.383-232.8-62.293-358.99-62.293-178.91 0-348.22 42.48-489.66 123.02-78.21 44.481-143.92 98.422-195.2 160.37-19.65 23.71-36.96 48.35-51.59 73.39-30.12 51.48-50.03 105.66-59.14 161.06-4.05 24.69-6.06 47.89-6.06 70.98 0 85.64 24.58 168.15 73.14 245.41l130.12-131.69c-8.86-30.22-13.31-60.95-13.31-91.43 0-25.37 3.14-51.17 9.39-76.85 8.84-36.04 24.07-71.4 45.24-105.05 16.76-26.67 37.23-52.01 60.7-75.51 64.56-64.4 152.16-115.19 253.36-146.73 76.83-23.9 158.57-36.049 243.01-36.049 68.16 0 135.52 8.119 200.26 24.119 36.8 9.22 72.47 20.92 105.69 34.67 76.55 31.9 143.96 76.32 194.93 128.52 51.74 53.07 85.88 112.36 101.43 176.1 6.25 25.8 9.45 51.59 9.45 76.78 0 72.45-27.32 154.5-71.82 217.22l110.76 115.29c94.72-98.77 150.89-230.34 150.89-354.8 0-22.94-2.06-46.78-6.03-70.98-17.11-104.4-72.54-203.93-160.25-287.67-51.44-49.12-112.71-91.788-182.21-126.92zm-1277.5 409.78c0.14-0.91 0.46-1.78 0.59-2.74-0.35-3.73-0.59-7.2-0.59-9.94 0-39.09 23.96-131.91 33.64-168.98 0-0.04 0.04-0.08 0.04-0.11l-127.15-54.38 121.26 631.85 49.78-49.23c-55.63-84.76-84.03-175.76-84.03-270.68 0-24.64 2.09-49.5 6.46-75.79zm296.7-74.6c-1.45 2.14-3.2 4.15-4.59 6.33-19.49 31.01-33.52 63.51-41.57 96.48-0.86 3.49-1.22 7.01-1.99 10.5 9.48 33.2 24.47 65.05 44.1 94.99l154.51-152.94zm586.39-87.86 132.82-127.49c-61.88-15.2-126.31-22.94-191.5-22.94-81.46 0-160.34 11.7-234.27 34.79-9.89 3.05-19.5 6.48-29.1 9.91l294.34 132.36zm-1297.5-526.23 285.3 1589.5 407.33-386.01 127.62-120.95 97.53-92.42 231.46-220.66v-100.71l98.41-94.57-307.43-139.87c-69.41 29.37-129.89 68.78-177.06 115.91-1.03 0.98-1.92 2.2-3.02 3.32l235.89 110.14-554.72 516.57-10.95 11.01-13.28-71.57-130.96-682.82-20.266-106.04 34.727 14.821 0.097 0.878 178.23 76.35c27.84-58.79 67.77-113.32 117.51-162.09zm1382.9 1054.4-238.02-247.88-209.1 198.17c89.8 39 195.25 61.67 308.2 61.67 47.85 0 94.31-4.27 138.92-11.96zm-171.5 322.99c129.17 0 301.81-33.14 411.35-73.1l-4.91-5.15-121.66-126.67-0.42-0.46c-76.54 25.61-161.74 39.99-251.78 39.99-157.15 0-299.82-43.64-405.94-114.7l-1.58 1.5-127.6 120.92-11.35 10.8c139.45 84.21 320.42 146.87 513.89 146.87zm1529-544.06v0.28l-0.15-0.13-818.35 782.27-275.29-286.74c-113.77 44.03-292.62 79.37-428.49 79.37-197.82 0-401.67-67.5-544.05-155.62l-383.86 363.75 0.04 0.43-0.418-0.04-0.254 0.2-0.078-0.24-137.28-14.39-296.36-1622.6 137.93-14.391 0.137 0.418 625.29 273.6c1.01-0.902 1.94-1.898 2.94-2.781 148.8-131.22 372.11-214.81 621.87-214.81 173.33 0 333.73 40.308 465.57 108.78l251.39-241.38 779.41 811.79v132.04l0.15 0.12-0.15 0.08"/>
  </g>
 </g>
</svg>
