<?xml version="1.0" encoding="UTF-8"?>
<!-- Created with Inkscape (http://www.inkscape.org/) -->
<svg width="1601.8" height="371.56" version="1.1" viewBox="0 0 1601.8 371.56" xmlns="http://www.w3.org/2000/svg">
 <g transform="matrix(1.3333 0 0 -1.3333 0 371.56)">
  <g transform="scale(.1)" fill="#fff">
   <path d="m3524.1 1635.7h126.52v-376.81h226.49v-108.84h-353.01v485.65"/>
   <path d="m3898.8 1635.7h387.06v-101.34h-260.54v-85h238.07v-97.93h-238.07v-92.54h267.33v-108.84h-393.85v485.65"/>
   <path d="m4772.2 1150.1h-81.62l-7.46 53.06c-33.35-46.9-90.46-63.23-135.36-63.23-146.94 0-242.16 112.18-242.16 252.99 0 140.82 95.22 253.09 242.16 253.09 100.67 0 208.1-53.74 219.7-175.51h-126.53c-4.08 41.44-44.9 66.66-95.93 66.66-81.62 0-112.92-72.12-112.92-144.24s31.3-144.15 112.92-144.15c62.62 0 104.77 29.22 111.57 73.41h-88.42v93.92h204.05v-266"/>
   <path d="m5033.4 1248.8c81.63 0 112.89 72.04 112.89 144.15 0 72.12-31.26 144.24-112.89 144.24-81.62 0-112.89-72.12-112.89-144.24 0-72.11 31.27-144.15 112.89-144.15m0 397.23c153.04 0 239.46-112.26 239.46-253.08 0-140.81-86.42-252.99-239.46-252.99-153.02 0-239.44 112.18-239.44 252.99 0 140.82 86.42 253.08 239.44 253.08"/>
   <path d="m3537.6 1013.8h126.53v-376.8h226.52v-108.85h-353.05v485.65"/>
   <path d="m3912.4 1013.8h387.02v-101.34h-260.5v-85h238.08v-97.93h-238.08v-92.527h267.29v-108.85h-393.81v485.65"/>
   <path d="m4477.7 709.12h110.19l-53.74 170.04h-1.37zm-8.16 304.69h128.52l181.62-485.65h-131.93l-29.93 87.039h-169.38l-30.6-87.039h-129.93l181.63 485.65"/>
   <path d="m5223.9 528.15h-81.62l-7.5 53.071c-33.31-46.899-90.46-63.239-135.32-63.239-146.94 0-242.2 112.18-242.2 253 0 140.82 95.26 253.08 242.2 253.08 100.63 0 208.1-53.732 219.66-175.5h-126.49c-4.08 41.441-44.89 66.652-95.92 66.652-81.62 0-112.92-72.121-112.92-144.23 0-72.121 31.3-144.16 112.92-144.16 62.57 0 104.76 29.231 111.56 73.418h-88.46v93.871h204.09v-265.96"/>
   <path d="m5683.7 728.85c0-140.81-64.62-210.89-211.57-210.89-146.9 0-211.52 70.078-211.52 210.89v284.98h126.52v-292.48c0-62.571 23.1-94.512 85-94.512 61.95 0 85.04 31.941 85.04 94.512v292.48h126.53v-284.98"/>
   <path d="m5727.2 1013.8h387.06v-101.34h-260.51v-85h238.04v-97.93h-238.04v-92.527h267.31v-108.85h-393.86v485.65"/>
   <path d="m5301.7 1570.8c3.85 0 5.97 1.81 5.97 5.3 0 3.38-1.92 5.27-5.85 5.27-0.82 0-0.98 0-1.81-0.16v-10.25c0.64-0.16 0.99-0.16 1.69-0.16m-15.59 20.82c2.21 0.12 2.52 0.23 6.83 0.59 4.45 0.35 6.29 0.55 8.06 0.55 14.26 0 21.29-5.58 21.29-16.11 0-6.4-2.68-10.17-8.33-12.37l-0.7-0.23c0.47-0.32 0.7-0.48 0.86-0.83 1.45-1.3 6.48-8.8 10.68-15.71h-16.26c-3.3 6.17-4.32 7.89-8.53 14.85v-14.85h-13.9zm16.85-60.21c21.1 0 37.9 16.92 37.9 37.82 0 21.17-16.8 38.1-37.9 38.1-21.01 0-37.98-16.93-37.98-37.9 0-21.25 16.77-38.02 37.98-38.02m0 81.3c23.88 0 43.32-19.32 43.32-43.28 0-24.08-19.28-43.37-43.32-43.37-24.39 0-43.37 18.93-43.37 43.37 0 24.11 19.17 43.28 43.37 43.28"/>
   <path d="m3641.1 2277.7h343.89l-32.41-132.41h-164.81l-16.27-69.6h171.93l-29.93-122.68h-169.73l-40.73-174.32h-177.66l115.72 499.01"/>
   <path d="m4031.7 2277.7h177.67l-115.72-499.01h-177.66l115.71 499.01"/>
   <path d="m4387.1 2039.8c57.04 0 96.98 33.66 96.98 81.54 0 25.45-18.73 38.18-55.42 38.18-10.61 0-16.3-0.75-27.74-3.02l-26.86-115.21c5.69-0.75 6.52-1.49 13.04-1.49m-131.2 234.93 11.44 1.49c56.99 6.72 127.89 11.2 167.01 11.2 65.17 0 115.72-7.47 154.02-23.18 48.9-20.19 78.25-64.34 78.25-117.45 0-45.64-15.52-89.04-44.87-122.71-25.25-29.18-48.07-43.36-95.33-57.58l-11.38-3.73c4.87-3.77 6.48-5.26 8.95-7.5 13.87-15.71 55.42-96.51 90.46-176.57h-195.62c-25.21 71.06-32.55 89.8-65.98 170.59l-39.08-170.59h-172.76l114.89 496.03"/>
   <path d="m5088.3 2277.7h431.01l-30.13-144.47h-127.9l-84.76-354.54h-177.66l84.77 354.54h-138.66l43.33 144.47"/>
   <path d="m5358.5 1826c3.85 0 6.02 1.85 6.02 5.38 0 3.34-1.97 5.18-5.86 5.18-0.82 0-0.98 0-1.85-0.16v-10.24c0.68-0.16 1.03-0.16 1.69-0.16m-15.59 20.78c2.24 0.15 2.55 0.31 6.87 0.66 4.37 0.32 6.21 0.51 8.06 0.51 14.22 0 21.25-5.53 21.25-16.1 0-6.36-2.68-10.21-8.33-12.38l-0.67-0.19c0.47-0.31 0.67-0.47 0.82-0.83 1.5-1.33 6.53-8.87 10.73-15.75h-16.26c-3.34 6.21-4.36 7.9-8.57 14.93v-14.93h-13.9zm16.77-60.14c21.1 0 38.02 16.93 38.02 37.87 0 21.09-16.92 38.02-38.02 38.02-20.93 0-37.87-16.93-37.87-37.87 0-21.29 16.74-38.02 37.87-38.02m0 81.23c23.92 0 43.4-19.25 43.4-43.21 0-24.12-19.28-43.4-43.4-43.4-24.31 0-43.25 18.93-43.25 43.4 0 24.12 19.13 43.21 43.25 43.21"/>
   <path d="m4631.9 1791.4c49.92-14.84 104.56-23.17 155.59-23.17 69.24 0 122.23 15.71 167.84 48.63 50.51 35.94 83.15 91.28 83.15 141.4 0 33.66-14.69 64.34-40.73 86.06-20.42 16.42-41.59 29.15-84.77 49.38l-35.07 16.46c-11.39 5.96-17.09 11.94-17.09 18.69 0 17.95 22.83 31.43 53.77 31.43 23.18 0 50.76-6.76 103.55-24l36.41 135.08c-39.48 10.72-77.93 16.1-116.3 16.1-145.07 0-256.7-79.3-256.7-181.82 0-53.86 35.86-91.99 125.46-133.9 42.38-19.45 49.72-24.71 49.72-38.15 0-20.22-21.99-32.91-57.85-32.91-31.78 0-72.55 9.7-127.98 29.89h-0.04l-38.96-139.17"/>
   <path d="m9355 1218c-16.26 12.2-34.08 20.7-53.42 25.51-19.37 4.8-38.87 5.76-58.52 2.88-19.63-2.88-37.11-10.61-52.47-23.16-21.6-18.28-39.08-38.65-52.41-61.15-13.34-22.55-23.39-47.44-30.17-74.79-5.66-21.66-8.75-44.44-9.26-68.35-0.52-23.921 3.21-46.679 11.22-68.308 6.28-15.91 15.56-30.41 27.84-43.492 12.26-13.078 26.1-23.301 41.47-30.668 15.4-7.383 31.75-11.453 49.12-12.301 17.4-0.82 34.59 2.488 51.66 9.93 17.07 7.429 31.99 17.281 44.8 29.55 12.77 12.27 23.99 25.809 33.64 40.629 9.66 14.84 17.73 30.629 24.25 47.442 6.5 16.788 12.32 33.758 17.4 50.838 3.39 21.66 5.2 43.85 5.44 66.66 0.24 22.75-4.49 44.37-14.21 64.86-8.02 17.07-20.14 31.7-36.38 43.92"/>
   <path d="m11168 797.85c-5.4-8.821-11.9-15.68-19.6-20.5-7.6-4.883-16-7.321-25.1-7.321-9.1-0.031-18.3 3.078-27.4 9.321-10.2 7.976-20 17.359-29.1 28.128-9.1 10.79-17.9 20.739-26.5 29.872-18.8 20.429-37.2 41.039-55.2 61.777-18 20.762-36.4 41.062-55.2 60.992-11.4-2.312-22.9-3.891-34.6-4.781-11.7-0.871-23.2-1.899-34.6-3.039l0.2-121.29 0.1-5.973c-1.7-14.25-7.7-25.93-17.9-35.07-10.2-9.098-21.3-14.957-33.3-17.539-11.9-2.59-22.9-1.328-32.9 3.769-9.9 5.102-15.2 15.34-15.8 30.711-3 65.442-4.5 133.36-4.7 203.67-0.1 70.31-0.2 140.2-0.4 209.66-9.1 3.42-15.9 8.51-20.5 15.35-4.6 6.82-7.3 14.36-8.2 22.62-0.8 8.23 0.1 16.64 3 25.19 2.8 8.54 7.1 15.94 12.8 22.23 6.2 6.84 14.7 13.13 25.6 18.82 10.7 5.72 22.5 11 35.4 15.88 12.7 4.84 25.4 9 37.9 12.45 12.6 3.46 23.1 6.02 31.6 7.76 35.9 7.45 72 7.38 108.5-0.23 36.4-7.62 68.5-21.36 96.1-41.23 27.7-19.9 48.4-45.76 62.1-77.62 13.7-31.87 15.2-68.29 4.5-109.29-3.4-11.41-7.7-22.8-12.8-34.19-5.1-11.41-11-21.95-17.8-31.62-9.7-14.84-21.1-27.94-34.1-39.36-13.1-11.43-27.3-21.97-42.7-31.672 10.9-11.387 21.1-23.328 30.8-35.828 9.8-12.512 20.6-23.852 32.6-34.102 4.5-3.976 11.2-10.218 20.1-18.738 8.8-8.539 17.4-17.621 25.6-27.262 8.3-9.699 15.6-19.207 21.9-28.609 6.2-9.348 9.1-17.199 8.5-23.461-0.5-10.816-3.5-20.617-8.9-29.476zm-811 305.48c20.6-1.1 41-1.05 61.5 0.11 20.5 1.19 41 2.68 61.5 4.42 9.1 0.57 18.2 1.44 27.4 2.6 9 1.16 18.4 1.16 28.1 0.06 12.6-1.68 22.3-6.8 29.1-15.31 6.8-8.53 11-18.08 12.4-28.58 1.5-10.54-0.4-20.95-5.5-31.19-5.1-10.27-13.3-17.68-24.7-22.25-9.7-4.02-22.7-7.04-39.2-9.06-16.6-2.04-33.9-3.47-52.2-4.36-18.2-0.891-36.1-1.348-53.7-1.372-17.7-0.027-32.5 0.204-44.5 0.75l0.3-105.05c31.2-3.911 62.9-4.411 94.8-1.512 31.8 2.91 63.1 8.351 93.9 16.39h5.9c10.3-0.539 19.3-3.21 27-8.039 7.7-4.832 13.9-10.652 18.8-17.472 4.8-6.821 7.7-14.66 8.6-23.469 0.8-8.84-1-17.809-5.5-26.93-1.7-3.968-5.3-8.691-10.7-14.09-5.4-5.441-10.4-8.71-14.9-9.871-36.4-10.871-73.8-17.64-112.3-20.257-38.4-2.641-76.4-2-114 1.918-10.8 1.121-22.6 2.242-35.5 3.351-12.8 1.129-24 4.777-33.7 11.027-17.7 11.34-26.5 27.551-26.6 48.633l-0.7 363.82c-6.2 4.52-11.4 10.22-15.4 17.03-4 6.83-6.4 14.09-7.3 21.77-0.8 7.71 0.1 15.09 3 22.21 2.8 7.11 7.6 13.25 14.5 18.38 11.3 9.12 24.4 15.27 39.2 18.45 14.8 3.16 29.3 5.88 43.6 8.19 29.6 4.61 59.2 6.94 88.8 7.02 29.6 0.04 59.7 0.36 90.5 1.01 9.1 0.02 19.6 0.75 31.6 2.21 11.9 1.45 22.5 0.43 31.6-2.94 10.8-3.97 19.4-10.2 25.6-18.76 6.3-8.5 10-17.63 11.2-27.3s-0.7-19.07-5.5-28.17c-4.8-9.15-13.2-16.26-25.1-21.41-14.3-5.71-29.5-8.32-45.7-7.77-16.2 0.53-31.8 0.78-46.6 0.75-21.6-0.03-43.3-0.36-64.9-0.96-21.6-0.61-43.2-2.37-64.9-5.26zm-256.8 148.56c-6.8-11.11-13.4-22.1-19.6-32.9-15.3-29.66-29.9-59.56-43.8-89.78-13.9-30.2-27.4-60.66-40.41-91.43-13.03-30.24-25.21-60.28-36.54-90.198-11.35-29.883-22.68-60.23-34.01-91.004-3.97-9.129-7.94-19.808-11.88-32.039-3.96-12.277-9.09-22.93-15.33-32.078-6.25-9.109-13.78-15.402-22.57-18.801-8.85-3.461-17.67-4.32-26.48-2.66-8.84 1.719-17.1 5.539-24.79 11.5-7.69 5.98-13.26 13.801-16.71 23.48-6.29 15.899-12.3 31.571-18 46.911-5.75 15.371-11.75 30.718-18.03 46.097-6.31 15.891-12.32 31.582-18.04 46.934-5.71 15.359-11.72 30.726-18.01 46.098-12.02 31.27-24.03 62.42-36.03 93.43-12.03 31-23.75 62.15-35.22 93.45-7.43 19.36-14.15 36.41-20.15 51.21-6.01 14.79-11.31 31.87-15.89 51.22-4.02 13.07-2.2 24.46 5.48 34.15 7.66 9.7 17.33 16.4 29 20.13 11.65 3.72 23.6 3.75 35.87 0.07 12.24-3.68 21.23-12.05 26.95-25.16 24.02-56.89 46.47-114.33 67.36-172.36 20.89-58.06 42.21-116.37 63.96-174.96 3.39 8.539 6.09 15.262 8.06 20.071 2 4.859 3.54 8.832 4.69 11.968 1.11 3.133 1.98 5.552 2.54 7.272 0.56 1.69 1.41 3.41 2.55 5.14 5.64 22.76 13.7 44.87 24.23 66.23 10.48 21.35 20.27 42.88 29.34 64.53 24.37 58.13 51.86 114.24 82.56 168.41l3.4 5.12c6.8 11.39 15.6 19.1 26.4 23.1 10.8 4.01 21.5 4.87 32 2.63 10.5-2.27 19.7-7.64 27.4-16.17s11.2-19.62 10.7-33.29c-0.5-13.1-4.2-25.2-11-36.32zm-599.48-232.99c-9.64-31.92-21.96-63.099-36.98-93.611-15.04-30.48-33.35-57.687-54.93-81.66-21.6-23.938-46.75-43.348-75.47-58.188-28.72-14.871-61.6-22.32-98.61-22.39-23.89 1.09-42.83 3.168-56.79 6.289-13.97 3.101-27.49 7.769-40.6 13.988-23.35 6.82-43.45 17.723-60.27 32.801-16.83 15.019-30.94 32.512-42.37 52.43-11.44 19.89-20.15 41.062-26.18 63.562-6 22.481-9.9 44.258-11.65 65.32-2.91 37.019 0.16 74.589 9.21 112.75 9.02 38.14 23.47 73.36 43.34 105.56 19.86 32.19 44.85 59.85 75 83 30.13 23.09 64.53 38.39 103.24 45.87 19.92 3.46 40.13 4.62 60.64 3.52 20.5-1.1 40.43-5.05 59.79-11.84 15.94-5.68 30.78-12.19 44.46-19.56 13.68-7.38 26.77-16.76 39.32-28.09 16.55-14.8 30.53-31.86 41.96-51.19 11.42-19.34 19.72-39.53 24.88-60.59 6.32-26.76 9.2-53.21 8.69-79.4-0.53-26.19-2.74-52.38-6.68-78.57zm-627.14 179c-3.7-6.28-8.67-11.54-14.92-15.81-6.27-4.3-13.36-7.02-21.34-8.17-13.09-1.71-23.2-0.32-30.32 4.2-7.13 4.56-12.83 10.23-17.11 17.06-4.29 6.82-8.45 13.5-12.42 20.06-4.01 6.52-9.73 11.2-17.1 14.04-4.56 0-7.98-0.29-10.26-0.85-19.35-5.16-38.82-12.2-58.45-21.03-19.63-8.9-37.85-19.6-54.6-32.15-16.77-12.56-31.43-27.1-43.91-43.64-12.5-16.52-21.57-35.05-27.21-55.56-6.79-24.49-9.32-49.25-7.54-74.31 1.74-25.041 8.61-48.67 20.62-70.849 6.85-13.082 15.98-24.442 27.4-34.09 11.39-9.68 23.94-16.903 37.6-21.719 13.68-4.832 27.63-6.504 41.88-5.062 14.21 1.449 27.87 6.449 40.94 15.05 11.37 7.981 21.61 17.801 30.71 29.489 9.07 11.691 17.31 23.543 24.68 35.5 9.1 9.121 19.49 14.421 31.15 15.863 11.67 1.437 22.34-0.094 32.04-4.641 9.69-4.551 17.23-11.781 22.67-21.742 5.42-9.949 6.72-21.75 3.92-35.418-3.41-13.68-9.94-26.371-19.58-38.062-9.67-11.68-19.31-22.379-28.98-32.047-22.17-23.403-46.75-40.672-73.77-51.84-27.03-11.141-54.36-16.442-81.97-15.953-27.6 0.531-54.67 7.031-81.16 19.492-26.5 12.488-50.31 31.219-71.43 56.23-12.54 14.789-23.09 30.411-31.67 46.93-8.58 16.481-15.17 33.828-19.74 52.059-6.89 26.73-10.07 54.629-9.54 83.67 0.49 29.04 5.01 57.21 13.49 84.56 8.49 27.35 20.53 53.15 36.16 77.36 15.59 24.21 34.75 44.91 57.53 62.04 16.46 12.53 33.1 23.41 49.89 32.54 16.77 9.12 34.55 17.72 53.34 25.72 10.78 4.58 21.88 9.01 33.27 13.31 11.39 4.27 23.05 7.57 34.98 9.88 11.95 2.29 23.93 3.18 35.89 2.63 11.93-0.55 23.62-3.09 35.01-7.62 7.98-3.39 15.96-8.09 23.93-14.04 7.98-5.96 15.42-12.77 22.27-20.46 6.84-7.69 12.81-15.78 17.97-24.31 5.14-8.53 8.85-16.79 11.14-24.75 1.74-7.4 2.17-14.95 1.34-22.63-0.85-7.68-3.13-14.66-6.8-20.93zm-554.44-331.12c-7.36-17.41-17.6-32.64-30.69-45.761-9.08-9.129-18.61-16.969-28.54-23.54-9.96-6.55-20.63-12.98-31.99-19.269-22.76-12.012-47.24-18.051-73.42-18.082-26.2-0.047-52.39 3.75-78.59 11.402-26.2 7.641-50.98 18.41-74.36 32.321-23.38 13.886-43.32 29.046-59.86 45.57l-6.01 8.5c-4.01 10.816-5.3 21.637-3.9 32.476 1.4 10.793 5.08 20.051 11.05 27.762 5.97 7.699 13.78 13.121 23.46 16.281 9.66 3.149 20.49 2.137 32.48-2.961 10.8-4.519 20.08-11.191 27.77-19.98 7.7-8.852 16.96-15.77 27.8-20.879 14.81-7.383 29.91-12.769 45.3-16.141 10.8-2.839 21.65-4.64 32.45-5.511 10.8-0.828 21.92-1.231 33.31-1.207 8.54 2.289 15.94 4.566 22.19 6.879 6.27 2.281 13.07 7.14 20.47 14.558 8.53 7.391 14.06 16.25 16.62 26.512 2.53 10.238 2.52 20.348-0.05 30.32-2.59 9.949-7.46 19.028-14.59 27.309-7.13 8.199-15.81 13.75-26.07 16.601-19.97 6.789-39.9 11.999-59.81 15.679-19.94 3.67-39.31 8.05-58.12 13.13-18.78 5.07-36.6 12.3-53.41 21.67-16.82 9.35-32.37 22.85-46.61 40.47-8 9.66-13.14 18.21-15.42 25.6-2.31 7.39-4.89 16.78-7.75 28.17-5.18 27.3-3.09 50.4 6.29 69.17 9.35 18.82 21.13 35.92 35.32 51.32 18.2 19.96 38.81 35.21 61.85 45.8 23.03 10.58 47.21 17.44 72.55 20.65 25.31 3.15 50.94 2.67 76.87-1.56 25.9-4.24 50.54-11.44 73.91-21.64 13.66-5.69 22.38-14.47 26.1-26.43 3.71-11.96 3.88-23.64 0.47-35.03-3.38-11.39-9.91-20.81-19.57-28.22-9.67-7.41-21.06-9.99-34.16-7.73-13.66 2.8-26.48 5.77-38.43 8.88-11.98 3.1-23.93 5.78-35.89 8.05-9.13 1.71-18.95 1.96-29.47 0.79-10.54-1.17-20.5-3.04-29.86-5.6-9.4-2.58-18.09-5.46-26.05-8.59-7.99-3.14-13.93-6.44-17.92-9.86-4.55-3.98-8.93-9.13-13.21-15.38-4.25-6.3-6.66-13.41-7.23-21.4-1.11-9.66 2.6-17.65 11.16-23.86 8.55-6.27 17.67-10.8 27.37-13.64 18.78-3.93 38.14-7.72 58.09-11.4 19.91-3.66 39.58-8.76 58.95-15.25 19.36-6.52 37.47-14.89 54.28-25.09 16.8-10.22 31.22-23.87 43.21-40.93 13.13-14.8 22.54-31.55 28.26-50.319 5.72-18.789 7.9-37.582 6.53-56.352-1.39-18.809-5.78-36.91-13.13-54.258zm-546.01-53.133c-4.53-10.558-13.92-18.648-28.13-24.386-10.24-3.981-22.34-6.571-36.27-7.782-13.96-1.14-27.91-1.601-41.86-1.339-13.95 0.269-26.88 0.808-38.85 1.64-11.98 0.821-21.08 1.231-27.33 1.207l-50.4-0.09c-11.95-0.019-22.21 3.25-30.77 9.782-8.53 6.519-14.68 14.34-18.39 23.449-3.74 9.101-4.61 18.769-2.64 29.012 1.99 10.269 7.23 19.66 15.76 28.218 7.95 7.981 18.46 12.551 31.58 13.743 13.07 1.148 26.18 1.168 39.28 0.07l-0.65 338.18c-13.09-0.02-25.32 0.09-36.71 0.36-11.4 0.26-22.79 4.37-34.2 12.33-8.54 6.24-14.25 13.49-17.13 21.74-2.86 8.26-3.29 16.52-1.31 24.77 1.98 8.26 5.8 16.07 11.48 23.51 5.68 7.38 12.79 12.82 21.32 16.28 7.97 3.4 16.23 5.15 24.77 5.17 29.04 0.04 58.21 0.22 87.53 0.57 29.32 0.34 58.79 0.25 88.4-0.26 2.84 0 5.55-0.84 8.11-2.54 2.56-1.71 5.27-3.12 8.13-4.27 13.1-7.36 21.94-17.88 26.52-31.53s2.91-27.06-5.04-40.15c-3.98-6.84-8.95-12.12-14.92-15.83-5.98-3.71-12.51-6.29-19.63-7.73-7.1-1.44-14.37-2.17-21.76-2.17-7.4-0.02-14.51-0.05-21.37-0.05l0.64-339.89c4.56 0 8.7 0.16 12.39 0.461 3.7 0.27 7.82 0.688 12.38 1.309h5.99c14.78-0.551 27.04-4.95 36.74-13.18 9.7-8.25 15.97-17.762 18.84-28.59 2.86-10.808 2.04-21.488-2.5-32.012zm-420 163.59c-6.79-25.078-16.99-48.558-30.62-70.5-13.64-21.968-30.11-41.468-49.44-58.597-19.3-17.11-40.91-31.403-64.81-42.832-21.06-9.731-43.4-16.879-67-21.45-23.62-4.589-46.83-8.64-69.58-12.097-11.4-1.731-23.47-3.59-36.28-5.621-12.82-2.012-25.21-3.039-37.15-3.071l-5.99 0.852c-14.81 2.828-27.48 9.629-38.03 20.418-10.56 10.801-15.85 24.172-15.88 40.109l-0.69 359.56c-10.23-1.75-20.21-0.48-29.88 3.77-9.72 4.25-17.39 9.92-23.11 17.03-5.71 7.12-8.98 15.37-9.87 24.77-0.84 9.37 2.11 18.36 8.95 26.91 7.35 9.7 16.18 17.82 26.42 24.38 10.22 6.56 21.02 12 32.43 16.3 11.34 4.27 23.16 7.87 35.4 10.73 12.25 2.88 24.05 5.46 35.44 7.77 31.87 5.19 63.74 6.51 95.64 4.03 31.87-2.49 62.06-9.45 90.56-20.77 28.49-11.34 54.56-27.23 78.25-47.68 23.64-20.44 42.91-46.05 57.78-76.74 9.14-18.79 15.73-38.28 19.76-58.49 4.01-20.19 6.33-40.55 6.92-61.03 0.63-26.77-2.44-52.66-9.22-77.752zm4021.1 669.91h-4696.7c-98.23 0-177.88-79.63-177.88-177.86v-792.2c0-98.231 79.65-177.86 177.88-177.86h4696.7c98.3 0 177.9 79.629 177.9 177.86v792.2c0 98.23-79.6 177.86-177.9 177.86"/>
   <path d="m11040 1206.7c-4.8 12.21-13.8 22.89-26.9 31.97-22.8 13.62-47.8 21.26-74.8 22.89-27.1 1.67-53.1-2.08-78.1-11.23l0.3-193.02c25.6 1.76 50.8 5.07 75.6 9.97 24.8 4.87 47.6 15.6 68.7 32.15 11.4 9.13 20.6 19.83 27.7 32.09 7.1 12.25 11.3 24.78 12.7 37.59 1.4 12.8-0.3 25.33-5.2 37.59"/>
   <path d="m7219 1164.4c-12.55 14.5-27.94 26-46.18 34.51-14.83 6.81-29.47 11.34-44.01 13.58-14.52 2.24-29.46 3.91-44.86 5.06-7.39-0.03-14.37-0.32-20.91-0.92-6.55-0.57-13.51-1.44-20.91-2.61l0.65-342.46c3.4 0.032 6.24 0.313 8.52 0.879 2.28 0.551 4.55 0.852 6.85 0.871 2.26 0 4.26 0.301 5.97 0.871 7.96 1.141 14.53 2.02 19.65 2.598 5.11 0.563 9.93 1.313 14.51 2.152 4.55 0.848 9.24 1.879 14.09 3.032 4.82 1.129 10.35 2.566 16.64 4.297 32.99 8.589 59.01 22.16 78.07 40.711 19.02 18.531 33.34 44.05 42.97 76.52 6.23 18.8 9.02 37.87 8.44 57.23-0.62 19.35-4.2 37.85-10.79 55.48-6.58 17.66-16.14 33.7-28.7 48.2"/>
   <path d="m2565.8 673.23-166.26 159.63c65.28 44.75 120.61 97.223 163.21 155.61 0.61 0.84 1.14 1.711 1.76 2.551l404.33 419.89 12.05 12.92 52.82 54.95-493.9 474.12-111.05-115.53-122.37-127.55-83.42-86.89-157.23-163.82 0.07-0.07-13.61-14.18 45.85-43.9 212.8-207.5c-46.57-44.06-105.75-81.86-172.52-109.64-0.07-0.04-0.11-0.04-0.11-0.04l-140.47 134.83-137.88 132.43-93.83 88.9 222.94 232.23 111.97 116.63 121.68 126.7 304.07 316.66 800.41-766.13zm103.12 672.97c3.62 23.74 5.64 47.14 5.64 69.74 0 132.68-60.13 272.59-161.12 376.98l26.37 27.36 409.07-392.76-338.72-352.7c35.98 83.58 59.26 186.78 59.26 260.78 0 3.13-0.23 6.79-0.5 10.6zm-340.08-134.8-193.06 188.12 163.48 170.34c58.23-48.51 101.22-106.48 124.02-170.15-1.42-10.45-3.17-20.85-5.73-31.37-13.79-56.36-43.71-109.07-88.71-156.94zm-32.09-281.13c-29.8-15.2-61.5-28.918-94.13-40.961-112-41.387-232.85-62.309-359.06-62.309-178.95 0-348.29 42.488-489.77 123.05-78.21 44.469-143.93 98.439-195.23 160.41-19.65 23.7-36.96 48.35-51.6 73.39-30.13 51.49-50.04 105.68-59.14 161.09-4.07 24.7-6.07 47.91-6.07 71 0 85.65 24.58 168.17 73.16 245.46l130.13-131.72c-8.85-30.23-13.31-60.96-13.31-91.45 0-25.38 3.15-51.18 9.4-76.86 8.84-36.05 24.08-71.42 45.25-105.07 16.77-26.68 37.23-52.02 60.7-75.53 64.58-64.41 152.19-115.21 253.41-146.76 76.85-23.89 158.62-36.049 243.07-36.049 68.17 0 135.55 8.109 200.3 24.119 36.81 9.22 72.48 20.92 105.71 34.68 76.57 31.9 143.98 76.33 194.97 128.54 51.75 53.09 85.89 112.38 101.45 176.14 6.25 25.8 9.44 51.61 9.44 76.79 0 72.47-27.32 154.53-71.83 217.27l110.79 115.31c94.74-98.79 150.91-230.39 150.91-354.87 0-22.94-2.06-46.8-6.02-71-17.12-104.42-72.57-203.96-160.29-287.72-51.45-49.13-112.73-91.81-182.24-126.95zm-1277.8 409.87c0.13-0.91 0.45-1.79 0.58-2.74-0.34-3.74-0.58-7.21-0.58-9.95 0-39.1 23.96-131.93 33.64-169.01 0-0.04 0.04-0.08 0.04-0.12l-127.17-54.38 121.28 631.96 49.8-49.23c-55.65-84.78-84.06-175.8-84.06-270.73 0-24.66 2.1-49.51 6.47-75.8zm296.76-74.62c-1.46 2.13-3.21 4.16-4.6 6.33-19.5 31.01-33.52 63.52-41.58 96.49-0.85 3.5-1.22 7.02-1.98 10.52 9.46 33.19 24.46 65.05 44.09 95.01l154.55-152.97zm586.49-87.87 132.85-127.52c-61.88-15.21-126.34-22.94-191.53-22.94-81.49 0-160.37 11.7-234.32 34.79-9.89 3.05-19.5 6.48-29.12 9.91l294.42 132.39zm-1297.8-526.34 285.36 1589.8 407.41-386.08 127.65-120.98 97.54-92.44 231.51-220.7v-100.73l98.44-94.59-307.5-139.9c-69.43 29.38-129.91 68.79-177.1 115.93-1.03 0.99-1.93 2.22-3.01 3.32l235.94 110.17-554.84 516.67-10.95 11.01-13.28-71.59-130.99-682.95-20.273-106.06 34.734 14.82 0.098 0.879 178.27 76.371c27.84-58.8 67.78-113.34 117.53-162.12zm1383.2 1054.6-238.07-247.92-209.14 198.21c89.83 39 195.3 61.68 308.27 61.68 47.87 0 94.32-4.27 138.94-11.97zm-171.52 323.05c129.19 0 301.86-33.13 411.42-73.11l-4.91-5.14-121.68-126.7-0.43-0.46c-76.55 25.61-161.77 40-251.82 40-157.18 0-299.89-43.65-406.02-114.72l-1.57 1.5-127.64 120.94-11.36 10.8c139.49 84.22 320.48 146.89 514.01 146.89zm1529.2-544.16v0.29l-0.16-0.14-818.51 782.42-275.34-286.78c-113.8 44.03-292.67 79.37-428.57 79.37-197.86 0-401.75-67.51-544.16-155.66l-383.94 363.84 0.039 0.42-0.422-0.04-0.242 0.21-0.078-0.25-137.32-14.39-296.41-1622.9 137.95-14.402 0.137 0.422 625.41 273.66c1.01-0.922 1.95-1.91 2.93-2.793 148.84-131.25 372.2-214.85 622.01-214.85 173.36 0 333.79 40.321 465.66 108.8l251.44-241.43 779.57 811.96v132.05l0.15 0.13-0.15 0.08"/>
  </g>
 </g>
</svg>
