<?xml version="1.0" encoding="UTF-8"?>
<!-- Created with Inkscape (http://www.inkscape.org/) -->
<svg width="1659.2" height="371.56" version="1.1" viewBox="0 0 1659.2 371.56" xmlns="http://www.w3.org/2000/svg">
 <g transform="matrix(1.3333 0 0 -1.3333 0 371.56)">
  <g transform="scale(.1)" fill="#fff">
   <path d="m3524.2 1635.8h126.54v-376.83h226.5v-108.86h-353.04v485.69"/>
   <path d="m3899 1635.8h387.09v-101.34h-260.56v-85.01h238.09v-97.93h-238.09v-92.55h267.36v-108.86h-393.89v485.69"/>
   <path d="m4772.5 1150h-81.63l-7.47 53.08c-33.35-46.91-90.46-63.26-135.37-63.26-146.95 0-242.17 112.2-242.17 253.02 0 140.83 95.22 253.1 242.17 253.1 100.69 0 208.12-53.74 219.71-175.51h-126.52c-4.1 41.44-44.91 66.66-95.93 66.66-81.63 0-112.94-72.12-112.94-144.25 0-72.12 31.31-144.16 112.94-144.16 62.62 0 104.76 29.22 111.56 73.42h-88.43v93.93h204.08v-266.03"/>
   <path d="m5033.7 1248.7c81.62 0 112.89 72.04 112.89 144.17 0 72.12-31.27 144.24-112.89 144.24-81.63 0-112.9-72.12-112.9-144.24 0-72.13 31.27-144.17 112.9-144.17m0 397.26c153.03 0 239.46-112.27 239.46-253.09 0-140.83-86.43-253.02-239.46-253.02-153.05 0-239.47 112.19-239.47 253.02 0 140.82 86.42 253.09 239.47 253.09"/>
   <path d="m3537.8 1013.8h126.53v-376.84h226.53v-108.84h-353.06v485.68"/>
   <path d="m3912.6 1013.8h387.05v-101.35h-260.51v-85.011h238.08v-97.93h-238.08v-92.551h267.31v-108.84h-393.85v485.68"/>
   <path d="m4477.9 709.07h110.18l-53.74 170.05h-1.37zm-8.18 304.72h128.54l181.64-485.69h-131.96l-29.93 87.046h-169.38l-30.6-87.046h-129.95l181.64 485.69"/>
   <path d="m5224.1 528.1h-81.64l-7.5 53.058c-33.31-46.898-90.46-63.238-135.33-63.238-146.95 0-242.2 112.19-242.2 253.02 0 140.83 95.25 253.09 242.2 253.09 100.65 0 208.13-53.741 219.67-175.51h-126.48c-4.1 41.441-44.91 66.671-95.93 66.671-81.63 0-112.94-72.132-112.94-144.25 0-72.121 31.31-144.17 112.94-144.17 62.58 0 104.76 29.23 111.56 73.429h-88.47v93.871h204.12v-265.97"/>
   <path d="m5684 728.81c0-140.83-64.62-210.91-211.57-210.91-146.92 0-211.54 70.082-211.54 210.91v284.99h126.53v-292.49c0-62.579 23.1-94.52 85.01-94.52 61.95 0 85.05 31.941 85.05 94.52v292.49h126.52v-284.99"/>
   <path d="m5727.5 1013.8h387.08v-101.35h-260.51v-85.011h238.04v-97.93h-238.04v-92.551h267.31v-108.84h-393.88v485.68"/>
   <path d="m5302 1570.8c3.84 0 5.97 1.81 5.97 5.3 0 3.38-1.92 5.27-5.86 5.27-0.82 0-0.97 0-1.8-0.16v-10.25c0.63-0.16 0.98-0.16 1.69-0.16m-15.6 20.82c2.21 0.12 2.52 0.24 6.84 0.59 4.44 0.36 6.29 0.56 8.05 0.56 14.26 0 21.29-5.58 21.29-16.11 0-6.4-2.66-10.17-8.33-12.38l-0.7-0.24c0.47-0.31 0.7-0.46 0.86-0.82 1.45-1.29 6.48-8.79 10.68-15.71h-16.26c-3.3 6.16-4.31 7.89-8.52 14.84v-14.84h-13.91zm16.86-60.21c21.09 0 37.91 16.92 37.91 37.82 0 21.17-16.82 38.11-37.91 38.11-21.02 0-37.99-16.94-37.99-37.91 0-21.25 16.78-38.02 37.99-38.02m0 81.31c23.88 0 43.33-19.33 43.33-43.29 0-24.08-19.29-43.36-43.33-43.36-24.4 0-43.37 18.92-43.37 43.36 0 24.12 19.17 43.29 43.37 43.29"/>
   <path d="m3641.2 2277.8h343.92l-32.41-132.42h-164.83l-16.26-69.61h171.94l-29.93-122.67h-169.75l-40.73-174.34h-177.68l115.73 499.04"/>
   <path d="m4031.9 2277.8h177.67l-115.72-499.04h-177.67l115.72 499.04"/>
   <path d="m4387.3 2039.9c57.03 0 96.98 33.66 96.98 81.54 0 25.46-18.74 38.18-55.43 38.18-10.6 0-16.3-0.74-27.73-3.03l-26.87-115.21c5.7-0.74 6.53-1.48 13.05-1.48m-131.21 234.94 11.43 1.49c57 6.72 127.91 11.19 167.03 11.19 65.17 0 115.73-7.46 154.03-23.17 48.91-20.19 78.25-64.35 78.25-117.45 0-45.65-15.52-89.06-44.86-122.73-25.27-29.18-48.09-43.36-95.34-57.59l-11.39-3.73c4.87-3.77 6.48-5.26 8.95-7.5 13.87-15.71 55.43-96.51 90.47-176.57h-195.62c-25.23 71.06-32.57 89.79-66 170.61l-39.09-170.61h-172.76l114.9 496.06"/>
   <path d="m5088.6 2277.8h431.04l-30.13-144.48h-127.9l-84.78-354.56h-177.66l84.76 354.56h-138.66l43.33 144.48"/>
   <path d="m5358.8 1826c3.85 0 6.01 1.84 6.01 5.38 0 3.34-1.96 5.18-5.85 5.18-0.83 0-0.99 0-1.85-0.15v-10.26c0.67-0.15 1.02-0.15 1.69-0.15m-15.59 20.78c2.24 0.15 2.55 0.31 6.87 0.66 4.36 0.31 6.2 0.52 8.05 0.52 14.22 0 21.26-5.55 21.26-16.11 0-6.36-2.68-10.21-8.33-12.38l-0.67-0.19c0.47-0.32 0.67-0.47 0.83-0.82 1.49-1.34 6.52-8.88 10.72-15.75h-16.26c-3.34 6.2-4.37 7.89-8.57 14.92v-14.92h-13.9zm16.77-60.15c21.1 0 38.02 16.94 38.02 37.87 0 21.1-16.92 38.03-38.02 38.03-20.94 0-37.87-16.93-37.87-37.87 0-21.29 16.73-38.03 37.87-38.03m0 81.24c23.92 0 43.4-19.25 43.4-43.21 0-24.12-19.28-43.41-43.4-43.41-24.32 0-43.25 18.94-43.25 43.41 0 24.12 19.13 43.21 43.25 43.21"/>
   <path d="m4632.1 1791.4c49.93-14.85 104.57-23.18 155.6-23.18 69.26 0 122.25 15.72 167.85 48.64 50.52 35.93 83.16 91.29 83.16 141.41 0 33.66-14.69 64.35-40.74 86.07-20.42 16.41-41.59 29.15-84.76 49.37l-35.08 16.47c-11.4 5.96-17.09 11.94-17.09 18.69 0 17.96 22.82 31.42 53.78 31.42 23.17 0 50.75-6.75 103.54-23.99l36.42 135.09c-39.48 10.72-77.94 16.1-116.32 16.1-145.07 0-256.71-79.31-256.71-181.84 0-53.85 35.87-92 125.47-133.91 42.38-19.45 49.74-24.71 49.74-38.14 0-20.23-22-32.92-57.87-32.92-31.78 0-72.55 9.7-127.98 29.9h-0.04l-38.97-139.18"/>
   <path d="m2565.9 673.18-166.29 159.65c65.3 44.754 120.63 97.223 163.24 155.61 0.61 0.84 1.14 1.719 1.75 2.559l404.37 419.91 12.04 12.92 52.82 54.96-493.92 474.15-111.06-115.54-122.38-127.56-83.43-86.9-157.24-163.82 0.07-0.08-13.6-14.18 45.84-43.9 212.82-207.52c-46.57-44.05-105.76-81.86-172.53-109.64-0.08-0.04-0.11-0.04-0.11-0.04l-140.48 134.84-137.89 132.44-93.83 88.91 222.95 232.24 111.97 116.64 121.69 126.7 304.09 316.69 800.47-766.18zm103.13 673.01c3.62 23.75 5.64 47.15 5.64 69.75 0 132.68-60.13 272.62-161.13 377l26.37 27.36 409.09-392.77-338.74-352.72c35.98 83.57 59.27 186.77 59.27 260.79 0 3.13-0.23 6.78-0.5 10.59zm-340.11-134.79-193.08 188.11 163.51 170.36c58.23-48.51 101.22-106.48 124.01-170.16-1.41-10.45-3.16-20.85-5.72-31.37-13.8-56.37-43.71-109.08-88.72-156.94zm-32.09-281.15c-29.8-15.211-61.51-28.93-94.14-40.969-112.01-41.402-232.86-62.32-359.08-62.32-178.96 0-348.31 42.488-489.8 123.06-78.22 44.48-143.94 98.45-195.25 160.42-19.64 23.7-36.96 48.36-51.6 73.4-30.13 51.49-50.04 105.68-59.15 161.1-4.06 24.7-6.06 47.9-6.06 71 0 85.65 24.58 168.19 73.16 245.48l130.14-131.74c-8.85-30.22-13.32-60.96-13.32-91.45 0-25.38 3.16-51.18 9.41-76.86 8.83-36.06 24.08-71.43 45.25-105.08 16.77-26.68 37.24-52.02 60.71-75.54 64.58-64.41 152.2-115.21 253.42-146.76 76.86-23.9 158.62-36.06 243.09-36.06 68.17 0 135.55 8.12 200.31 24.12 36.82 9.23 72.49 20.93 105.72 34.69 76.57 31.89 143.99 76.34 194.98 128.54 51.76 53.1 85.9 112.4 101.46 176.16 6.25 25.8 9.44 51.61 9.44 76.79 0 72.47-27.32 154.54-71.83 217.28l110.79 115.32c94.74-98.8 150.92-230.4 150.92-354.89 0-22.94-2.06-46.8-6.02-71-17.11-104.43-72.57-203.97-160.29-287.74-51.46-49.13-112.75-91.821-182.26-126.95zm-1277.8 409.89c0.14-0.92 0.46-1.8 0.59-2.75-0.35-3.74-0.59-7.2-0.59-9.95 0-39.1 23.97-131.94 33.65-169.02 0-0.04 0.04-0.08 0.04-0.12l-127.18-54.38 121.29 632.01 49.8-49.24c-55.65-84.78-84.07-175.81-84.07-270.75 0-24.66 2.1-49.5 6.47-75.8zm296.78-74.63c-1.45 2.14-3.21 4.16-4.59 6.33-19.5 31.02-33.53 63.53-41.59 96.5-0.86 3.51-1.22 7.01-1.98 10.52 9.47 33.19 24.46 65.06 44.1 95.01l154.56-152.98zm586.54-87.88 132.86-127.52c-61.9-15.22-126.35-22.95-191.55-22.95-81.49 0-160.38 11.7-234.34 34.8-9.89 3.05-19.49 6.48-29.11 9.91l294.43 132.4zm-1297.9-526.37 285.38 1589.9 407.43-386.1 127.66-120.99 97.55-92.44 231.53-220.72v-100.73l98.44-94.59-307.52-139.91c-69.43 29.38-129.92 68.78-177.11 115.93-1.03 0.99-1.93 2.21-3.01 3.31l235.95 110.19-554.88 516.7-10.94 11.01-13.28-71.59-131-683.01-20.273-106.06 34.738 14.821 0.098 0.883 178.28 76.378c27.84-58.81 67.78-113.35 117.54-162.13zm1383.3 1054.7-238.08-247.94-209.16 198.21c89.83 39.02 195.31 61.69 308.29 61.69 47.87 0 94.33-4.27 138.95-11.96zm-171.53 323.06c129.2 0 301.88-33.13 411.45-73.11l-4.92-5.15-121.69-126.7-0.42-0.45c-76.56 25.6-161.79 40-251.84 40-157.19 0-299.9-43.67-406.04-114.74l-1.58 1.5-127.64 120.95-11.36 10.8c139.5 84.23 320.5 146.9 514.04 146.9zm1529.3-544.19v0.29l-0.15-0.14-818.57 782.47-275.35-286.81c-113.81 44.04-292.71 79.39-428.6 79.39-197.88 0-401.78-67.52-544.2-155.67l-383.96 363.85 0.039 0.42-0.43-0.04-0.242 0.22-0.078-0.26-137.32-14.38-296.43-1623 137.97-14.403 0.136 0.422 625.44 273.67c1.01-0.906 1.95-1.898 2.93-2.769 148.85-131.26 372.23-214.88 622.05-214.88 173.37 0 333.82 40.332 465.69 108.81l251.46-241.44 779.61 812.01v132.06l0.16 0.14-0.16 0.07"/>
   <path d="m11403 1100.9c20.5 1.14 41 2.56 61.5 4.27 9.1 0.57 18.2 1.42 27.3 2.57 9.1 1.14 18.5 1.14 28.2 0 12.5-1.69 22.2-6.84 29-15.38s11-18.08 12.4-28.6c1.4-10.55-0.4-20.93-5.6-31.17-5.1-10.26-13.3-17.66-24.7-22.2-9.7-4.01-22.8-7-39.3-8.99-16.5-1.992-33.9-3.41-52.1-4.249-18.2-0.879-36.2-1.289-53.8-1.289-17.7 0-32.5 0.277-44.4 0.847v-105.06c31.3-3.969 62.9-4.551 94.8-1.692 31.9 2.832 63.2 8.231 93.9 16.211h6c10.2-0.558 19.2-3.269 26.9-8.109 7.7-4.86 14-10.692 18.8-17.5 4.8-6.84 7.7-14.68 8.5-23.481 0.9-8.859-1-17.82-5.5-26.922-1.7-3.976-5.3-8.679-10.7-14.078-5.4-5.422-10.4-8.699-14.9-9.84-36.5-10.789-73.9-17.492-112.4-20.058-38.4-2.563-76.4-1.844-114 2.129-10.8 1.14-22.6 2.289-35.4 3.437-12.8 1.133-24.1 4.813-33.7 11.082-17.7 11.391-26.5 27.61-26.5 48.692v363.83c-6.3 4.55-11.4 10.25-15.4 17.08-4 6.84-6.4 14.09-7.3 21.78-0.8 7.68 0.2 15.09 3 22.2 2.9 7.11 7.7 13.24 14.5 18.37 11.4 9.1 24.5 15.22 39.3 18.36 14.9 3.13 29.4 5.83 43.6 8.12 29.6 4.54 59.2 6.84 88.8 6.84s59.8 0.27 90.6 0.84c9.1 0 19.6 0.71 31.6 2.15 11.9 1.42 22.5 0.42 31.6-2.99 10.8-4.01 19.3-10.25 25.6-18.8 6.2-8.54 9.9-17.66 11.1-27.34 1.1-9.68-0.7-19.06-5.6-28.17-4.8-9.12-13.2-16.23-25.2-21.36-14.2-5.69-29.4-8.25-45.7-7.68-16.2 0.55-31.7 0.85-46.5 0.85-21.6 0-43.3-0.3-64.9-0.85-21.7-0.57-43.3-2.29-64.9-5.12v-118.73c20.5-1.15 41-1.15 61.5 0zm-311.7-67.03c-3.7-9.4-11.5-17.81-23.5-25.2-1.2-1.72-1.4-8.691-0.9-20.922 0.6-12.258 1-26.34 1.3-42.277 0.3-15.949-0.1-32.02-1.3-48.262-1.1-16.23-3.7-28.898-7.6-38.008-4-7.402-8.9-13.941-14.6-19.64-5.7-5.692-11.6-11.11-17.9-16.231-21.1-17.648-43.6-31.179-67.5-40.57-23.9-9.379-48.4-14.941-73.4-16.648-25.1-1.711-50.3 0.839-75.6 7.679-25.4 6.84-49.7 17.66-73 32.449-29.7 18.801-54.6 42.989-74.8 72.61-20.2 29.59-34.8 61.48-44 95.648-5.6 21.641-8.9 44.282-9.8 67.902-0.8 23.63 1 46.98 5.6 70.04 4.5 23.06 11.9 45.13 22.2 66.19 10.2 21.06 23 40.13 38.4 57.22 18.2 19.94 39.2 36.43 62.8 49.55 23.6 13.08 47.9 24.47 73 34.14 19.4 7.98 39.3 13.95 59.8 17.95 20.5 3.98 41.3 5.4 62.3 4.25 16-1.13 33.2-3.84 51.7-8.09 18.5-4.27 34.3-11.82 47.4-22.64 6.3-5.12 11.5-11.39 15.8-18.79 4.3-7.41 6.8-14.94 7.7-22.62 0.9-7.71-0.1-15.1-3-22.21-2.8-7.13-8-13.54-15.4-19.23-7.4-5.7-15.2-8.97-23.4-9.81-8.3-0.87-16.7-0.3-25.2 1.69-8.6 1.99-17.1 4.71-25.7 8.12-8.5 3.43-16.5 6.27-23.9 8.55-6.2 2.27-12.9 3.27-20 2.98-7.2-0.27-14.1-0.99-21-2.13-19.9-5.69-40-12.67-60.2-20.93-20.2-8.25-38.8-18.36-55.9-30.32s-31.8-26.18-44-42.7c-12.3-16.53-20.1-36.44-23.5-59.79-4.6-29.02-3.1-57.93 4.3-86.669 7.4-28.77 21-53.969 41-75.61 13.1-14.222 28.3-25.75 45.7-34.582 17.3-8.84 35.4-14.078 54.2-15.801 18.8-1.718 37.3 0.282 55.5 5.981 18.2 5.691 34.5 15.652 48.7 29.883v92.25c-11.4-0.571-23.2-1.571-35.5-3-12.2-1.422-24.4-2.262-36.7-2.563-12.2-0.289-24.2 0.582-35.8 2.563-11.7 2-22.7 5.838-32.9 11.548-9.7 5.68-16.4 13.23-20.1 22.62-3.7 9.4-4.7 18.8-3 28.19 1.7 9.41 5.7 18.07 12 26.06 6.2 7.95 14.8 13.37 25.6 16.21 5.1 1.14 11.5 1.86 19.2 2.15 7.7 0.27 15.4 0.41 23.1 0.41s14.6-0.14 20.9-0.41c6.3-0.29 11.1-0.44 14.5-0.44 22.2 0 44.3 0.27 66.2 0.85 21.9 0.57 44.3 0.87 67 0.87 11.4-3.43 21.1-8.97 29.1-16.65 8-7.71 13.2-16.23 15.8-25.64 2.5-9.39 2-18.79-1.7-28.17zm-613.6 28.17c-2-81.132-5.3-162.4-9.9-243.85 0-13.09-4.1-23.321-12.3-30.731-8.3-7.398-17.7-12.09-28.2-14.078-10.6-1.992-21.3-0.871-32.1 3.41-10.8 4.278-18.7 11.52-23.9 21.77-0.5 0.57-0.8 1.14-0.8 1.711v-1.711c-37 60.91-76 119.44-117 175.51s-83.7 111.73-128.1 166.99v-193.03-65.77c0-17.66-0.3-32.012-0.9-43.141-0.6-11.089-1.3-19.769-2.1-26.039-0.9-6.269-2.2-11.66-3.9-16.211-5.1-13.679-12.9-22.781-23.4-27.359-10.6-4.551-21.3-5.668-32.1-3.398-10.8 2.289-20.2 7.976-28.2 17.078-8 9.129-11.9 20.48-11.9 34.16v37.57 58.09 69.621 73.019c0 23.91-0.2 46.26-0.5 67.05-0.2 20.76-0.4 38.27-0.4 52.52 0 19.35-0.3 38.56-0.8 57.65-0.6 19.07-0.6 38.28 0 57.65 0 9.68 2.4 17.93 7.2 24.77 4.9 6.81 11 12.07 18.4 15.8 7.4 3.68 15.4 5.84 23.9 6.4s16.8-0.56 24.8-3.43c6.8-2.26 13.8-6.97 20.9-14.09 7.1-7.13 14.1-14.81 20.9-23.04 6.9-8.27 13.3-16.54 19.2-24.77 6-8.28 11-14.96 15-20.08 14.8-18.23 31.9-39.15 51.2-62.77 19.4-23.64 37.3-45.99 53.8-67.05 16.5-21.63 32.6-43.26 48.3-64.91 15.6-21.65 30.9-43.28 45.7-64.918 1.7 51.818 2.8 103.34 3.4 154.59s0.9 102.78 0.9 154.59l0.8 5.13c3.4 11.39 9 20.78 16.7 28.19 7.7 7.39 16 12.23 25.2 14.52 9 2.27 18.3 1.69 27.7-1.71 9.4-3.41 17.5-10.25 24.4-20.49 2.2-2.86 4.4-6.29 6.4-10.27 1.9-3.98 2.9-7.68 2.9-11.09 1.2-81.44 0.8-162.71-1.2-243.85zm-778.05 38.86c20.5 1.14 41 2.56 61.5 4.27 9.09 0.57 18.21 1.42 27.34 2.57 9.09 1.14 18.49 1.14 28.17 0 12.52-1.69 22.21-6.84 29.05-15.38 6.83-8.54 10.95-18.08 12.38-28.6 1.42-10.55-0.43-20.93-5.55-31.17-5.12-10.26-13.4-17.66-24.77-22.2-9.69-4.01-22.79-7-39.28-8.99-16.52-1.992-33.9-3.41-52.11-4.249-18.22-0.879-36.16-1.289-53.82-1.289-17.64 0-32.44 0.277-44.41 0.847v-105.06c31.32-3.969 62.92-4.551 94.8-1.692 31.9 2.832 63.22 8.231 93.96 16.211h5.99c10.23-0.558 19.2-3.269 26.91-8.109 7.67-4.86 13.92-10.692 18.78-17.5 4.83-6.84 7.67-14.68 8.52-23.481 0.87-8.859-0.97-17.82-5.53-26.922-1.71-3.976-5.27-8.679-10.69-14.078-5.42-5.422-10.39-8.699-14.94-9.84-36.44-10.789-73.88-17.492-112.31-20.058-38.43-2.563-76.43-1.844-114.02 2.129-10.82 1.14-22.63 2.289-35.46 3.437-12.8 1.133-24.05 4.813-33.73 11.082-17.64 11.391-26.47 27.61-26.47 48.692v363.83c-6.27 4.55-11.39 10.25-15.36 17.08-4 6.84-6.4 14.09-7.27 21.78-0.87 7.68 0.14 15.09 2.98 22.2 2.86 7.11 7.7 13.24 14.52 18.37 11.39 9.1 24.49 15.22 39.29 18.36 14.8 3.13 29.32 5.83 43.56 8.12 29.59 4.54 59.22 6.84 88.82 6.84 29.61 0 59.8 0.27 90.55 0.84 9.09 0 19.63 0.71 31.6 2.15 11.95 1.42 22.47 0.42 31.58-2.99 10.82-4.01 19.37-10.25 25.64-18.8 6.27-8.54 9.96-17.66 11.1-27.34 1.13-9.68-0.73-19.06-5.55-28.17-4.86-9.12-13.25-16.23-25.2-21.36-14.23-5.69-29.45-8.25-45.69-7.68-16.23 0.55-31.76 0.85-46.56 0.85-21.64 0-43.26-0.3-64.91-0.85-21.64-0.57-43.27-2.29-64.91-5.12v-118.73c20.52-1.15 41.01-1.15 61.5 0zm-313.41-299.35c-7.1-8.82-18.08-15.488-32.88-20.07-5.7-1.688-13.66-2.699-23.89-2.969-10.27-0.309-24.51-0.441-42.71-0.441h-69.19c-27.91 0-62.35-0.278-103.35-0.84-10.25-0.578-20.79-0.879-31.59-0.879-10.83 0-20.21 3.711-28.18 11.109-6.83 5.711-11.82 14.371-14.94 26.051-3.15 11.672-5.14 23.922-5.99 36.738-0.86 12.801-1.14 25.602-0.86 38.41 0.28 12.84 0.43 23.512 0.43 32.032 0 17.082 0.13 36.73 0.43 58.941 0.28 22.209 0.57 44.839 0.85 67.889 0.28 23.08 0.43 45.69 0.43 67.9v58.93c0 30.19 0.28 54.52 0.85 73.04 0.57 18.48 1.84 33 3.86 43.55 1.98 10.54 5.25 18.22 9.82 23.07 4.54 4.82 10.8 8.96 18.79 12.37 6.81 2.86 14.36 3.84 22.62 3 8.26-0.85 15.94-3.14 23.05-6.84 7.12-3.71 13.11-8.83 17.96-15.37 4.82-6.56 7.25-13.82 7.25-21.77 1.14-68.33 1.14-136.11 0-203.27-1.15-67.2-1.72-134.4-1.72-201.57 35.88 0 71.6 0.418 107.19 1.277 35.59 0.852 71.6 1.832 108.05 2.981l5.12-1.7c13.1-6.281 23.06-14.238 29.88-23.918 6.86-9.703 10.11-19.5 9.83-29.472-0.29-9.949-3.99-19.348-11.11-28.18zm-487.17 0c-7.14-8.82-18.09-15.488-32.9-20.07-5.69-1.688-13.67-2.699-23.91-2.969-10.25-0.309-24.48-0.441-42.7-0.441h-69.18c-27.9 0-62.34-0.278-103.35-0.84-10.24-0.578-20.79-0.879-31.59-0.879-10.84 0-20.23 3.711-28.19 11.109-6.84 5.711-11.82 14.371-14.94 26.051-3.15 11.672-5.14 23.922-5.99 36.738-0.85 12.801-1.15 25.602-0.85 38.41 0.27 12.84 0.42 23.512 0.42 32.032 0 17.082 0.15 36.73 0.43 58.941 0.29 22.209 0.57 44.839 0.85 67.889 0.3 23.08 0.43 45.69 0.43 67.9v58.93c0 30.19 0.29 54.52 0.85 73.04 0.56 18.48 1.84 33 3.86 43.55 1.97 10.54 5.24 18.22 9.82 23.07 4.55 4.82 10.8 8.96 18.78 12.37 6.84 2.86 14.39 3.84 22.63 3 8.26-0.85 15.94-3.14 23.08-6.84 7.09-3.71 13.07-8.83 17.93-15.37 4.82-6.56 7.26-13.82 7.26-21.77 1.13-68.33 1.13-136.11 0-203.27-1.16-67.2-1.73-134.4-1.73-201.57 35.87 0 71.61 0.418 107.19 1.277 35.59 0.852 71.61 1.832 108.05 2.981l5.13-1.7c13.09-6.281 23.04-14.238 29.9-23.918 6.83-9.703 10.08-19.5 9.8-29.472-0.28-9.949-3.99-19.348-11.08-28.18zm-468.44 188.32c-3.13-8.527-8.24-15.929-15.36-22.199-7.13-6.262-15.81-10.539-26.07-12.808 5.71-19.942 10.7-40.293 14.96-61.063 4.28-20.801 7.84-41.738 10.68-62.769v-5.989c-1.71-12.543-5.99-23.211-12.82-32.011-6.83-8.829-14.66-14.961-23.47-18.372-8.85-3.429-18.23-3.847-28.19-1.277-9.97 2.559-19.22 9.258-27.77 20.059-7.41 9.101-11.51 19.23-12.38 30.32-0.86 11.109-2.42 22.07-4.71 32.879-5.68 31.312-13.94 63.492-24.76 96.512-35.32-0.571-70.32-0.852-105.04-0.852-34.73 0-69.47-0.301-104.19-0.848-5.13-14.812-9.55-29.91-13.23-45.281-3.73-15.359-7.27-30.461-10.7-45.25-2.86-11.422-5.42-23.211-7.67-35.449-2.31-12.262-7.43-22.93-15.38-32.031-9.7-11.391-20.08-17.789-31.18-19.219-11.1-1.41-21.07 0.437-29.9 5.57-8.83 5.11-15.94 12.938-21.35 23.481-5.42 10.508-7.25 22.617-5.54 36.289 1.71 17.629 5.11 35.008 10.23 52.09 5.15 17.089 9.96 34.168 14.53 51.25 25.62 97.919 58.64 192.74 99.08 284.42 3.4 7.95 6.97 15.64 10.67 23.04 3.71 7.41 7.26 14.8 10.67 22.21 4 7.98 7.98 16.51 11.98 25.63 3.96 9.11 8.65 17.5 14.07 25.21 5.42 7.68 11.82 14.22 19.22 19.64 7.41 5.39 16.52 8.09 27.32 8.09 14.23 0 26.2-4.55 35.88-13.65 38.71-38.74 70.6-82.42 95.66-131.1 25.05-48.68 47.54-98.38 67.47-149.04 11.96 0.55 23.63 0.55 35.01 0 11.39-0.57 21.65-5.71 30.76-15.39 7.98-7.97 12.66-16.5 14.08-25.6 1.42-9.13 0.56-17.928-2.56-26.491zm-596.95 14.961c-6.83-9.98-16.79-16.379-29.89-19.23v-148.6c0-14.238-3.55-26.906-10.67-38-7.13-11.129-15.81-18.937-26.05-23.488s-21.08-5.559-32.45-3c-11.4 2.559-21.66 10.129-30.75 22.641-3.99 5.687-6.7 12.23-8.11 19.648-1.43 7.383-2.14 14.223-2.14 20.481v147.75h-199v-145.19c0-6.258-0.56-12.656-1.72-19.207-1.14-6.562-3.14-12.391-5.96-17.519-7.41-13.653-16.81-22.481-28.2-26.454-11.4-3.976-22.51-3.847-33.31 0.411-10.82 4.281-20.06 11.691-27.76 22.211-7.68 10.531-11.51 23.48-11.51 38.871v441.55c0 14.81 4.4 27.61 13.23 38.43 8.82 10.82 18.91 18.36 30.31 22.64 11.39 4.28 22.91 4.55 34.6 0.85 11.65-3.7 20.34-12.67 26.05-26.89 1.71-4.57 2.84-8.7 3.4-12.4 0.57-3.7 0.87-7.82 0.87-12.37v-193.03h199v182.77c0 11.38 2.56 22.19 7.67 32.47 6.27 12.51 15.25 21.34 26.92 26.45 11.65 5.12 23.05 6.55 34.16 4.28 11.1-2.29 20.78-7.82 29.04-16.65 8.24-8.83 12.38-20.92 12.38-36.29v-196.44c13.67-4 23.92-11.25 30.76-21.79 6.83-10.54 10.08-21.5 9.82-32.88-0.3-11.39-3.86-22.07-10.69-32.02zm-571.31 193.44c-3.71-6.27-8.69-11.53-14.94-15.8-6.29-4.28-13.39-6.97-21.37-8.12-13.1-1.69-23.2-0.3-30.3 4.28-7.13 4.55-12.82 10.24-17.09 17.08s-8.41 13.51-12.39 20.08c-3.98 6.54-9.68 11.23-17.07 14.08-4.57 0-7.99-0.29-10.27-0.85-19.35-5.13-38.85-12.11-58.5-20.91-19.62-8.86-37.87-19.53-54.65-32.04-16.79-12.53-31.47-27.06-43.99-43.57-12.54-16.5-21.64-35.01-27.32-55.5-6.84-24.49-9.4-49.25-7.69-74.31 1.7-25.078 8.53-48.68 20.5-70.879 6.82-13.11 15.93-24.492 27.33-34.16 11.37-9.7 23.9-16.95 37.56-21.801 13.67-4.84 27.62-6.539 41.87-5.129 14.23 1.43 27.89 6.418 40.98 14.961 11.39 7.957 21.65 17.797 30.76 29.457 9.09 11.672 17.35 23.48 24.77 35.449 9.09 9.102 19.49 14.383 31.16 15.801 11.67 1.41 22.35-0.141 32.04-4.688 9.67-4.57 17.2-11.82 22.62-21.8 5.42-9.961 6.7-21.762 3.84-35.442-3.41-13.648-9.95-26.34-19.63-38-9.69-11.668-19.36-22.347-29.04-32.019-22.21-23.352-46.85-40.571-73.89-51.68-27.03-11.102-54.37-16.359-81.98-15.809-27.62 0.598-54.66 7.137-81.14 19.637-26.47 12.543-50.26 31.313-71.31 56.383-12.54 14.809-23.06 30.461-31.6 46.988-8.53 16.492-15.08 33.871-19.63 52.09-6.86 26.762-9.98 54.66-9.42 83.701 0.57 29.05 5.12 57.22 13.66 84.54 8.55 27.34 20.63 53.11 36.31 77.3 15.66 24.2 34.88 44.84 57.65 61.93 16.5 12.5 33.16 23.35 49.95 32.44 16.81 9.11 34.59 17.66 53.4 25.64 10.8 4.56 21.9 8.97 33.31 13.22 11.37 4.28 23.06 7.55 35.01 9.84 11.95 2.25 23.92 3.13 35.87 2.55 11.95-0.56 23.62-3.13 35.03-7.67 7.96-3.44 15.92-8.13 23.9-14.09 7.96-5.99 15.38-12.84 22.21-20.51 6.83-7.7 12.81-15.81 17.93-24.34 5.13-8.55 8.83-16.8 11.11-24.77 1.71-7.4 2.12-14.95 1.28-22.64-0.85-7.68-3.14-14.65-6.83-20.92zm4544.1 448.91h-5175.8c-98.25 0-177.88-79.64-177.88-177.87v-792.25c0-98.25 79.63-177.88 177.88-177.88h5175.8c98.2 0 177.8 79.629 177.8 177.88v792.25c0 98.23-79.6 177.87-177.8 177.87"/>
   <path d="m8164.2 1206c-11.38-25.07-22.08-49.97-32.03-74.74-9.96-24.76-19.22-49.97-27.74-75.57 26.74 0.54 50.23 0.85 70.45 0.85 20.2 0 41.98 0.28 65.34 0.85-10.82 25.62-22.36 51.1-34.59 76.43-12.26 25.34-26.05 49.4-41.43 72.18"/>
  </g>
 </g>
</svg>
