<?xml version="1.0" encoding="UTF-8"?>
<!-- Created with Inkscape (http://www.inkscape.org/) -->
<svg width="543.71" height="150.64" version="1.1" viewBox="0 0 543.71 150.64" xmlns="http://www.w3.org/2000/svg">
 <g transform="matrix(1.3333 0 0 -1.3333 0 150.64)">
  <g transform="scale(.1)">
   <g fill="#7b7979">
    <path d="m1613.9 187.84h24.41v-183.47h-24.41v183.47"/>
    <path d="m1684.6 187.84h24.41v-162.91h97.13v-20.559h-121.54v183.47"/>
    <path d="m1832.5 187.84h24.41v-162.91h97.13v-20.559h-121.54v183.47"/>
    <path d="m1981.5 187.84h24.41v-183.47h-24.41v183.47"/>
    <path d="m2051.9 187.84h25.96l96.61-148.78h0.52v148.78h23.12v-183.47h-26.72l-95.84 147.24h-0.52v-147.24h-23.13v183.47"/>
    <path d="m2320.4 20.559c44.71 0 63.47 38.543 63.47 75.543 0 37.003-18.76 75.55-63.47 75.55-44.72 0-63.47-38.547-63.47-75.55 0-37 18.75-75.543 63.47-75.543zm0 171.65c58.33 0 87.88-46.254 87.88-96.105 0-49.84-29.55-96.102-87.88-96.102s-87.88 46.262-87.88 96.102c0 49.851 29.55 96.105 87.88 96.105"/>
    <path d="m2444.2 187.84h24.4v-183.47h-24.4v183.47"/>
    <path d="m2621 134.14c-2.83 26.207-20.3 37.515-45.48 37.515-20.56 0-41.12-7.453-41.12-31.347 0-22.614 29.3-25.953 58.85-32.633 29.29-6.684 58.59-16.961 58.59-52.934 0-39.059-38.29-54.738-71.69-54.738-41.12 0-75.8 20.051-75.8 64.762h23.12c0-30.84 25.69-44.203 53.45-44.203 22.1 0 46.5 6.9414 46.5 33.41 0 25.18-29.28 29.551-58.58 35.973-29.3 6.418-58.85 14.899-58.85 48.563 0 37.258 33.15 53.703 66.55 53.703 37.52 0 66.05-17.727 67.59-58.07h-23.13"/>
    <path d="m2838.3 103.3c22.87 0 42.4 5.91 42.4 32.633 0 17.988-9.76 31.347-32.63 31.347h-60.65v-63.98zm-75.29 84.539h86.34c34.43 0 55.76-18.758 55.76-48.055 0-22.094-9.77-40.344-31.87-46.504v-0.5118c21.33-4.1211 25.71-19.789 27.5-37.781 1.55-17.988 0.51-38.027 10.79-50.617h-27.23c-6.95 7.4492-3.09 27.238-6.68 45.231-2.57 17.976-6.95 33.148-30.58 33.148h-59.62v-78.379h-24.41v183.47"/>
    <path d="m3021.7 20.559c44.71 0 63.47 38.543 63.47 75.543 0 37.003-18.76 75.55-63.47 75.55-44.72 0-63.47-38.547-63.47-75.55 0-37 18.75-75.543 63.47-75.543zm0 171.65c58.33 0 87.88-46.254 87.88-96.105 0-49.84-29.55-96.102-87.88-96.102s-87.88 46.262-87.88 96.102c0 49.851 29.55 96.105 87.88 96.105"/>
    <path d="m3168.9 24.93h61.15c21.07 0 34.43 12.84 34.43 32.891 0 23.898-19.27 30.57-39.82 30.57h-55.76zm0 84.019h48.81c27.76 0 39.07 10.031 39.07 29.301 0 25.434-17.99 29.031-39.07 29.031h-48.81zm-24.42 78.891h66.56c16.19 0 37.51 0 48.56-6.68 12.08-7.195 21.59-20.301 21.59-38.289 0-19.531-10.28-34.172-27.24-41.109v-0.512c22.61-4.6289 34.95-21.59 34.95-44.199 0-26.98-19.27-52.68-55.77-52.68h-88.65v183.47"/>
    <path d="m3403.2 20.559c44.71 0 63.47 38.543 63.47 75.543 0 37.003-18.76 75.55-63.47 75.55s-63.46-38.547-63.46-75.55c0-37 18.75-75.543 63.46-75.543zm0 171.65c58.33 0 87.88-46.254 87.88-96.105 0-49.84-29.55-96.102-87.88-96.102s-87.88 46.262-87.88 96.102c0 49.851 29.55 96.105 87.88 96.105"/>
    <path d="m3567.6 167.28h-61.15v20.559h146.71v-20.559h-61.15v-162.91h-24.41v162.91"/>
    <path d="m3679.6 187.84h24.4v-183.47h-24.4v183.47"/>
    <path d="m3879.2 132.59c-5.14 25.953-25.95 39.058-51.39 39.058-43.68 0-62.19-35.976-62.19-74.261 0-41.891 18.51-76.832 62.45-76.832 32.11 0 50.62 22.613 52.93 52.93h24.41c-4.63-45.727-33.14-73.488-79.39-73.488-57.06 0-84.81 42.141-84.81 95.59 0 53.191 30.32 96.617 86.86 96.617 38.29 0 69.89-20.555 75.54-59.613h-24.41"/>
    <path d="m4046.9 134.14c-2.82 26.207-20.29 37.515-45.48 37.515-20.55 0-41.11-7.453-41.11-31.347 0-22.614 29.3-25.953 58.85-32.633 29.29-6.684 58.58-16.961 58.58-52.934 0-39.059-38.29-54.738-71.69-54.738-41.11 0-75.8 20.051-75.8 64.762h23.13c0-30.84 25.69-44.203 53.44-44.203 22.1 0 46.51 6.9414 46.51 33.41 0 25.18-29.29 29.551-58.59 35.973-29.29 6.418-58.84 14.899-58.84 48.563 0 37.258 33.15 53.703 66.55 53.703 37.52 0 66.04-17.727 67.59-58.07h-23.14"/>
   </g>
   <path d="m853.01 792.48c31.23 0 61.523-2.852 90.449-8.137l68.843 71.73c-48.14 16.66-102.18 26.016-159.29 26.016-97.11 0-185.27-27.082-250.64-71.152l59.981-56.848c55.469 24.309 120.74 38.391 190.66 38.391" fill="#959596"/>
   <path d="m853.01 882.09c57.109 0 111.15-9.356 159.29-26.016l74.83 77.918c-69.83 27.52-149.47 43.157-234.12 43.157-126.15 0-241.29-34.719-329.14-91.836l78.496-74.375c65.371 44.07 153.54 71.152 250.64 71.152" fill="#fff"/>
   <g fill="#959596">
    <path d="m493.65 577.24c6.289 25.703 17.93 50.117 33.965 72.656l-30.137 30.489c-6.015-18.75-9.316-38.282-9.316-58.352 0-15.281 1.941-30.234 5.488-44.793"/>
    <path d="m270.9 408.66-12.656-65.625 125.94 54.219c-7.95 16.73-9.504 38.508-14.121 56.25l-99.161-44.844"/>
    <path d="m182.27 1122.2-182.27-998.1 86.199-7.039 180.48 1012.6-84.407-7.51"/>
   </g>
   <path d="m795.2 547.89v80.722l-132.38 125.48-59.981 56.848-78.496 74.375-257.94 244.45-180.56-1012.7 382.03 167.96c-38.047 33.605-65.019 69.414-85.019 111.61l-124.38-53.34 12.48 65.273 80.586 420 6.738 35.254 66.524-67.011 85.586-86.211 36.777-37.051 151.11-130.16-146.72-67.207c38.125-38.086 83.222-71.594 144.08-90.539l183.01 82.187-83.457 80.012" fill="#ed1c24"/>
   <g fill="#959596">
    <path d="m1212.3 577.24c3.56 14.559 5.53 29.512 5.53 44.793 0 45.09-16.5 87.629-44.84 124.59l-43.44-45c41.68-34.715 71.35-77.48 82.75-124.38"/>
    <path d="m1294 150.02-102.97 98.953c-16.44-11.258-34.08-21.68-52.5-31.25l155.47-149.28 479.44 499.35-0.53 80.867-478.91-498.64"/>
    <path d="m944.67 485.41-84.785 81.445-64.922 61.954-0.234-80.926 91.25-87.637 87.226-83.762c22.129 5.52 43.337 12.481 63.297 20.762l-91.832 88.164"/>
    <path d="m1278 937.01-68.24-71.055-75.32-78.457-51.29-53.43-97.262-101.28 40.742-39.101 103.48 107.74 43.28 45.058 79.24 82.532 25.37 26.433 263.65-252.73 40.78 42.344-304.43 291.94"/>
   </g>
   <path d="m1252.7 829.02-79.24-82.532c28.34-36.961 44.45-79.363 44.45-124.45 0-15.281-1.97-30.234-5.53-44.793-9.25-37.949-30.04-73.078-59.68-103.48-30.4-31.133-70.04-57.317-116.16-76.516-19.96-8.281-41.168-15.242-63.297-20.762-37.637-9.324-78.066-14.492-120.2-14.492-51.875 0-101.15 7.727-145.82 21.652-60.84 18.954-113.01 49.364-151.14 87.461-13.914 13.868-25.926 28.778-35.84 44.532-12.215 19.382-21.258 40.019-26.551 61.601-3.547 14.559-5.488 29.512-5.488 44.793 0 20.07 3.301 39.602 9.316 58.352l-91.054 92.156c-33.321-49.441-52.149-105.14-52.149-164.15 0-15.196 1.387-30.137 3.809-44.825 5.84-35.664 18.613-69.699 37.227-101.46 9.316-15.968 20.164-31.328 32.343-46.035 32.032-38.644 73.348-72.55 121.72-100.09 84.082-47.832 189.32-76.328 303.63-76.328 79.98 0 155.5 13.918 222.48 38.645 20.31 7.5 39.82 15.996 58.43 25.437 43.21 21.829 81.49 48.536 113.46 79.075 53.66 51.218 89.5 113.15 100.57 180.76 2.42 14.688 3.79 29.629 3.79 44.825 0 82.734-36.84 159.1-99.08 220.62" fill="#fff"/>
   <path d="m944.24 484.8 91.502-87.863c46.1 19.199 86.08 45.078 116.49 76.21l-125.45 120.47-40.745 39.113 96.715 100.72 51.29 53.426 75.3 78.457 68.26 71.066 303.71-291.57-40.78-42.461-248.81-259.07c-26.19-35.918-60.18-67.774-100.35-95.266l102.2-98.633 479.46 499.31-499.34 479.43-186.99-194.76-74.84-77.922-68.852-71.726-148.05-154.91 149.28-144.01" fill="#1c63b7"/>
   <path d="m522.27 513.16s2.371-3.937 2.664-4.387c7.316-11.64 17.383-22.304 26.906-32.929l149.16 68.906-342.75 319.22-9.375-49.375 268.95-266.24-95.547-35.195" fill="#959596"/>
   <path d="m1351.7 608.4c0-15.196-1.37-30.137-3.79-44.825-11.07-67.609-46.91-129.54-100.57-180.76-31.97-30.539-70.25-57.246-113.46-79.075-18.61-9.441-38.12-17.937-58.43-25.437-66.98-24.727-142.5-38.645-222.48-38.645-114.32 0-219.55 28.496-303.63 76.328-48.371 27.54-89.687 61.446-121.72 100.09-12.179 14.707-23.027 30.067-32.343 46.035-18.614 31.766-31.387 65.801-37.227 101.46-2.422 14.688-3.809 29.629-3.809 44.825 0 4.765 0.332 9.492 0.586 14.187-0.05 0.266-0.136 0.606-0.156 0.852-2.422-14.7-0.43-89.504-0.43-104.68 0-24.051 3.203-47.539 9.168-70.32 4.621-17.746 10.989-35.032 18.938-51.758 20-42.199 50.066-80.91 88.125-114.51 91.523-80.742 228.89-132.15 382.5-132.15 106.62 0 205.29 24.804 286.37 66.922 18.41 9.57 35.93 20.011 52.38 31.269 40.17 27.492 74.22 59.785 100.41 95.703 37.99 51.992 59.57 111.56 59.57 174.84 0 13.351 1.15 76.613-0.14 101.73-0.21 3.446 0.14-7.734 0.14-12.089" fill="#959596"/>
   <g fill="#231f20">
    <path d="m1892.5 888.19h396.91l-37.37-152.84h-190.24l-18.81-80.301h198.45l-34.55-141.61h-195.88l-47.03-201.19h-205.04l133.56 575.95"/>
    <path d="m2343.3 888.19h205.04l-133.56-575.95h-205.04l133.56 575.95"/>
    <path d="m2753.4 613.59c65.84 0 111.93 38.871 111.93 94.125 0 29.363-21.64 44.043-63.96 44.043-12.23 0-18.81-0.863-31.98-3.457l-31.04-132.97c6.59-0.867 7.53-1.738 15.05-1.738zm-151.43 271.14 13.17 1.731c65.84 7.769 147.67 12.945 192.81 12.945 75.24 0 133.56-8.633 177.77-26.758 56.43-23.316 90.3-74.265 90.3-135.57 0-52.668-17.88-102.75-51.74-141.61-29.16-33.668-55.49-50.078-110.05-66.485l-13.17-4.312c5.65-4.328 7.53-6.059 10.36-8.645 15.98-18.136 63.95-111.39 104.4-203.78h-225.74c-29.15 82.031-37.62 103.61-76.18 196.88l-45.15-196.88h-199.39l132.61 572.49"/>
    <path d="m3562.8 888.19h497.5l-34.75-166.73h-147.66l-97.82-409.22h-205.04l97.82 409.22h-160.05l50 166.73"/>
    <path d="m3874.7 366.8c4.44 0 6.96 2.129 6.96 6.191 0 3.867-2.32 5.996-6.77 5.996-0.96 0-1.16 0-2.13-0.195v-11.797c0.78-0.195 1.17-0.195 1.94-0.195zm-17.98 23.972c2.52 0.196 2.9 0.383 7.93 0.774 5.02 0.39 7.15 0.586 9.28 0.586 16.43 0 24.55-6.387 24.55-18.567 0-7.343-3.09-11.785-9.67-14.304l-0.77-0.196c0.57-0.39 0.77-0.578 0.97-0.957 1.73-1.554 7.53-10.254 12.37-18.183h-18.75c-3.87 7.16-5.03 9.09-9.87 17.207v-17.207h-16.04zm19.34-69.402c24.35 0 43.88 19.531 43.88 43.691 0 24.356-19.53 43.887-43.88 43.887-24.17 0-43.7-19.531-43.7-43.691 0-24.551 19.34-43.887 43.7-43.887zm0 93.77c27.63 0 50.06-22.247 50.06-49.883 0-27.84-22.23-50.078-50.06-50.078-28.04 0-49.89 21.855-49.89 50.078 0 27.832 22.04 49.883 49.89 49.883"/>
    <path d="m3036 326.88c57.64-17.129 120.68-26.731 179.58-26.731 79.95 0 141.08 18.125 193.75 56.125 58.31 41.453 95.93 105.34 95.93 163.19 0 38.871-16.92 74.269-47.02 99.316-23.51 18.985-47.97 33.676-97.82 56.985l-40.44 18.992c-13.17 6.914-19.76 13.82-19.76 21.593 0 20.723 26.34 36.258 62.08 36.258 26.74 0 58.61-7.773 119.51-27.683l42.03 155.91c-45.55 12.371-89.92 18.57-134.27 18.57-167.41 0-296.27-91.523-296.27-209.82 0-62.168 41.39-106.21 144.84-154.57 48.91-22.442 57.39-28.496 57.39-44.032 0-23.308-25.4-38-66.79-38-36.68 0-83.7 11.231-147.67 34.543l-0.07-0.019-45-160.62"/>
   </g>
  </g>
 </g>
</svg>
